<svg width="126" height="48" viewBox="0 0 126 48" fill="none" xmlns="http://www.w3.org/2000/svg">
<path d="M24.1665 0.853027C26.6088 0.901017 29.562 1.34892 32.4354 2.40469C36.2346 3.79639 39.3314 6.1159 41.9653 9.15524C43.7372 11.2028 45.0781 13.5063 46.1636 15.9378C47.0416 17.9214 47.7121 19.9689 48.1271 22.1285C48.4623 23.8401 48.6539 25.5517 48.6698 27.2633C48.7018 29.9828 48.3825 32.6862 47.3768 35.2456C46.9458 36.3494 46.0679 36.8613 44.8866 36.8773C44.1842 36.8773 44.0086 36.6053 44.296 36.0135C44.9983 34.5738 45.4293 33.0381 45.6847 31.4704C46.2435 28.1112 46.1636 24.7519 45.2857 21.4406C43.7532 15.6978 40.8958 10.8349 35.8994 7.45961C31.4776 4.48425 26.5609 3.47646 21.2931 4.02035C18.7071 4.29229 16.2488 4.96414 13.966 6.19588C11.0448 7.77954 8.58647 9.92308 6.68685 12.6905C5.64925 14.1942 4.8511 15.8098 4.27642 17.5214C3.38249 20.2089 3.04726 22.9923 3.3346 25.8397C3.60597 28.5111 4.48395 30.9746 5.53751 33.438C6.06429 34.6538 4.3722 34.7018 3.74964 35.3256C3.27075 35.8055 3.0313 35.2776 2.82378 34.9097C1.5627 32.5262 0.748577 30.0148 0.349499 27.3273C-0.0176527 24.8479 0.0621619 22.4004 0.41335 19.9369C0.636834 18.3853 1.13169 16.8816 1.6904 15.4259C2.71204 12.8345 4.19661 10.5469 6.08026 8.48339C8.1395 6.21187 10.5659 4.43626 13.3275 3.15653C16.568 1.65285 19.9841 0.853027 24.1665 0.853027Z" fill="#E74214"/>
<path d="M43.3229 27.4392C43.5305 31.6303 42.3652 35.2615 40.1303 38.5568C38.4382 41.0523 36.2034 42.9559 33.5535 44.4436C29.7224 46.5711 25.6518 47.4189 21.3258 47.067C17.4627 46.7471 13.9189 45.4993 10.6305 43.4038C8.58721 42.0921 6.87916 40.4604 5.29881 38.6528C4.83588 38.1249 4.78799 37.741 5.41055 37.3091C5.96926 36.9092 6.46411 36.1733 7.07071 36.1573C7.67731 36.1414 7.98061 37.0212 8.42758 37.4851C11.1413 40.3644 14.318 42.412 18.181 43.4358C21.1502 44.2196 24.1034 44.4116 27.0565 43.6597C31.7656 42.46 35.6766 40.0445 38.2147 35.7574C39.4599 33.6619 40.1463 31.3584 40.4017 28.9269C40.8646 24.3679 39.5716 20.2888 37.0335 16.5296C36.2672 15.3938 35.3573 14.418 34.3197 13.5382C33.9845 13.2503 33.8887 12.9943 34.2719 12.6424C34.7986 12.1625 35.086 11.2507 35.7724 11.1707C36.4748 11.0907 36.9058 11.9545 37.4166 12.4344C39.2045 14.1461 40.4975 16.2096 41.5191 18.4332C42.8281 21.3765 43.5464 24.3999 43.3229 27.4392Z" fill="#E74214"/>
<path d="M6.12804 23.9842C6.15997 17.0257 10.3742 10.787 16.7435 8.17959C20.1277 6.78789 23.5917 6.57993 27.1674 7.15581C28.9872 7.45974 30.6953 8.03562 32.3554 8.80346C33.3451 9.26736 33.3611 9.34734 32.7864 10.2271C32.7545 10.2751 32.7226 10.3071 32.6907 10.3551C31.8765 11.7628 31.9085 11.6988 30.3441 11.091C27.7581 10.0832 25.0763 9.61928 22.2668 9.92321C18.8347 10.2911 15.8815 11.5869 13.503 14.0663C10.1348 17.5696 8.84177 21.7607 9.76763 26.5756C10.6935 31.3906 13.519 34.7819 17.9088 36.7495C20.5427 37.9172 23.3682 38.4771 26.2735 37.5493C26.6087 37.4373 26.8003 37.4853 26.928 37.8692C27.1674 38.5731 27.4388 39.2609 27.7102 39.9328C27.9496 40.5246 27.4548 40.5566 27.1355 40.6526C24.9805 41.2925 22.7935 41.3245 20.5906 40.9565C16.9351 40.3647 13.7744 38.733 11.1405 36.1416C8.88966 33.9181 7.37316 31.2466 6.60693 28.1593C6.27171 26.7996 6.11208 25.4079 6.12804 23.9842Z" fill="#E74214"/>
<path d="M12.0187 24.0962C11.8591 19.2173 15.5146 14.5143 20.3355 13.2505C20.99 13.0746 21.2933 13.2665 21.3891 13.9064C21.405 13.9864 21.421 14.0664 21.421 14.1463C21.6604 16.0819 21.6445 16.0179 19.8247 16.8658C16.7757 18.2895 14.7963 21.7927 15.371 25.248C16.0414 29.3271 19.6491 32.2385 23.5121 32.0305C25.8747 31.9025 28.3649 30.3989 28.4926 27.5355C28.5246 26.7836 28.9556 26.5757 29.6101 26.5117C31.7491 26.3357 31.6214 26.3197 31.4299 28.2713C31.1266 31.4706 29.211 33.5822 26.3057 34.6539C23.1769 35.8057 20.1439 35.2138 17.3025 33.5502C14.1418 31.7426 11.8112 27.8554 12.0187 24.0962Z" fill="#E74214"/>
<path d="M37.4317 26.6232C37.304 31.7741 35.2448 35.7892 31.1582 38.7326C30.7432 39.0365 30.4558 39.0205 30.2004 38.5406C29.9929 38.1727 29.7854 37.8048 29.53 37.4529C29.0032 36.733 29.2107 36.3011 29.929 35.8532C31.4136 34.9094 32.4831 33.5977 33.2973 32.03C34.287 30.1424 34.5424 28.1429 34.3668 26.0793C34.1433 23.3759 33.0578 21.0084 31.1901 19.0408C29.4502 17.2012 27.2472 16.3214 24.773 16.0814C24.2781 16.0335 24.1185 15.8575 24.1504 15.3936C24.1664 15.1537 24.1504 14.9137 24.1504 14.6738C24.1664 12.8821 24.1823 12.7862 25.9702 13.0581C29.6736 13.618 32.6587 15.3776 34.8297 18.5129C36.5537 21.0084 37.3359 23.7598 37.4317 26.6232Z" fill="#E74214"/>
<path d="M23.1601 18.625C26.5602 18.673 28.827 19.7288 30.2637 22.2722C30.4712 22.6401 30.6149 23.0401 30.7745 23.424C30.9182 23.8239 30.6308 23.9519 30.3275 24.0158C30.0402 24.0798 29.7369 24.0638 29.4655 24.1278C28.6833 24.3038 28.0927 24.3518 27.5819 23.456C26.672 21.8563 25.0757 21.4084 23.3357 21.5524C22.2662 21.6484 21.5638 22.3522 21.2605 23.376C20.9891 24.2718 21.3243 25.0076 21.9788 25.5995C22.7291 26.2874 23.5751 26.5273 24.5329 26.0474C24.916 25.8554 25.347 25.7755 25.6184 25.4075C25.9536 24.9276 26.1452 25.0076 26.4645 25.4875C27.3265 26.7513 26.1452 28.5429 25.0278 29.0228C22.8887 29.9346 20.3027 28.8468 19.1214 27.1352C17.3974 24.6397 17.9242 21.5044 20.3346 19.7128C21.3084 18.9449 22.4737 18.641 23.1601 18.625Z" fill="#E74214"/>
<path d="M63.6065 24.7998V11.3674H74.5654V24.7998H78.4166V8.25192H74.3149H59.7552V12.1658V24.7998H63.6065ZM97.3679 11.203H86.9805V21.6922H97.3679V18.1306L101.219 18.929V20.8859C101.219 22.3836 100.94 23.4117 100.382 23.9701C99.7867 24.5232 98.6961 24.7998 97.1096 24.7998H87.2388C85.6524 24.7998 84.5617 24.5232 83.9668 23.9701C83.4084 23.4117 83.1292 22.3836 83.1292 20.8859V12.1658C83.1292 10.6733 83.4084 9.64787 83.9668 9.08949C84.5565 8.53111 85.6472 8.25192 87.2388 8.25192H97.1096C98.7013 8.25192 99.7919 8.53111 100.382 9.08949C100.94 9.64787 101.219 10.6733 101.219 12.1658V13.7392L97.3679 14.3497V11.203ZM119.529 11.203H109.141V21.6922H119.529V18.1306L123.38 18.929V20.8859C123.38 22.3836 123.101 23.4117 122.542 23.9701C121.947 24.5232 120.857 24.7998 119.27 24.7998H109.4C107.813 24.7998 106.722 24.5232 106.128 23.9701C105.569 23.4117 105.29 22.3836 105.29 20.8859V12.1658C105.29 10.6733 105.569 9.64787 106.128 9.08949C106.717 8.53111 107.808 8.25192 109.4 8.25192H119.27C120.862 8.25192 121.953 8.53111 122.542 9.08949C123.101 9.64787 123.38 10.6733 123.38 12.1658V13.7392L119.529 14.3497V11.203Z" fill="#E74214"/>
<path d="M59.6222 35.8496V28.495H66.3332L65.5365 29.7787H61.3339V35.8496H59.6222ZM72.8637 29.7648H69.0159V31.7166H72.8637C73.1629 31.7166 73.367 31.6736 73.476 31.5878C73.5804 31.502 73.6326 31.3501 73.6326 31.1321V30.3493C73.6326 30.1313 73.5804 29.9794 73.476 29.8936C73.367 29.8077 73.1629 29.7648 72.8637 29.7648ZM67.3356 35.8496V28.495H73.6186C74.1962 28.495 74.6241 28.6052 74.9024 28.8255C75.1598 29.0505 75.2886 29.4158 75.2886 29.9214V31.56C75.2886 32.054 75.1598 32.4147 74.9024 32.642C74.631 32.8716 74.2031 32.9864 73.6186 32.9864H69.0159V35.8496H67.3356ZM79.5403 32.9133H82.7619L81.165 29.9214L79.5403 32.9133ZM76.2492 35.8496L80.3962 28.495H82.0487L86.2687 35.8496H84.3448L83.4612 34.2388H78.7993L77.9435 35.8496H76.2492ZM96.1634 35.8496V28.495H94.9945L89.8212 32.8298C89.6055 32.9968 89.4489 33.129 89.3515 33.2264C89.2402 33.3378 89.1173 33.4711 88.9828 33.6265C88.992 33.4781 89.0013 33.3169 89.0106 33.1429C89.0222 32.969 89.0315 32.8403 89.0384 32.7568C89.0477 32.6431 89.0523 32.5098 89.0523 32.3567V28.495H87.5146V35.8496H88.6836L94.083 31.3026C94.2384 31.168 94.352 31.0637 94.4239 30.9894C94.5399 30.8758 94.6303 30.7807 94.6953 30.7042C94.6906 30.7877 94.6814 30.899 94.6675 31.0381C94.6535 31.1773 94.6443 31.2805 94.6396 31.3478C94.6303 31.4893 94.6257 31.6644 94.6257 31.8731V35.8496H96.1634ZM90.2769 28.495V27.2426H93.5994V28.495H90.2769ZM102.621 29.8066V35.8496H100.913V29.8066H97.5346V28.495H106.013V29.8066H102.621ZM106.786 35.8496V28.495H114.311V29.7509H108.497V31.3895H111.889V32.642H108.497V34.4684H114.384V35.8496H106.786ZM115.87 35.8496V28.495H117.595V31.56L121.669 28.495H124.15L119.276 31.9601L124.748 35.8496H121.996L117.595 32.6141V35.8496H115.87Z" fill="#E74214"/>
</svg>
