<svg width="140" height="20" viewBox="0 0 140 20" fill="none" xmlns="http://www.w3.org/2000/svg">
<g clip-path="url(#clip0_1_468)">
<path fill-rule="evenodd" clip-rule="evenodd" d="M133.199 18.5633V5.69236H139.265V1.4375H121.646V5.69236H127.713V18.5633H133.199Z" fill="#E74214"/>
<path fill-rule="evenodd" clip-rule="evenodd" d="M99.5972 18.5633V14.4148H91.3149C90.9984 14.4148 90.5236 14.4148 90.2598 14.2021C90.1543 14.0957 89.9961 13.8829 89.9961 13.5638V11.7023H99.2802V7.97933H89.9961V6.70288C89.9961 6.49014 89.9961 6.06465 90.2598 5.85191C90.4708 5.69236 90.7873 5.58598 91.1039 5.58598H99.4916V1.4375H87.2529C86.6199 1.4375 85.8287 1.54387 85.1956 2.12892C84.5626 2.71396 84.457 3.40537 84.457 4.09678V15.8508C84.457 16.6486 84.457 17.34 85.2483 18.0314C85.8814 18.5633 86.62 18.6165 87.3057 18.6165H99.5972V18.5633Z" fill="#E74214"/>
<path fill-rule="evenodd" clip-rule="evenodd" d="M63.4614 14.3616H61.8262V18.5633H81.9247V14.3616H80.2366L75.7 3.35218C75.3835 2.50121 74.6449 1.4375 71.849 1.4375C69.0005 1.4375 68.3147 2.50121 67.9982 3.35218L63.4614 14.3616ZM71.5853 6.96881C71.638 6.80926 71.6908 6.54332 71.849 6.54332C72.0073 6.54332 72.06 6.80926 72.1128 6.96881L74.8032 14.3084H68.8949L71.5853 6.96881Z" fill="#E74214"/>
<path fill-rule="evenodd" clip-rule="evenodd" d="M112.573 5.58672C112.89 5.58672 113.154 5.58672 113.418 5.85265C113.681 6.11857 113.681 6.43769 113.681 6.75681V18.6172H119.167V3.93796C119.167 3.35292 119.062 2.76788 118.534 2.18283C117.849 1.49142 117.058 1.43824 116.055 1.43824H105.346C104.555 1.43824 103.553 1.38505 102.814 2.18283C102.286 2.71469 102.182 3.35292 102.182 3.93796V18.564H107.668V6.70362C107.668 6.3845 107.668 6.06539 107.931 5.79946C108.195 5.53353 108.511 5.53353 108.775 5.53353H112.573V5.58672Z" fill="#E74214"/>
<path fill-rule="evenodd" clip-rule="evenodd" d="M39.0879 18.5632H44.7851L46.104 15.053H52.1704L53.4892 18.5632H59.1865L52.9617 3.45852C52.1704 1.54383 50.7461 1.38428 49.1108 1.38428C46.5259 1.38428 45.7874 2.18206 45.2599 3.45852L39.0879 18.5632ZM48.8998 6.91558C48.9525 6.80921 49.058 6.54328 49.1108 6.54328C49.1635 6.54328 49.2691 6.80921 49.3218 6.91558L50.8516 11.2236H47.37L48.8998 6.91558Z" fill="#E74214"/>
<path fill-rule="evenodd" clip-rule="evenodd" d="M17.3095 1.38428L12.334 6.4954L19.7035 15.2032L30.6873 15.1559L17.3095 1.38428Z" fill="#E74214"/>
<path fill-rule="evenodd" clip-rule="evenodd" d="M15.853 15.9126L17.2611 14.4928L11.4406 7.39404L0.597656 18.5628H34.2063L31.6246 15.9599L15.853 15.9126Z" fill="#E74214"/>
</g>
<defs>
<clipPath id="clip0_1_468">
<rect width="139.68" height="18.24" fill="white" transform="translate(0.160156 0.879883)"/>
</clipPath>
</defs>
</svg>
