<svg width="128" height="35" viewBox="0 0 128 35" fill="none" xmlns="http://www.w3.org/2000/svg">
<g clip-path="url(#clip0_1_487)">
<path fill-rule="evenodd" clip-rule="evenodd" d="M31.641 34.5683H31.9555V0.838867H31.641V34.5683ZM8.09847 0.990234L6.32482 4.06L8.63938 8.35653L0.587891 22.3298L2.359 25.3248H5.9063L8.39334 21.1986L24.4424 21.2151L26.2947 17.9579L24.5648 14.9989H19.8856L11.6432 0.990234H8.09847ZM8.48528 4.0638L9.22975 2.80853H10.5842L17.6776 14.9951L14.8462 14.9977L8.48592 4.0638H8.48528ZM2.76421 22.3152L9.74783 10.1755L11.1011 12.5321L4.83146 23.3735L3.41799 23.3843L2.76421 22.3152ZM10.881 16.9034H23.5134L24.2262 18.0066L23.5553 19.3081H9.45169L10.881 16.9034ZM45.723 9.16277C46.659 9.16277 47.5353 9.3363 48.3496 9.68083C49.1644 10.0285 49.9368 10.5498 50.6641 11.2521L54.6001 11.325L54.6192 12.8399V22.065H55.4904V25.3406H50.6647V23.6547C50.0015 24.3349 49.2494 24.8523 48.4073 25.2095C47.5658 25.5642 46.6698 25.7428 45.723 25.7428C43.3863 25.7428 41.468 24.9638 39.9715 23.4052C38.4743 21.8453 37.7248 19.8617 37.7248 17.4531C37.7248 15.1091 38.4845 13.1426 40.0057 11.5504C41.5257 9.95887 43.43 9.16277 45.723 9.16277ZM91.2595 9.23053C93.7897 9.23053 95.8208 10.0507 97.3573 11.6917C98.8906 13.3333 99.6591 15.5233 99.6591 18.2625V18.6558H86.5854C86.7186 19.861 87.2005 20.787 88.0306 21.4323C88.8613 22.079 89.9786 22.4007 91.3851 22.4007C92.2608 22.4007 93.0465 22.255 93.744 21.9624C94.4422 21.6705 94.9787 21.2594 95.3566 20.7293H99.2292C98.7644 22.3241 97.843 23.5584 96.4625 24.4312C95.0814 25.3064 93.3585 25.7434 91.2925 25.7434C88.6761 25.7434 86.5657 24.9834 84.9652 23.4647C83.364 21.946 82.5638 19.9535 82.5638 17.4873C82.5638 15.0749 83.378 13.0977 85.0064 11.5498C86.6361 10.0045 88.7199 9.23053 91.2602 9.23053H91.2595ZM118.256 9.16277C119.205 9.16277 120.051 9.28943 120.798 9.5415C121.072 9.63397 121.539 9.82397 122.021 10.0266L122.284 10.1381C122.853 10.3807 123.398 10.6207 123.622 10.7195L123.702 10.755L123.73 10.7676H125.662V14.5113H122.465C122.189 13.6867 121.73 13.0584 121.091 12.6233C120.452 12.1882 119.666 11.971 118.742 11.971C117.992 11.971 117.393 12.1255 116.945 12.4327C116.5 12.7417 116.277 13.1369 116.277 13.6189C116.277 14.5322 117.29 15.175 119.321 15.548C119.419 15.5588 119.496 15.5702 119.553 15.581L121.357 15.8976C123.237 16.2396 124.627 16.8096 125.524 17.6064C126.42 18.4018 126.869 19.462 126.869 20.787C126.869 22.2246 126.313 23.4083 125.205 24.3419C124.095 25.276 122.645 25.7434 120.855 25.7434C119.951 25.7434 119.075 25.6136 118.231 25.3539C117.386 25.0962 116.545 24.7016 115.705 24.1715L115.673 25.3413H112.724V19.8598H115.804C116.2 20.8193 116.807 21.5489 117.622 22.0511C118.437 22.5514 119.436 22.8022 120.615 22.8022C121.321 22.8022 121.89 22.6312 122.327 22.2905C122.761 21.9498 122.98 21.5052 122.98 20.9561C122.98 20.4937 122.814 20.1397 122.483 19.8921C122.153 19.6463 121.401 19.4126 120.23 19.1916L117.633 18.7597C115.896 18.4512 114.61 17.9078 113.775 17.1301C112.939 16.353 112.523 15.3137 112.523 14.0116C112.523 12.5448 113.044 11.3693 114.086 10.4877C115.131 9.60547 116.521 9.16277 118.256 9.16277ZM61.7112 0.940201V11.7018C62.6415 10.8227 63.5597 10.1818 64.4633 9.7733C65.3663 9.36797 66.3238 9.1634 67.3308 9.1634C68.9941 9.1634 70.2269 9.6099 71.0309 10.5016C71.8344 11.3965 72.237 12.7785 72.237 14.6531V22.0663H73.1083V25.3413H68.282V15.5335C68.282 14.681 68.0645 14.0185 67.632 13.548C67.2008 13.0774 66.5908 12.8399 65.8032 12.8399C65.1044 12.8399 64.4164 13.0375 63.7404 13.4302C63.0644 13.8241 62.3891 14.4264 61.7112 15.2345V22.0663H62.5825V25.3413H57.7562V4.2158H56.8842V0.940201H61.7112ZM80.1915 0.940201V22.0663H81.13V25.3413H75.2327V22.0663H76.3043V4.2158H75.2656V0.940201H80.1915ZM110.731 9.10387C110.803 9.10387 110.917 9.10767 111.078 9.1197C111.209 9.1292 111.32 9.13427 111.391 9.13427H111.739V12.3624H110.607C109.171 12.3624 108.042 12.7392 107.255 13.4834C106.46 14.2326 106.075 15.263 106.075 16.6355V22.3564H107.086V25.3115H101.575V22.3564H102.588V12.4922H101.575V9.5377H106.075V11.1248C106.523 10.5738 107.03 10.1368 107.591 9.8208C108.439 9.34517 109.496 9.10323 110.73 9.10323L110.731 9.10387ZM46.2639 12.7056C44.9335 12.7056 43.8479 13.149 43.0083 14.0344C42.1681 14.9191 41.7477 16.0642 41.7477 17.4696C41.7477 18.8635 42.1681 20.0004 43.0083 20.8794C43.8485 21.7598 44.9335 22.1999 46.2639 22.1999C47.5601 22.1999 48.6394 21.7541 49.5024 20.8636C50.3648 19.9738 50.7985 18.842 50.7985 17.4689C50.7985 16.0971 50.3623 14.9616 49.4948 14.0584C48.626 13.1566 47.5493 12.7056 46.2639 12.7056ZM91.2519 12.572C90.056 12.572 89.0477 12.8665 88.2221 13.4536C87.3977 14.042 86.8524 14.8621 86.5854 15.9147H95.7701C95.4498 14.8184 94.9038 13.9869 94.134 13.42C93.3648 12.8557 92.4035 12.5714 91.2519 12.5714V12.572ZM43.0996 30.9463C44.1776 30.9463 44.9538 31.7462 44.9538 32.7855C44.9538 33.8349 44.1776 34.6196 43.0996 34.6196C42.0165 34.6196 41.2353 33.8298 41.2353 32.7855C41.2353 31.7563 42.0165 30.9463 43.0996 30.9463ZM102.893 30.9463C103.971 30.9463 104.747 31.7462 104.747 32.7855C104.747 33.8349 103.971 34.6196 102.893 34.6196C101.81 34.6196 101.029 33.8298 101.029 32.7855C101.029 31.7563 101.81 30.9463 102.893 30.9463ZM39.1807 30.9463C39.7166 30.9463 40.0387 31.0793 40.274 31.2724L40.0901 31.5524C39.8396 31.3636 39.6094 31.2724 39.1909 31.2724C38.721 31.2724 38.4046 31.5017 38.4046 31.8735C38.4046 32.2452 38.6899 32.4036 39.2112 32.5258C39.9924 32.7088 40.3608 33.009 40.3608 33.5955C40.3608 34.2573 39.8193 34.619 39.17 34.619C38.6696 34.619 38.2251 34.4923 37.9036 34.258L38.0977 33.947C38.3634 34.1503 38.7464 34.2884 39.1554 34.2884C39.6557 34.2884 39.9975 34.0433 39.9975 33.631C39.9975 33.2339 39.7527 33.0147 39.1243 32.8773C38.4141 32.719 38.0412 32.439 38.0412 31.8836C38.0412 31.344 38.5263 30.9463 39.1807 30.9463ZM124.98 30.9463C125.517 30.9463 125.838 31.0793 126.073 31.2724L125.889 31.5524C125.639 31.3636 125.409 31.2724 124.99 31.2724C124.521 31.2724 124.204 31.5017 124.204 31.8735C124.204 32.2452 124.49 32.4036 125.011 32.5258C125.792 32.7088 126.16 33.009 126.16 33.5955C126.16 34.2573 125.618 34.619 124.97 34.619C124.469 34.619 124.025 34.4923 123.703 34.258L123.897 33.947C124.162 34.1503 124.546 34.2884 124.954 34.2884C125.455 34.2884 125.798 34.0433 125.798 33.631C125.798 33.2339 125.552 33.0147 124.924 32.8773C124.214 32.719 123.841 32.439 123.841 31.8836C123.841 31.344 124.326 30.9463 124.98 30.9463ZM121.832 30.9463C122.491 30.9463 122.864 31.1806 122.996 31.2724L122.818 31.5625C122.72 31.4808 122.409 31.2775 121.878 31.2775C120.943 31.2775 120.315 31.8836 120.315 32.7804C120.315 33.6671 120.923 34.2877 121.878 34.2877C122.409 34.2877 122.705 34.1041 122.828 34.023L122.996 34.3086C122.864 34.4005 122.491 34.619 121.832 34.619C120.703 34.619 119.947 33.845 119.947 32.7905C119.947 31.7202 120.724 30.9463 121.832 30.9463ZM68.5845 30.9463C69.121 30.9463 69.4425 31.0793 69.6777 31.2724L69.4938 31.5524C69.2433 31.3636 69.0132 31.2724 68.5946 31.2724C68.1254 31.2724 67.8083 31.5017 67.8083 31.8735C67.8083 32.2452 68.0937 32.4036 68.6149 32.5258C69.3968 32.7088 69.7646 33.009 69.7646 33.5955C69.7646 34.2573 69.223 34.619 68.5743 34.619C68.0734 34.619 67.6295 34.4923 67.3074 34.258L67.5014 33.947C67.7671 34.1503 68.1501 34.2884 68.5591 34.2884C69.0601 34.2884 69.4019 34.0433 69.4019 33.631C69.4019 33.2339 69.1565 33.0147 68.528 32.8773C67.8178 32.719 67.445 32.439 67.445 31.8836C67.445 31.344 67.9307 30.9463 68.5845 30.9463ZM107.544 30.9463C108.203 30.9463 108.576 31.1806 108.709 31.2724L108.54 31.5625C108.437 31.4764 108.116 31.2775 107.579 31.2775C106.716 31.2775 106.011 31.9089 106.011 32.7905C106.011 33.6715 106.716 34.2877 107.549 34.2877C107.978 34.2877 108.31 34.1813 108.519 34.0787V32.9432H108.887V34.2573C108.657 34.3903 108.238 34.6196 107.533 34.6196C106.466 34.6196 105.643 33.845 105.643 32.7905C105.643 31.736 106.466 30.9463 107.544 30.9463ZM49.5645 30.9919V33.1471C49.5645 33.8197 49.9888 34.2725 50.6933 34.2725C51.3832 34.2725 51.7922 33.8197 51.7922 33.1471V30.9919H52.1492V33.1218C52.1492 34.0844 51.5671 34.619 50.6838 34.619C49.7789 34.619 49.1872 34.0794 49.1872 33.1218V30.9919H49.5645ZM60.2293 30.9463C61.3073 30.9463 62.0834 31.7462 62.0834 32.7855C62.0834 33.8349 61.3073 34.6196 60.2293 34.6196C59.1462 34.6196 58.3649 33.8298 58.3649 32.7855C58.3649 31.7563 59.1462 30.9463 60.2293 30.9463ZM84.8701 30.9463C85.9481 30.9463 86.7243 31.7462 86.7243 32.7855C86.7243 33.8349 85.9481 34.6196 84.8701 34.6196C83.787 34.6196 83.0058 33.8298 83.0058 32.7855C83.0058 31.7563 83.787 30.9463 84.8701 30.9463ZM112.782 30.9463C113.318 30.9463 113.64 31.0793 113.875 31.2724L113.691 31.5524C113.441 31.3636 113.211 31.2724 112.792 31.2724C112.323 31.2724 112.006 31.5017 112.006 31.8735C112.006 32.2452 112.291 32.4036 112.813 32.5258C113.594 32.7088 113.962 33.009 113.962 33.5955C113.962 34.2573 113.42 34.619 112.772 34.619C112.271 34.619 111.827 34.4923 111.505 34.258L111.699 33.947C111.964 34.1503 112.348 34.2884 112.756 34.2884C113.257 34.2884 113.599 34.0433 113.599 33.631C113.599 33.2339 113.354 33.0147 112.726 32.8773C112.016 32.719 111.643 32.439 111.643 31.8836C111.643 31.344 112.128 30.9463 112.782 30.9463ZM88.1105 30.9564L90.517 33.9058V30.9925H90.8797V34.6088H90.6546L88.243 31.6702V34.5734H87.8809V30.957H88.1105V30.9564ZM63.4646 30.9564L65.8704 33.9058V30.9925H66.2332V34.6088H66.0087L63.5971 31.6702V34.5734H63.2344V30.957H63.4646V30.9564ZM73.7253 30.9919C74.6296 30.9919 75.0075 31.3845 75.0075 31.9501C75.0075 32.3067 74.7824 32.5974 74.4812 32.7399C74.8693 32.8665 75.1153 33.1876 75.1153 33.5543C75.1153 34.1915 74.6651 34.574 73.8534 34.574H72.5598V30.9919H73.7253ZM79.8123 30.9919L80.9157 32.8057L82.0292 30.9919H82.4477L81.0844 33.1623V34.5734H80.7216V33.1522L79.3729 30.9925H79.8123V30.9919ZM46.4681 30.9919V34.2472H48.4244V34.5734H46.1054V30.9919H46.4681ZM57.2096 30.9919V34.5734H56.8468V30.9919H57.2096ZM78.6252 30.9919V31.318H76.6689V32.5917H78.3798V32.9178H76.6689V34.2478H78.6252V34.5734H76.3062V30.9919H78.6252ZM98.5659 30.9919V34.2472H100.522V34.5734H98.2032V30.9919H98.5659ZM55.8956 30.9919V31.318H54.6692V34.5734H54.3015V31.318H53.0503V30.9919H55.8956ZM110.427 30.9919V34.5734H110.064V30.9919H110.427ZM117.467 30.9919V31.318H116.242V34.5734H115.874V31.318H114.622V30.9919H117.467ZM118.786 30.9919V34.5734H118.424V30.9919H118.786ZM93.5062 30.9919C94.6299 30.9919 95.3813 31.7056 95.3813 32.7804C95.3813 33.8552 94.6299 34.5727 93.5062 34.5727H92.2906V30.9919H93.5062ZM43.0996 31.2769C42.2467 31.2769 41.6031 31.94 41.6031 32.7855C41.6031 33.6563 42.2467 34.2884 43.0996 34.2884C43.943 34.2884 44.586 33.6614 44.586 32.7855C44.586 31.9343 43.943 31.2775 43.0996 31.2775V31.2769ZM60.2293 31.2769C59.3764 31.2769 58.7327 31.94 58.7327 32.7855C58.7327 33.6563 59.3764 34.2884 60.2293 34.2884C61.072 34.2884 61.7156 33.6614 61.7156 32.7855C61.7156 31.9343 61.072 31.2775 60.2293 31.2775V31.2769ZM84.8701 31.2769C84.0172 31.2769 83.3736 31.94 83.3736 32.7855C83.3736 33.6563 84.0172 34.2884 84.8701 34.2884C85.7135 34.2884 86.3565 33.6614 86.3565 32.7855C86.3565 31.9343 85.7135 31.2775 84.8701 31.2775V31.2769ZM102.893 31.2769C102.04 31.2769 101.397 31.94 101.397 32.7855C101.397 33.6563 102.04 34.2884 102.893 34.2884C103.737 34.2884 104.38 33.6614 104.38 32.7855C104.38 31.9343 103.736 31.2775 102.893 31.2775V31.2769ZM93.5215 31.318H92.6533V34.2472H93.5221C94.4206 34.2472 95.0085 33.6614 95.0085 32.7855C95.0085 31.9089 94.4206 31.318 93.5215 31.318ZM73.8782 32.9178H72.9232V34.2472H73.8376C74.3943 34.2472 74.7418 33.9825 74.7418 33.5341C74.7418 33.2187 74.4863 32.9178 73.8782 32.9178ZM73.7146 31.318H72.9232V32.5917H73.8782C74.343 32.5917 74.6296 32.3573 74.6296 31.9906C74.6296 31.5828 74.3487 31.318 73.7146 31.318Z" fill="#E74214"/>
</g>
<defs>
<clipPath id="clip0_1_487">
<rect width="126.825" height="34.2" fill="white" transform="translate(0.587891 0.525391)"/>
</clipPath>
</defs>
</svg>
