<svg width="60" height="62" viewBox="0 0 60 62" fill="none" xmlns="http://www.w3.org/2000/svg">
<path d="M53.6303 50.9889C47.31 60.0672 32.802 63.9743 21.1381 59.9236C8.41128 55.4993 -0.0924264 43.2322 0.424691 30.017C0.941808 16.3708 10.2499 4.59203 23.1204 1.28822C36.3069 -2.10177 49.005 3.41415 55.4402 12.4637C42.3399 1.28823 28.78 -0.17694 15.6222 12.2626C7.08976 20.3354 5.65332 33.1197 11.1118 43.4907C15.2774 51.3911 21.8851 56.1888 30.6186 57.7115C39.2372 59.1766 46.9365 56.6772 53.6303 50.9889Z" fill="#E74214"/>
<path d="M21.1685 50.6442C32.8036 55.3557 44.6398 49.3514 48.9492 39.4113C54.58 26.5121 46.2774 11.688 32.3439 9.73448C28.5518 9.18863 24.9319 9.82066 21.3696 10.9985C21.2834 10.9124 21.2259 10.8262 21.1397 10.7687C35.4754 0.512547 56.1888 8.9588 59.2628 26.3397C61.6473 39.9284 53.2297 52.4254 39.6985 55.0397C32.9472 56.3612 26.6269 54.9822 20.9961 50.9027C21.0536 50.8166 21.111 50.7304 21.1685 50.6442Z" fill="#E74214"/>
<path d="M33.7519 27.0581C33.7519 28.9255 33.7519 30.7929 33.7519 32.6602C33.7519 33.0912 33.8094 33.6083 33.1486 33.5795C32.5741 33.5508 32.5166 33.1199 32.5166 32.6602C32.5166 29.8735 32.5166 27.1156 32.5166 24.3289C32.5166 24.0703 32.4304 23.6107 32.7464 23.6107C33.6945 23.5532 34.6712 23.6394 35.6193 23.5532C36.9408 23.4383 37.1419 24.4151 37.5154 25.3057C37.9751 26.3686 38.4347 27.4029 39.0093 28.7531C39.6126 27.2592 40.1584 26.0239 40.6181 24.7311C40.9341 23.8692 41.3363 23.4958 42.3418 23.5245C45.2722 23.6394 45.2722 23.5532 45.2722 26.5697C45.2722 28.5233 45.2434 30.4768 45.3009 32.4591C45.3296 33.321 45.0423 33.6083 44.1517 33.637C41.365 33.6945 41.365 33.7232 41.365 30.994C41.365 29.7012 41.365 28.4084 41.365 27.1156C41.2789 27.0868 41.2214 27.0581 41.1352 27.0294C40.6468 28.3509 40.1584 29.7012 39.67 31.0227C39.4689 31.5685 39.3253 32.1144 39.0667 32.6315C38.7507 33.2061 38.406 33.6945 37.5729 33.6657C36.7685 33.637 36.395 33.2923 36.1364 32.574C35.4757 30.7067 34.7287 28.8968 34.0105 27.0294C33.9243 27.0007 33.8381 27.0294 33.7519 27.0581Z" fill="#E74214"/>
<path d="M30.5906 28.4661C30.5906 29.8451 30.5619 31.2528 30.5906 32.6318C30.6194 33.3788 30.3033 33.6086 29.5851 33.6373C26.4824 33.781 26.4824 33.8097 26.4824 30.6783C26.4824 28.5811 26.5112 26.4839 26.4824 24.3579C26.4824 23.5823 26.6835 23.2662 27.5167 23.2375C30.5906 23.1513 30.5906 23.0939 30.5906 26.1391C30.5906 26.9148 30.5906 27.6905 30.5906 28.4661Z" fill="#E74214"/>
<path d="M21.3688 10.9989C21.1677 11.2574 20.7655 11.3724 20.6506 11.1713C20.4782 10.7978 21.024 10.9701 21.1389 10.769C21.2251 10.8552 21.2826 10.9414 21.3688 10.9989Z" fill="#E74214"/>
<path d="M20.9942 50.903C20.8219 50.8455 20.6782 50.7593 20.5059 50.7019C20.707 50.5008 20.9368 50.5583 21.1379 50.6444C21.1092 50.7306 21.0517 50.8168 20.9942 50.903Z" fill="#E74214"/>
<path d="M22.2012 27.7479C23.6951 28.2938 24.8155 29.0407 24.7868 30.7357C24.758 32.4882 23.8387 33.5512 22.0863 33.5799C19.5869 33.6373 17.1162 33.5799 14.6168 33.6086C13.8411 33.6086 13.4964 33.3788 13.5251 32.5456C13.5538 29.8164 13.5825 27.0872 13.5251 24.358C13.4964 23.4386 13.8698 23.2375 14.703 23.2663C17.0587 23.3237 19.3858 23.3237 21.7415 23.2663C22.9194 23.2375 23.8962 23.4961 24.1547 24.7602C24.4133 26.0242 23.9823 27.0297 22.6896 27.5181C22.5459 27.5468 22.431 27.633 22.2012 27.7479ZM17.5184 30.6208C17.8057 31.3965 16.8289 32.9191 18.8686 32.7755C20.1902 32.6893 20.9658 31.9136 20.9658 30.4772C20.9946 28.9258 20.5062 28.5524 18.9548 28.4087C16.9725 28.2076 17.6333 29.5866 17.5184 30.6208ZM17.5471 25.8231C17.4897 26.6275 17.346 27.4607 18.7537 27.3457C19.9029 27.2596 20.5924 26.9435 20.5924 25.7082C20.5924 24.5016 19.8741 24.1569 18.725 24.0994C17.2886 24.0419 17.5184 24.9325 17.5471 25.8231Z" fill="#E74214"/>
<path d="M15.3183 35.7588H16.1129L18.0102 40.1201H16.926L16.5503 39.1961H14.8563L14.4928 40.1201H13.4333L15.3183 35.7588ZM15.6879 37.0278L15.1581 38.383H16.2238L15.6879 37.0278ZM21.3009 36.8923C21.2065 36.7773 21.0894 36.689 20.9498 36.6274C20.8143 36.5658 20.6562 36.535 20.4755 36.535C20.2948 36.535 20.1264 36.5699 19.9704 36.6397C19.8184 36.7095 19.6849 36.8081 19.57 36.9354C19.4591 37.0586 19.3708 37.2064 19.3051 37.3789C19.2435 37.5514 19.2127 37.7383 19.2127 37.9395C19.2127 38.1448 19.2435 38.3337 19.3051 38.5062C19.3708 38.6746 19.4591 38.8224 19.57 38.9497C19.6808 39.0729 19.8102 39.1694 19.958 39.2392C20.11 39.3091 20.2722 39.344 20.4447 39.344C20.6418 39.344 20.8163 39.3029 20.9683 39.2208C21.1202 39.1386 21.2455 39.0236 21.344 38.8758L22.1448 39.4733C21.96 39.732 21.726 39.923 21.4426 40.0462C21.1592 40.1694 20.8677 40.231 20.5679 40.231C20.227 40.231 19.9129 40.1776 19.6254 40.0708C19.3379 39.9641 19.0895 39.8121 18.88 39.615C18.6706 39.4138 18.5063 39.1715 18.3872 38.8881C18.2722 38.6048 18.2148 38.2885 18.2148 37.9395C18.2148 37.5904 18.2722 37.2742 18.3872 36.9908C18.5063 36.7075 18.6706 36.4672 18.88 36.2701C19.0895 36.0689 19.3379 35.9149 19.6254 35.8081C19.9129 35.7013 20.227 35.648 20.5679 35.648C20.6911 35.648 20.8184 35.6603 20.9498 35.6849C21.0853 35.7055 21.2167 35.7404 21.344 35.7896C21.4754 35.8389 21.6007 35.9046 21.7198 35.9868C21.8389 36.0689 21.9457 36.1695 22.0401 36.2886L21.3009 36.8923ZM24.1011 35.7588H24.8957L26.793 40.1201H25.7088L25.3331 39.1961H23.6391L23.2756 40.1201H22.2161L24.1011 35.7588ZM24.4707 37.0278L23.9409 38.383H25.0066L24.4707 37.0278ZM27.2316 35.7588H28.6731C29.0222 35.7588 29.3527 35.7979 29.6648 35.8759C29.9811 35.9539 30.2562 36.0812 30.4903 36.2578C30.7244 36.4303 30.9092 36.6561 31.0447 36.9354C31.1843 37.2147 31.2541 37.5535 31.2541 37.9518C31.2541 38.305 31.1864 38.6171 31.0508 38.8881C30.9194 39.1551 30.7408 39.3809 30.5149 39.5657C30.2891 39.7464 30.0283 39.884 29.7326 39.9784C29.4369 40.0729 29.1269 40.1201 28.8024 40.1201H27.2316V35.7588ZM28.1926 39.2331H28.6916C28.9133 39.2331 29.1187 39.2105 29.3076 39.1653C29.5006 39.1201 29.6669 39.0462 29.8065 38.9436C29.9462 38.8368 30.055 38.6992 30.133 38.5308C30.2151 38.3584 30.2562 38.1489 30.2562 37.9025C30.2562 37.689 30.2151 37.5042 30.133 37.3481C30.055 37.188 29.9482 37.0565 29.8127 36.9539C29.6772 36.8512 29.517 36.7752 29.3322 36.726C29.1515 36.6726 28.9606 36.6459 28.7593 36.6459H28.1926V39.2331ZM31.9427 35.7588H34.9057V36.6459H32.9037V37.459H34.7948V38.346H32.9037V39.2331H35.0166V40.1201H31.9427V35.7588ZM35.7859 35.7588H37.2396L38.2437 38.6048H38.256L39.2663 35.7588H40.7139V40.1201H39.7529V36.7752H39.7406L38.5948 40.1201H37.8618L36.7591 36.7752H36.7468V40.1201H35.7859V35.7588ZM42.6748 38.2598L41.0363 35.7588H42.2313L43.1553 37.3912L44.1347 35.7588H45.2743L43.6358 38.2598V40.1201H42.6748V38.2598Z" fill="#E74214"/>
</svg>
