<svg width="169" height="42" viewBox="0 0 169 42" fill="none" xmlns="http://www.w3.org/2000/svg">
<path d="M27.603 14.9409C29.3307 11.4874 31.0904 8.0339 32.7861 4.54841C33.106 3.94085 33.4259 3.68503 34.1298 3.71701C36.4974 3.78096 38.865 3.74899 41.2325 3.71701C41.8724 3.71701 42.0964 3.84492 42.0964 4.51643C42.0644 7.906 42.0644 11.2956 42.0964 14.6531C42.0964 15.3566 41.8724 15.5485 41.2005 15.5485C36.9453 15.5165 32.7221 15.5485 28.4668 15.5165C27.539 15.5165 27.379 15.7723 27.379 16.6357C27.411 23.7666 27.379 30.8655 27.411 37.9963C27.411 38.8277 27.1871 39.1155 26.3552 39.0516C25.3314 38.9876 24.3076 38.9557 23.2838 39.0516C22.3559 39.1155 22.1959 38.7638 22.1959 37.9004C22.2279 28.691 22.2279 19.5136 22.2279 10.3043C22.2279 8.89728 22.2279 8.89728 20.7882 8.89728C15.5731 8.89728 10.3901 8.89728 5.17499 8.89728C4.31114 8.89728 4.08718 8.76937 4.5671 7.93797C5.20698 6.7868 5.81487 5.57167 6.35878 4.35655C6.58274 3.87689 6.87068 3.71701 7.41459 3.71701C13.7814 3.74899 20.1483 3.74899 26.5152 3.71701C27.315 3.71701 27.411 4.0048 27.411 4.7083C27.379 8.12983 27.411 11.5194 27.411 14.9409C27.475 14.9409 27.539 14.9409 27.603 14.9409Z" fill="#E74214"/>
<path d="M0.759766 15.5485C1.62361 13.8217 2.42347 12.2549 3.19133 10.688C3.3833 10.2723 3.70324 10.2723 4.05518 10.2723C9.36623 10.2723 14.6773 10.2723 19.9883 10.2723C20.6602 10.2723 20.7882 10.4961 20.7882 11.1357C20.7562 20.1532 20.7562 29.1707 20.7882 38.1882C20.7882 38.9237 20.5002 39.0836 19.8603 39.0516C18.7725 39.0196 17.6527 38.9876 16.5649 39.0516C15.7331 39.1155 15.5091 38.8277 15.5091 37.9963C15.5411 30.9614 15.5091 23.8945 15.5411 16.8596C15.5411 15.8363 15.3492 15.4845 14.2294 15.5165C9.84614 15.5805 5.43093 15.5485 0.759766 15.5485Z" fill="#E74214"/>
<path d="M51.7464 15.1201V3.51252H60.9317V15.1201H58.4769V5.56092H54.2012V15.1201H51.7464ZM67.1601 6.08115C68.3848 6.08115 69.3548 6.43339 70.0701 7.13786C70.7854 7.8315 71.1431 8.82319 71.1431 10.1129V11.2834H65.4206C65.4422 11.9662 65.6427 12.5027 66.0221 12.8929C66.4122 13.2831 66.9487 13.4781 67.6315 13.4781C68.2059 13.4781 68.7262 13.424 69.1922 13.3156C69.6583 13.1964 70.1405 13.0175 70.6391 12.7791V14.6487C70.2056 14.8654 69.745 15.0226 69.2572 15.1201C68.7804 15.2285 68.2005 15.2827 67.5177 15.2827C66.629 15.2827 65.8432 15.1201 65.1604 14.795C64.4776 14.459 63.9412 13.955 63.551 13.2831C63.1608 12.6111 62.9657 11.7657 62.9657 10.7469C62.9657 9.70649 63.1391 8.84486 63.486 8.16206C63.8436 7.46843 64.3368 6.9482 64.9654 6.60138C65.594 6.25456 66.3255 6.08115 67.1601 6.08115ZM67.1763 7.80441C66.7103 7.80441 66.3201 7.95614 66.0058 8.25961C65.7024 8.56307 65.5235 9.03453 65.4693 9.67398H68.8671C68.8562 9.13207 68.7153 8.68771 68.4444 8.34089C68.1734 7.98324 67.7507 7.80441 67.1763 7.80441ZM77.8869 6.08115C78.884 6.08115 79.6914 6.47132 80.3092 7.25166C80.9269 8.02117 81.2358 9.15917 81.2358 10.6657C81.2358 12.1722 80.9161 13.321 80.2767 14.1122C79.6372 14.8925 78.8189 15.2827 77.8218 15.2827C77.1824 15.2827 76.673 15.1689 76.2937 14.9413C75.9143 14.7029 75.6054 14.4373 75.367 14.1447H75.2369C75.3237 14.5999 75.367 15.0334 75.367 15.4453V19.0218H72.9447V6.24372H74.9118L75.2532 7.39798H75.367C75.6054 7.04032 75.9252 6.73144 76.3262 6.47132C76.7272 6.21121 77.2474 6.08115 77.8869 6.08115ZM77.1065 8.01575C76.4779 8.01575 76.0335 8.21084 75.7734 8.60101C75.5242 8.99118 75.3887 9.58727 75.367 10.3893V10.6494C75.367 11.5056 75.4916 12.1667 75.7409 12.6328C76.001 13.088 76.4671 13.3156 77.139 13.3156C77.6918 13.3156 78.0982 13.088 78.3583 12.6328C78.6293 12.1667 78.7647 11.5002 78.7647 10.6331C78.7647 8.88822 78.212 8.01575 77.1065 8.01575ZM90.9383 8.56849C90.9383 9.04537 90.7866 9.4518 90.4831 9.78778C90.1905 10.1238 89.7515 10.3405 89.1663 10.4381V10.5031C89.784 10.579 90.2772 10.7903 90.6457 11.1371C91.025 11.4839 91.2147 11.9283 91.2147 12.4702C91.2147 12.9796 91.0792 13.4348 90.8082 13.8358C90.5481 14.2368 90.1309 14.5511 89.5564 14.7787C88.982 15.0063 88.2288 15.1201 87.2967 15.1201H83.0698V6.24372H87.2967C87.9903 6.24372 88.6081 6.31959 89.15 6.47132C89.7027 6.61222 90.1363 6.85065 90.4506 7.18664C90.7757 7.52262 90.9383 7.98324 90.9383 8.56849ZM88.4835 8.76358C88.4835 8.22167 88.0554 7.95072 87.1991 7.95072H85.4922V9.70649H86.9228C87.4322 9.70649 87.8169 9.63604 88.077 9.49515C88.348 9.34342 88.4835 9.09956 88.4835 8.76358ZM88.7111 12.3401C88.7111 11.9933 88.5756 11.7441 88.3046 11.5923C88.0337 11.4297 87.6273 11.3485 87.0853 11.3485H85.4922V13.4456H87.1341C87.5893 13.4456 87.9632 13.3643 88.2559 13.2018C88.5593 13.0284 88.7111 12.7412 88.7111 12.3401ZM93.1315 15.1201V6.24372H95.5538V9.67398H96.7243C98.0791 9.67398 99.0816 9.89074 99.7319 10.3243C100.382 10.7578 100.707 11.4135 100.707 12.2914C100.707 13.1476 100.404 13.8358 99.7969 14.356C99.19 14.8654 98.1929 15.1201 96.8056 15.1201H93.1315ZM101.992 15.1201V6.24372H104.414V15.1201H101.992ZM96.6755 13.4456C97.1524 13.4456 97.5372 13.3589 97.8298 13.1855C98.1333 13.0121 98.285 12.7249 98.285 12.3239C98.285 11.6736 97.7377 11.3485 96.643 11.3485H95.5538V13.4456H96.6755ZM115.284 2.4233C115.229 2.98688 115.072 3.48543 114.812 3.91895C114.552 4.34164 114.146 4.6722 113.593 4.91064C113.04 5.14908 112.298 5.26829 111.366 5.26829C110.412 5.26829 109.664 5.15449 109.122 4.92689C108.591 4.68846 108.212 4.35789 107.984 3.93521C107.757 3.51252 107.621 3.00855 107.578 2.4233H109.74C109.794 3.01939 109.946 3.41498 110.195 3.61007C110.444 3.80515 110.851 3.90269 111.414 3.90269C111.88 3.90269 112.26 3.79973 112.552 3.59381C112.856 3.37705 113.035 2.98688 113.089 2.4233H115.284ZM109.122 9.75526C109.122 9.93951 109.111 10.1671 109.09 10.4381C109.079 10.709 109.063 10.9854 109.041 11.2672C109.03 11.549 109.014 11.7982 108.992 12.015C108.97 12.2318 108.954 12.3835 108.943 12.4702L113.04 6.24372H115.95V15.1201H113.609V11.5761C113.609 11.2834 113.62 10.9637 113.642 10.6169C113.663 10.2592 113.685 9.92867 113.707 9.62521C113.739 9.3109 113.761 9.07246 113.772 8.90989L109.691 15.1201H106.781V6.24372H109.122V9.75526ZM127.442 15.1201H124.988V5.56092H121.834V3.51252H130.596V5.56092H127.442V15.1201ZM136.161 6.08115C137.158 6.08115 137.966 6.47132 138.583 7.25166C139.201 8.02117 139.51 9.15917 139.51 10.6657C139.51 12.1722 139.19 13.321 138.551 14.1122C137.911 14.8925 137.093 15.2827 136.096 15.2827C135.457 15.2827 134.947 15.1689 134.568 14.9413C134.189 14.7029 133.88 14.4373 133.641 14.1447H133.511C133.598 14.5999 133.641 15.0334 133.641 15.4453V19.0218H131.219V6.24372H133.186L133.527 7.39798H133.641C133.88 7.04032 134.199 6.73144 134.6 6.47132C135.001 6.21121 135.522 6.08115 136.161 6.08115ZM135.381 8.01575C134.752 8.01575 134.308 8.21084 134.048 8.60101C133.798 8.99118 133.663 9.58727 133.641 10.3893V10.6494C133.641 11.5056 133.766 12.1667 134.015 12.6328C134.275 13.088 134.741 13.3156 135.413 13.3156C135.966 13.3156 136.372 13.088 136.633 12.6328C136.903 12.1667 137.039 11.5002 137.039 10.6331C137.039 8.88822 136.486 8.01575 135.381 8.01575ZM145.002 6.08115C146.227 6.08115 147.197 6.43339 147.912 7.13786C148.627 7.8315 148.985 8.82319 148.985 10.1129V11.2834H143.262C143.284 11.9662 143.485 12.5027 143.864 12.8929C144.254 13.2831 144.791 13.4781 145.473 13.4781C146.048 13.4781 146.568 13.424 147.034 13.3156C147.5 13.1964 147.982 13.0175 148.481 12.7791V14.6487C148.047 14.8654 147.587 15.0226 147.099 15.1201C146.622 15.2285 146.042 15.2827 145.36 15.2827C144.471 15.2827 143.685 15.1201 143.002 14.795C142.319 14.459 141.783 13.955 141.393 13.2831C141.003 12.6111 140.808 11.7657 140.808 10.7469C140.808 9.70649 140.981 8.84486 141.328 8.16206C141.685 7.46843 142.179 6.9482 142.807 6.60138C143.436 6.25456 144.167 6.08115 145.002 6.08115ZM145.018 7.80441C144.552 7.80441 144.162 7.95614 143.848 8.25961C143.544 8.56307 143.365 9.03453 143.311 9.67398H146.709C146.698 9.13207 146.557 8.68771 146.286 8.34089C146.015 7.98324 145.593 7.80441 145.018 7.80441ZM154.396 15.2827C153.073 15.2827 152.049 14.9196 151.323 14.1935C150.608 13.4565 150.25 12.3022 150.25 10.7307C150.25 9.64688 150.434 8.76358 150.803 8.08078C151.171 7.39798 151.681 6.89401 152.331 6.56886C152.992 6.24372 153.751 6.08115 154.607 6.08115C155.214 6.08115 155.74 6.14076 156.184 6.25998C156.639 6.3792 157.035 6.52009 157.371 6.68266L156.655 8.55224C156.276 8.4005 155.918 8.27586 155.582 8.17832C155.257 8.08078 154.932 8.03201 154.607 8.03201C153.35 8.03201 152.721 8.92615 152.721 10.7144C152.721 11.6032 152.884 12.2589 153.209 12.6815C153.545 13.1042 154.011 13.3156 154.607 13.3156C155.116 13.3156 155.566 13.2505 155.956 13.1205C156.346 12.9796 156.726 12.7899 157.094 12.5515V14.6161C156.726 14.8546 156.336 15.0226 155.924 15.1201C155.523 15.2285 155.013 15.2827 154.396 15.2827ZM166.323 8.06452H163.413V15.1201H160.991V8.06452H158.081V6.24372H166.323V8.06452Z" fill="#E74214"/>
<path d="M55.225 25.0089V25.9364H52.9991V30.3066H51.8787V25.0089H55.225ZM57.7295 25.0089C58.4121 25.0089 58.9093 25.1573 59.2209 25.4541C59.5375 25.746 59.6958 26.1491 59.6958 26.6635C59.6958 26.9702 59.6315 27.2596 59.5028 27.5317C59.3742 27.7988 59.1591 28.0139 58.8573 28.1772C58.5605 28.3404 58.1549 28.422 57.6405 28.422H57.1582V30.3066H56.0378V25.0089H57.7295ZM57.6702 25.929H57.1582V27.502H57.5292C57.8458 27.502 58.0956 27.4401 58.2786 27.3165C58.4666 27.1879 58.5605 26.9826 58.5605 26.7006C58.5605 26.1862 58.2638 25.929 57.6702 25.929ZM63.3087 28.7559C63.1603 29.0923 63.002 29.3841 62.8338 29.6314C62.6706 29.8738 62.4603 30.0593 62.2031 30.1879C61.9459 30.3165 61.6095 30.3808 61.194 30.3808C61.0654 30.3808 60.9244 30.3709 60.7711 30.3512C60.6178 30.3314 60.4768 30.3042 60.3482 30.2695V29.305C60.4669 29.3544 60.598 29.3891 60.7414 29.4089C60.8849 29.4286 61.0184 29.4385 61.1421 29.4385C61.3894 29.4385 61.5675 29.3792 61.6763 29.2605C61.7851 29.1368 61.8717 28.9884 61.936 28.8153L60.1033 25.0089H61.2905L62.2773 27.3016C62.3119 27.3758 62.3589 27.4822 62.4183 27.6207C62.4776 27.7542 62.5222 27.868 62.5518 27.962H62.5889C62.6186 27.873 62.6607 27.7567 62.7151 27.6133C62.7744 27.4698 62.8264 27.3437 62.8709 27.2349L63.7909 25.0089H64.9484L63.3087 28.7559ZM65.6168 30.3066V25.0089H69.809V30.3066H68.6886V25.9438H66.7372V30.3066H65.6168ZM71.1454 30.3066V25.0089H75.3376V30.3066H74.2172V25.9438H72.2658V30.3066H71.1454ZM79.9164 30.3066L79.5306 29.0453H77.6015L77.2156 30.3066H76.0062L77.876 24.9867H79.2486L81.1258 30.3066H79.9164ZM78.8777 26.8713C78.8529 26.7872 78.8208 26.6809 78.7812 26.5523C78.7416 26.4236 78.7021 26.2926 78.6625 26.159C78.6229 26.0254 78.5908 25.9092 78.566 25.8103C78.5413 25.9092 78.5067 26.0329 78.4621 26.1813C78.4226 26.3247 78.383 26.4632 78.3434 26.5968C78.3088 26.7254 78.2816 26.8169 78.2618 26.8713L77.8834 28.103H79.2635L78.8777 26.8713ZM56.197 39.3066H54.9208L52.9991 36.6207V39.3066H51.8787V34.0089H52.9991V36.5762L54.8986 34.0089H56.0931L54.164 36.5539L56.197 39.3066ZM61.5269 36.6504C61.5269 37.1994 61.4354 37.6792 61.2524 38.0898C61.0743 38.4954 60.7998 38.812 60.4288 39.0395C60.0578 39.2671 59.583 39.3808 59.0042 39.3808C58.4304 39.3808 57.9556 39.2671 57.5796 39.0395C57.2086 38.812 56.9316 38.4929 56.7486 38.0824C56.5705 37.6718 56.4815 37.192 56.4815 36.643C56.4815 36.0939 56.5705 35.6166 56.7486 35.2109C56.9316 34.8053 57.2086 34.4912 57.5796 34.2686C57.9556 34.0411 58.4329 33.9273 59.0116 33.9273C59.5854 33.9273 60.0578 34.0411 60.4288 34.2686C60.7998 34.4912 61.0743 34.8078 61.2524 35.2184C61.4354 35.624 61.5269 36.1013 61.5269 36.6504ZM57.6612 36.6504C57.6612 37.2044 57.7676 37.6421 57.9803 37.9637C58.193 38.2802 58.5343 38.4385 59.0042 38.4385C59.484 38.4385 59.8278 38.2802 60.0356 37.9637C60.2433 37.6421 60.3472 37.2044 60.3472 36.6504C60.3472 36.0914 60.2433 35.6537 60.0356 35.3371C59.8278 35.0205 59.4865 34.8622 59.0116 34.8622C58.5368 34.8622 58.193 35.0205 57.9803 35.3371C57.7676 35.6537 57.6612 36.0914 57.6612 36.6504ZM64.8651 39.3066L63.5889 35.1516H63.5592C63.5641 35.2505 63.5716 35.3989 63.5814 35.5968C63.5913 35.7946 63.6012 36.0073 63.6111 36.2349C63.621 36.4575 63.626 36.6603 63.626 36.8433V39.3066H62.6243V34.0089H64.1528L65.4067 38.0601H65.429L66.7571 34.0089H68.2856V39.3066H67.2394V36.7988C67.2394 36.6306 67.2419 36.4377 67.2468 36.22C67.2567 36.0024 67.2641 35.7971 67.2691 35.6042C67.279 35.4063 67.2864 35.2579 67.2913 35.159H67.2616L65.8964 39.3066H64.8651ZM69.6238 39.3066V34.0089H73.8159V39.3066H72.6956V34.9438H70.7442V39.3066H69.6238ZM78.3948 39.3066L78.009 38.0453H76.0798L75.694 39.3066H74.4846L76.3544 33.9867H77.727L79.6042 39.3066H78.3948ZM77.356 35.8713C77.3313 35.7872 77.2991 35.6809 77.2596 35.5523C77.22 35.4236 77.1804 35.2926 77.1409 35.159C77.1013 35.0254 77.0691 34.9092 77.0444 34.8103C77.0197 34.9092 76.985 35.0329 76.9405 35.1813C76.9009 35.3247 76.8614 35.4632 76.8218 35.5968C76.7872 35.7254 76.76 35.8169 76.7402 35.8713L76.3618 37.103H77.7419L77.356 35.8713ZM84.6157 39.3066H83.4953V37.0214H81.3956V39.3066H80.2752V34.0089H81.3956V36.0865H83.4953V34.0089H84.6157V39.3066ZM85.9487 34.0089H86.9578V36.5688C86.9578 36.6924 86.9553 36.8309 86.9503 36.9843C86.9454 37.1376 86.9404 37.2885 86.9355 37.4369C86.9305 37.5803 86.9256 37.7064 86.9207 37.8153C86.9157 37.9191 86.9108 37.9909 86.9058 38.0304H86.9281L89.3766 34.0089H90.7196V39.3066H89.7179V36.7617C89.7179 36.6281 89.7204 36.4822 89.7253 36.3239C89.7303 36.1607 89.7352 36.0049 89.7402 35.8565C89.7501 35.7081 89.7575 35.5795 89.7624 35.4706C89.7723 35.3569 89.7797 35.2827 89.7847 35.248H89.755L87.2991 39.3066H85.9487V34.0089ZM96.3233 32.2653C96.2985 32.5225 96.2268 32.7501 96.1081 32.9479C95.9894 33.1408 95.8039 33.2917 95.5516 33.4005C95.2993 33.5093 94.9605 33.5638 94.5351 33.5638C94.0998 33.5638 93.7585 33.5118 93.5112 33.4079C93.2688 33.2991 93.0957 33.1483 92.9918 32.9553C92.8879 32.7624 92.8261 32.5324 92.8063 32.2653H93.7931C93.8179 32.5374 93.8871 32.7179 94.0009 32.8069C94.1147 32.896 94.3002 32.9405 94.5574 32.9405C94.7701 32.9405 94.9432 32.8935 95.0767 32.7995C95.2153 32.7006 95.2969 32.5225 95.3216 32.2653H96.3233ZM92.0569 34.0089H93.066V36.5688C93.066 36.6924 93.0635 36.8309 93.0586 36.9843C93.0536 37.1376 93.0487 37.2885 93.0437 37.4369C93.0388 37.5803 93.0338 37.7064 93.0289 37.8153C93.024 37.9191 93.019 37.9909 93.0141 38.0304H93.0363L95.4848 34.0089H96.8278V39.3066H95.8261V36.7617C95.8261 36.6281 95.8286 36.4822 95.8336 36.3239C95.8385 36.1607 95.8435 36.0049 95.8484 35.8565C95.8583 35.7081 95.8657 35.5795 95.8707 35.4706C95.8806 35.3569 95.888 35.2827 95.8929 35.248H95.8632L93.4073 39.3066H92.0569V34.0089Z" fill="#E74214"/>
</svg>
