<svg width="132" height="37" viewBox="0 0 132 37" fill="none" xmlns="http://www.w3.org/2000/svg">
<g clip-path="url(#clip0_1_428)">
<path fill-rule="evenodd" clip-rule="evenodd" d="M0.925781 0.8125H18.6826L30.482 14.5501L31.7676 16.0641L32.705 17.4606L33.7548 19.4407L34.8081 22.2337L35.3919 24.3293L35.7417 26.8913V36.4375H20.6718V27.8216L20.4379 26.8913L20.2041 25.3772L19.6183 23.7478L19.0345 22.2337L17.6331 20.0225L15.0622 16.8788L0.925781 0.8125Z" fill="#EA4C14"/>
<path fill-rule="evenodd" clip-rule="evenodd" d="M37.4949 0.8125H55.9535L38.6623 20.2556L37.7286 21.885L37.2609 22.9329L37.027 21.4189L36.3235 19.3233L34.922 16.6457L33.1724 13.9684L31.3014 11.7571L29.666 9.89444L37.4949 0.8125Z" fill="#EA4C14"/>
<path d="M78.035 0.8125H62.0273V36.4375H78.035V0.8125Z" fill="#EA4C14"/>
<path fill-rule="evenodd" clip-rule="evenodd" d="M98.4816 16.1796H86.5645V0.8125H101.169L102.104 0.93003L103.622 1.16315L104.909 1.62743L106.776 2.21103L105.609 3.25891L104.207 4.53797L102.806 6.28504L101.754 8.14769L100.701 10.2433L100.119 12.6876L99.7672 15.0163L99.4174 16.6459C99.4174 16.6459 99.1835 16.4128 99.0676 16.2973C98.7138 16.1796 98.4816 16.1796 98.4816 16.1796Z" fill="#EA4C14"/>
<path fill-rule="evenodd" clip-rule="evenodd" d="M117.06 0.8125H131.077V14.9006H120.331L119.28 15.0162L118.344 15.3649L117.41 15.9465L116.709 16.7634L116.239 17.8111L115.891 18.9746L115.773 20.0225V36.4375H101.635V16.9944L101.755 15.7155L102.104 13.7353L102.688 11.9902L103.506 10.1256L104.675 7.91442L106.309 5.81865L108.18 4.07352L110.165 2.79252L111.919 1.86038L113.672 1.27857L116.359 0.8125H117.06Z" fill="#EA4C14"/>
</g>
<defs>
<clipPath id="clip0_1_428">
<rect width="130.15" height="35.625" fill="white" transform="translate(0.925781 0.8125)"/>
</clipPath>
</defs>
</svg>
