<svg width="145" height="49" viewBox="0 0 145 49" fill="none" xmlns="http://www.w3.org/2000/svg">
<path d="M29.8011 16.745C29.5628 16.2207 29.5866 15.6725 29.5866 15.1244C29.5866 14.7192 29.7534 14.6477 30.1109 14.7192C31.3741 14.9575 32.6611 15.029 33.9481 14.9337C37.5708 14.6477 40.6453 13.1939 43.1716 10.5722C43.4814 10.2385 43.6483 10.1432 43.9343 10.596C44.5539 11.5494 45.2213 12.4789 45.6979 13.5275C45.5311 13.7897 45.2689 13.8135 45.0068 13.8612C40.2163 14.8145 35.4019 15.744 30.6114 16.6974C30.3254 16.745 30.0633 16.8404 29.8011 16.745Z" fill="#E74214"/>
<path d="M15.2372 22.1789C14.7128 23.1799 13.974 24.0379 13.116 24.7767C12.83 25.0389 12.7108 24.9674 12.5917 24.6099C10.7565 19.8194 7.37218 16.7687 2.41484 15.4579C2.08118 15.3625 1.98584 15.2672 2.15268 14.9574C2.34334 14.6237 2.51018 14.2662 2.67701 13.9087C3.51118 14.3615 4.27384 14.9335 5.06034 15.434C8.25401 17.5314 11.4715 19.6049 14.6652 21.6784C14.8797 21.8214 15.1418 21.9167 15.2372 22.1789Z" fill="#E74214"/>
<path d="M29.3703 23.8945C29.7755 26.111 28.6791 28.3275 26.6533 29.3047C24.6275 30.3057 22.1488 29.829 20.6473 28.1368C20.5758 28.0653 20.5281 27.97 20.4805 27.8747C20.5281 27.5648 20.7665 27.7078 20.9095 27.7317C21.3385 27.8032 21.7675 27.8985 22.2203 27.9462C23.0545 28.0653 23.841 27.9462 24.6275 27.7078C24.6751 27.684 24.7228 27.6602 24.7705 27.6602C25.3425 27.6125 25.7953 27.3027 26.2481 27.0405C27.3683 26.4447 28.2263 25.5867 28.7745 24.4188C28.9175 24.1805 28.9175 23.7753 29.3703 23.8945Z" fill="#E74214"/>
<path d="M40.2157 6.56781C41.1929 7.30664 41.9794 8.21231 42.7897 9.11797C43.0042 9.35631 42.8612 9.47547 42.6944 9.6423C41.2167 11.1438 39.5484 12.3355 37.5464 13.0028C37.1889 12.9075 37.4034 12.6691 37.4511 12.5023C37.6656 11.9065 37.9277 11.3106 38.1661 10.7386C38.6666 9.49931 39.1432 8.25997 39.6676 7.04447C39.7629 6.78231 39.8106 6.42481 40.2157 6.56781Z" fill="#E74214"/>
<path d="M0.556641 20.1531C0.723474 18.8899 1.10481 17.6982 1.50997 16.5066C1.55764 16.3397 1.62914 16.2444 1.84364 16.2921C3.89331 16.8164 5.79997 17.6744 7.42064 19.0567C7.34914 19.5334 6.94397 19.4857 6.65797 19.5334C5.34714 19.7241 4.01247 19.9147 2.70164 20.0816C2.27264 20.1292 1.81981 20.2007 1.39081 20.2722C1.10481 20.3199 0.818807 20.3676 0.556641 20.1531Z" fill="#E74214"/>
<path d="M32.2787 47.4422C31.087 47.9189 29.8477 48.2287 28.6083 48.4432C28.3938 48.4909 28.2747 48.4671 28.227 48.2287C27.655 46.1552 27.4882 44.0817 27.8695 41.9606C28.1317 41.8652 28.2747 42.0559 28.3938 42.2227C29.657 43.7957 30.8963 45.3926 32.1357 46.9894C32.231 47.1324 32.3502 47.2516 32.2787 47.4422Z" fill="#E74214"/>
<path d="M25.6055 33.3091C27.1785 33.0946 28.68 33.2138 30.0623 34.0956C30.3483 34.2863 30.396 34.4293 30.1338 34.7153C28.5846 36.4551 27.536 38.481 26.9878 40.7451C26.9878 40.769 26.9401 40.7928 26.9401 40.8405C26.6541 40.626 26.6065 40.3161 26.5826 39.9825C26.392 38.0758 26.1775 36.1691 26.0106 34.2625C25.963 33.905 25.8915 33.5713 25.6055 33.3091Z" fill="#E74214"/>
<path d="M8.61174 31.998C8.89774 32.1887 9.18374 32.3794 9.44591 32.57C9.68424 32.9275 9.66041 33.3565 9.70807 33.7617C9.97024 36.4072 10.2562 39.0289 10.5184 41.6744C10.5422 41.9604 10.6376 42.2464 10.3516 42.4609C10.0656 42.5562 9.94641 42.3655 9.80341 42.1749C9.56507 41.8412 9.35057 41.4599 9.13607 41.1024C8.99307 40.7925 8.77857 40.5304 8.68324 40.1967C8.61174 39.8869 8.46874 39.6247 8.37341 39.3149C8.30191 39.0527 8.20657 38.8144 8.13507 38.5522C8.06357 38.2424 7.99207 37.9087 7.94441 37.5989C7.92057 37.4082 7.87291 37.2175 7.84907 37.003C7.82524 36.86 7.82524 36.6932 7.82524 36.5502C7.84907 35.9544 7.80141 35.3585 7.82524 34.7627C7.84907 34.429 7.92057 34.1192 7.96824 33.7855C8.11124 33.3804 8.11124 32.9514 8.27807 32.5462C8.37341 32.3794 8.39724 32.1172 8.61174 31.998Z" fill="#E74214"/>
<path d="M30.4666 18.2225C30.2998 18.0556 30.2044 17.8411 30.1568 17.6028C30.0376 17.2691 30.2998 17.2453 30.5143 17.1976C31.0386 17.0546 31.563 17.007 32.0873 16.8878C36.5441 15.9821 41.0248 15.1241 45.4816 14.2423C45.6723 14.1946 45.8629 14.1231 46.0536 14.2661C46.2204 14.5045 46.3873 14.719 46.3873 15.005C46.1966 15.3386 45.8391 15.3148 45.5531 15.3863C40.8341 16.292 36.139 17.2691 31.4438 18.151C31.0863 18.2225 30.7765 18.4131 30.4666 18.2225Z" fill="#E74214"/>
<path d="M46.0074 14.266C43.7433 14.8142 41.4314 15.1955 39.1196 15.6483C36.7124 16.1488 34.2814 16.6017 31.8743 17.0783C31.3976 17.1737 30.8971 17.269 30.4204 17.3405C30.2536 17.3643 30.1583 17.412 30.1345 17.5788C29.9438 17.3167 29.8484 17.0307 29.8008 16.697C31.0163 16.4348 32.2318 16.1727 33.4473 15.9343C37.1176 15.1955 40.8118 14.4805 44.5059 13.7417C44.9111 13.6702 45.2924 13.551 45.6976 13.4795C45.8168 13.7655 45.9836 13.98 46.0074 14.266Z" fill="#E74214"/>
<path d="M30.4668 18.2224C32.7786 17.7457 35.0905 17.2929 37.4023 16.8162C40.2861 16.2442 43.17 15.6722 46.0538 15.1002C46.1491 15.0764 46.2445 15.0287 46.3636 15.0049C46.5305 15.2432 46.6496 15.4816 46.6973 15.7437C46.5305 15.9582 46.2921 15.9582 46.0776 16.0059C41.1441 16.9592 36.2345 17.9602 31.301 18.9135C31.1818 18.9374 31.0626 18.9612 30.9196 18.9374C30.729 18.7467 30.5145 18.5322 30.4668 18.2224Z" fill="#E74214"/>
<path d="M47.1033 17.0546C47.2702 17.3167 47.3417 17.6027 47.3893 17.9126C46.6267 18.1986 45.7925 18.2939 44.9822 18.4369C41.0735 19.1996 37.1887 20.0099 33.28 20.7487C33.0178 20.7964 32.7795 20.9156 32.4935 20.9156C32.2313 20.7011 32.0168 20.4389 31.8262 20.1767C31.9692 19.8907 32.2313 19.8669 32.4935 19.8192C37.0933 18.9136 41.6932 18.0079 46.3168 17.1022C46.579 17.0307 46.8412 16.9354 47.1033 17.0546Z" fill="#E74214"/>
<path d="M32.4941 20.9157C32.6371 20.6059 32.947 20.6536 33.1853 20.6059C36.951 19.8432 40.7405 19.0806 44.5061 18.3656C45.4595 18.1987 46.389 17.8651 47.3661 17.8889C47.4376 18.1034 47.533 18.2941 47.5091 18.5324C47.39 18.7469 47.1755 18.7946 46.961 18.8184C42.4088 19.7002 37.8566 20.6297 33.2806 21.5116C33.1853 21.5354 33.1138 21.5354 33.0185 21.5116C32.8278 21.3686 32.661 21.1541 32.4941 20.9157Z" fill="#E74214"/>
<path d="M25.6537 7.52148C25.2009 7.75982 24.7242 7.97432 24.2714 8.21265C22.1741 6.80648 20.0529 5.44798 17.9317 4.06565C17.7411 3.94648 17.5266 3.82731 17.5981 3.54131C17.6696 3.49365 17.7411 3.49365 17.8364 3.49365C18.0747 3.54132 18.3369 3.54132 18.5752 3.51749C18.8136 3.51749 19.0281 3.51748 19.2664 3.56515C19.5762 3.66048 19.9337 3.68431 20.2436 3.77965C20.5772 3.89881 20.9109 3.99415 21.2207 4.11332C21.4829 4.23249 21.7451 4.32782 22.0072 4.44699C22.2932 4.61382 22.5792 4.73298 22.8652 4.89982C23.1274 5.09048 23.4134 5.20965 23.6517 5.42415C23.9377 5.63865 24.2714 5.80548 24.5097 6.09148C24.7957 6.40132 25.0817 6.68732 25.3916 6.97332C25.5346 7.11632 25.7967 7.23548 25.6537 7.52148Z" fill="#E74214"/>
<path d="M34.5423 2.9215C34.8521 3.01684 35.162 3.136 35.4241 3.3505C34.0895 6.52033 32.874 9.714 31.5393 12.8838C31.4201 13.1698 31.3486 13.5035 31.1103 13.7418C30.7766 13.7895 30.4668 13.6942 30.1331 13.6227C29.8233 13.3605 30.0855 13.0983 30.1808 12.86C31.158 10.429 32.1351 7.998 33.1123 5.567C33.4221 4.82816 33.7081 4.0655 34.0418 3.3505C34.1371 3.136 34.161 2.80234 34.5423 2.9215Z" fill="#E74214"/>
<path d="M26.582 44.9876C26.6773 46.0839 26.8203 47.1803 27.154 48.2051C27.2731 48.5388 27.2016 48.6579 26.8441 48.6579C26.582 48.6579 26.3198 48.7056 26.0576 48.7294C25.8431 47.7046 25.7955 46.6559 25.6763 45.6073C25.438 43.3193 25.1996 41.0074 24.9613 38.7194C24.8183 37.2179 24.6515 35.7164 24.4846 34.2149C24.4608 33.9528 24.437 33.6668 24.6276 33.4523C24.8421 33.4284 25.0566 33.3808 25.2711 33.3569C25.6763 33.9528 25.5571 34.6678 25.6286 35.3113C25.867 37.6708 26.1291 40.0303 26.3675 42.4136C26.4866 43.2478 26.5581 44.1296 26.582 44.9876Z" fill="#E74214"/>
<path d="M47.1039 17.0547C45.7454 17.3407 44.3631 17.6267 43.0046 17.9127C39.6441 18.58 36.2836 19.2474 32.8992 19.9147C32.5417 19.9862 32.1604 20.01 31.8267 20.2007C31.6599 20.0577 31.5169 19.8909 31.4216 19.7002C31.3977 19.3665 31.6361 19.3427 31.8506 19.2712C32.2557 19.152 32.6847 19.0805 33.1137 19.009C37.4276 18.1272 41.7652 17.3169 46.0791 16.435C46.3412 16.3874 46.6272 16.2682 46.9132 16.435C47.0324 16.6019 47.1277 16.8164 47.1039 17.0547Z" fill="#E74214"/>
<path d="M24.6768 33.4282C24.7006 34.8582 24.9389 36.2882 25.0819 37.6944C25.1773 38.5286 25.2249 39.3389 25.3203 40.1731C25.4633 41.4601 25.6063 42.747 25.7254 44.0102C25.8446 45.2257 25.9638 46.4412 26.0591 47.6567C26.0829 47.9904 26.3213 48.3479 26.0829 48.6816C25.8684 48.6816 25.6539 48.7054 25.4394 48.7054C25.2011 48.3479 25.2249 47.9189 25.1773 47.5137C24.8674 44.4392 24.5576 41.3886 24.2239 38.3141C24.0571 36.7411 23.9856 35.1442 23.6758 33.5951C24.0094 33.4997 24.3431 33.4521 24.6768 33.4282Z" fill="#E74214"/>
<path d="M28.4415 39.7438C28.5606 39.291 28.7275 38.862 28.9658 38.4568C29.3471 38.3138 29.4663 38.6237 29.6331 38.8382C30.8486 40.3635 32.0641 41.9127 33.2558 43.4618C33.804 44.1768 34.3998 44.868 34.9241 45.6068C35.0433 45.7737 35.234 45.9167 35.1625 46.1788C34.805 46.3457 34.519 46.6555 34.09 46.7032C33.3273 45.9643 32.7315 45.0587 32.0641 44.2245C31.0155 42.8898 29.9668 41.579 28.9181 40.2443C28.799 40.0298 28.6321 39.8868 28.4415 39.7438Z" fill="#E74214"/>
<path d="M46.9124 16.3872C45.0058 16.7686 43.1229 17.1499 41.2163 17.5074C38.2133 18.1032 35.1864 18.6991 32.1834 19.2949C31.9213 19.3426 31.5638 19.2949 31.3969 19.6524C31.1824 19.4617 31.0156 19.2234 30.8964 18.9612C31.5638 18.5799 32.3264 18.6037 33.0414 18.4607C35.8299 17.8887 38.5946 17.3406 41.3831 16.7924C43.1468 16.4349 44.8866 16.1012 46.6503 15.7676C46.8171 15.9582 46.8648 16.1727 46.9124 16.3872Z" fill="#E74214"/>
<path d="M30.5625 35.8826C30.7293 35.6443 30.8485 35.406 31.0868 35.2391C31.3252 35.12 31.492 35.2391 31.635 35.4298C33.78 38.1706 35.9488 40.9114 38.07 43.6523C38.213 43.8191 38.4037 43.986 38.3083 44.272C38.07 44.4865 37.8555 44.701 37.5457 44.7725C36.8307 44.1766 36.3302 43.3663 35.7582 42.6513C34.1137 40.5778 32.493 38.4805 30.8485 36.407C30.7293 36.2401 30.5863 36.0971 30.5625 35.8826Z" fill="#E74214"/>
<path d="M40.5485 42.4132C40.3102 42.6992 40.0242 42.9614 39.6905 43.1759C38.9755 42.3894 38.3558 41.5076 37.6885 40.6972C36.4253 39.1004 35.1622 37.4797 33.899 35.8829C33.7322 35.6684 33.5653 35.5254 33.3032 35.4777C33.184 35.4539 33.041 35.4539 33.041 35.2632C33.6607 35.2632 34.3042 35.2394 34.9238 35.2394C35.186 35.1917 35.2575 35.3824 35.3767 35.5254C37.0212 37.6704 38.7372 39.7677 40.3817 41.9127C40.5009 42.0557 40.6915 42.1987 40.5485 42.4132Z" fill="#E74214"/>
<path d="M33.041 21.5352C33.6845 21.1539 34.4233 21.1539 35.1383 21.0109C38.6657 20.2959 42.193 19.6047 45.7203 18.9136C46.3162 18.7944 46.9358 18.7229 47.5317 18.5322C47.5555 18.7944 47.77 19.0089 47.7223 19.2949C47.5555 19.4617 47.3172 19.5094 47.0788 19.5571C43.0033 20.3197 38.9278 21.2016 34.8285 21.9642C34.3995 22.0357 33.9943 22.2026 33.5653 22.1787C33.3985 21.9642 33.2317 21.7497 33.041 21.5352Z" fill="#E74214"/>
<path d="M15.7857 34.3101C16.3577 34.3339 16.9297 34.3577 17.4779 34.3816C17.7401 34.4769 17.7401 34.6914 17.7639 34.9059C18.0499 37.7659 18.3597 40.6021 18.6457 43.4621C18.7649 44.6537 18.8841 45.8454 19.0271 47.0132C19.0509 47.2516 19.0986 47.4661 19.0509 47.7044C19.0032 47.9189 18.9317 48.0857 18.6457 47.9904C18.3597 47.9666 18.0737 47.8951 17.8354 47.7521C17.9069 47.5376 17.9784 47.3231 17.9546 47.0847C17.5256 43.0807 17.1442 39.0767 16.7152 35.0966C16.6914 34.8106 16.6676 34.5484 16.2862 34.5484C16.1194 34.5484 15.9764 34.5246 15.8334 34.4531C15.7619 34.4292 15.7619 34.3816 15.7857 34.3101Z" fill="#E74214"/>
<path d="M47.8432 19.9386C47.9624 20.1769 47.9624 20.4391 47.9624 20.6774C47.7479 20.9396 47.4381 20.9396 47.1282 21.0111C43.4817 21.7499 39.8352 22.4411 36.2126 23.1561C35.6882 23.2514 35.1639 23.3706 34.6634 23.5374C34.4727 23.2991 34.3059 23.0607 34.1152 22.8224C34.1391 22.3934 34.4966 22.4649 34.7587 22.3934C36.9752 21.9405 39.2156 21.4877 41.4321 21.0587C43.3149 20.6774 45.2216 20.3199 47.1044 19.9386C47.3427 19.9147 47.5811 19.8194 47.8432 19.9386Z" fill="#E74214"/>
<path d="M47.8422 19.9384C46.4837 20.2244 45.149 20.5104 43.7905 20.7964C40.6922 21.4161 37.57 22.0119 34.4478 22.6316C34.3048 22.6554 34.1857 22.7031 34.1142 22.8461C33.9473 22.6316 33.7567 22.4171 33.5898 22.1788C34.2095 21.7736 34.9483 21.8213 35.6395 21.6783C38.4042 21.1063 41.1927 20.5581 43.9812 20.0099C45.2205 19.7716 46.4837 19.5333 47.7468 19.2949C47.7945 19.5094 47.866 19.7239 47.8422 19.9384Z" fill="#E74214"/>
<path d="M7.18254 7.83109C7.3732 7.59275 7.5877 7.37826 7.84987 7.21143C11.2104 9.45176 14.6185 11.6206 17.979 13.8371C18.1935 13.9801 18.4557 14.0993 18.551 14.3853C18.4319 14.5998 18.3365 14.8143 18.2174 15.0288C18.0029 15.1718 17.836 14.9811 17.693 14.8858C15.6195 13.5749 13.5699 12.1926 11.4964 10.8579C10.1617 9.99992 8.82704 9.14192 7.5162 8.26009C7.34937 8.14092 7.13487 8.09325 7.18254 7.83109Z" fill="#E74214"/>
<path d="M30.563 35.8828C31.3495 36.717 31.993 37.6465 32.6842 38.5283C34.2572 40.5065 35.8302 42.5085 37.4032 44.4866C37.4747 44.582 37.5224 44.6535 37.5462 44.7726C37.3317 44.9871 37.0934 45.1778 36.7835 45.297C36.1162 44.7488 35.6634 44.01 35.139 43.3426C33.5899 41.3645 32.0169 39.4101 30.4915 37.4081C30.3247 37.1936 30.0864 37.003 29.9434 36.7646C30.134 36.4548 30.3009 36.1211 30.563 35.8828Z" fill="#E74214"/>
<path d="M31.1113 13.742C31.3258 12.7648 31.8263 11.883 32.1838 10.9773C33.0895 8.64168 34.0428 6.32984 34.9962 4.01801C35.0915 3.77967 35.163 3.49368 35.4252 3.37451C35.7112 3.46985 35.9972 3.58901 36.2355 3.80351C34.9247 6.92568 33.6853 10.0717 32.4222 13.1938C32.3268 13.4322 32.303 13.7897 31.9217 13.7897C31.7072 13.7897 31.5165 13.8135 31.302 13.742C31.2305 13.742 31.159 13.742 31.1113 13.742Z" fill="#E74214"/>
<path d="M35.1853 46.1551C34.4465 45.2018 33.7315 44.2484 32.9927 43.2951C31.8725 41.8651 30.7285 40.4351 29.6083 39.0051C29.4415 38.7906 29.2985 38.5284 28.9648 38.4808C29.084 38.1233 29.2508 37.8134 29.4892 37.5036C29.799 37.3606 29.8943 37.6228 30.0373 37.7896C31.372 39.4103 32.6352 41.1024 33.946 42.7469C34.5657 43.5334 35.1853 44.2961 35.7812 45.1064C35.9242 45.2733 36.1863 45.4401 36.0433 45.7499C35.7812 45.8929 35.519 46.1074 35.1853 46.1551Z" fill="#E74214"/>
<path d="M15.2379 22.1789C13.4266 21.0111 11.6152 19.8432 9.82773 18.6754C7.5874 17.2216 5.34707 15.7677 3.10673 14.3139C2.9399 14.1947 2.77307 14.0994 2.67773 13.9087C2.74923 13.6704 2.84457 13.4559 3.0114 13.2891C5.68073 15.1004 8.42157 16.8164 11.1147 18.5801C12.5209 19.5096 13.9509 20.4152 15.3809 21.3447C15.4524 21.3924 15.5239 21.4639 15.5716 21.5354C15.5239 21.7976 15.3809 21.9882 15.2379 22.1789Z" fill="#E74214"/>
<path d="M23.6752 33.6187C24.1042 33.8808 23.9851 34.3337 24.0089 34.6912C24.1996 36.3357 24.3664 38.004 24.5332 39.6485C24.6524 40.8401 24.7477 42.0318 24.8669 43.2473C24.9861 44.4628 25.1291 45.6783 25.2721 46.87C25.3436 47.4896 25.3674 48.1093 25.4151 48.729C25.2006 48.729 24.9861 48.729 24.7716 48.7528C24.4379 48.0855 24.4856 47.3228 24.4141 46.6078C24.1757 44.296 23.9374 41.9603 23.6991 39.6485C23.5084 37.8133 23.3177 35.9543 23.1271 34.1192C23.1032 34 23.1271 33.8808 23.1509 33.7378C23.3177 33.6187 23.5084 33.6425 23.6752 33.6187Z" fill="#E74214"/>
<path d="M5.82401 9.26094C5.91934 9.07027 6.06234 8.92727 6.25301 8.80811C6.96801 9.02261 7.51617 9.52311 8.13584 9.92827C11.0435 11.8349 13.9988 13.6939 16.8827 15.6244C17.1448 15.8151 17.4308 15.9343 17.7168 16.1011C17.6692 16.4109 17.5262 16.6731 17.3832 16.9591C17.1448 17.0306 16.978 16.8638 16.8112 16.7446C13.975 14.8856 11.115 13.0504 8.30268 11.1914C7.58768 10.7148 6.84884 10.2858 6.15767 9.78527C5.94317 9.66611 5.68101 9.57077 5.82401 9.26094Z" fill="#E74214"/>
<path d="M34.6621 23.5611C34.7098 23.2751 34.9481 23.2989 35.1626 23.2512C37.6651 22.7507 40.1676 22.2502 42.6463 21.7497C44.4099 21.3922 46.1736 21.0347 47.9611 20.6772C47.8896 20.9394 48.1041 21.1777 48.0564 21.4161C47.9134 21.5829 47.6989 21.6306 47.4844 21.6782C43.4089 22.4886 39.3096 23.2751 35.2341 24.1092C35.1864 24.1092 35.1388 24.1092 35.0673 24.1092C34.9004 23.9662 34.7574 23.7756 34.6621 23.5611Z" fill="#E74214"/>
<path d="M23.1498 33.738C23.4596 34.4053 23.3881 35.1203 23.4835 35.8115C23.698 37.5037 23.8648 39.1958 24.0316 40.8642C24.1508 42.0797 24.2461 43.2952 24.3653 44.5107C24.4845 45.7023 24.6513 46.894 24.7705 48.0857C24.7943 48.3002 24.7943 48.5147 24.7943 48.7292C24.5321 48.7292 24.27 48.8483 24.0316 48.7292C23.7456 46.6557 23.5788 44.5583 23.3643 42.461C23.0783 39.8155 22.8161 37.1462 22.554 34.4768C22.5301 34.2385 22.5063 34.024 22.6731 33.8095C22.7923 33.7142 22.983 33.738 23.1498 33.738Z" fill="#E74214"/>
<path d="M10.4241 22.5361C10.7101 22.7983 10.8293 23.132 10.9723 23.4656C10.7816 23.7278 10.4956 23.7516 10.2096 23.7755C7.11128 24.2045 4.03678 24.6573 0.938448 25.0863C0.700115 25.1101 0.437948 25.1578 0.223448 24.9671C0.151948 24.6811 0.175781 24.3951 0.199615 24.1091C0.342615 23.8946 0.580948 23.8708 0.819281 23.847C3.84611 23.418 6.89678 22.989 9.94745 22.56C10.0904 22.5361 10.2573 22.56 10.4241 22.5361Z" fill="#E74214"/>
<path d="M33.0413 35.2632C34.0185 35.3109 34.3283 36.1927 34.805 36.7885C36.3542 38.6952 37.8557 40.6495 39.3572 42.58C39.5002 42.7469 39.667 42.9375 39.6908 43.1758C39.524 43.3903 39.2857 43.5572 39.0473 43.7002C38.8328 43.6525 38.7137 43.5095 38.5945 43.3427C36.6402 40.8402 34.662 38.3615 32.7315 35.859C32.6123 35.6922 32.374 35.5492 32.517 35.2632C32.6838 35.2632 32.8745 35.2632 33.0413 35.2632Z" fill="#E74214"/>
<path d="M15.5484 21.5351C14.7143 21.2253 14.0231 20.6295 13.2843 20.1528C10.0191 18.0793 6.77778 15.9343 3.53645 13.8131C3.32195 13.6701 3.01211 13.5986 2.98828 13.265C3.03595 13.0505 3.15511 12.8836 3.29811 12.7168C6.99228 15.1716 10.7103 17.5311 14.3806 19.9621C14.8811 20.2958 15.4531 20.5341 15.8583 21.0108C15.7629 21.1776 15.6676 21.3683 15.5484 21.5351Z" fill="#E74214"/>
<path d="M34.544 2.92164C34.0435 3.15997 34.0435 3.6843 33.8766 4.06563C32.6135 7.09247 31.4218 10.1431 30.1825 13.1938C30.1348 13.3368 30.0395 13.456 30.1348 13.599C29.6105 13.5036 29.682 12.9793 29.4913 12.6695C29.396 12.4788 29.4913 12.2881 29.5628 12.1213C30.7545 9.14213 31.9938 6.16297 33.1855 3.15997C33.2808 2.8978 33.3046 2.49263 33.8051 2.58796C34.0673 2.65946 34.3295 2.7548 34.544 2.92164Z" fill="#E74214"/>
<path d="M32.5175 35.2634C32.9465 36.0976 33.6138 36.7411 34.162 37.4799C35.7827 39.5773 37.4272 41.6508 39.0478 43.7243C38.8333 43.9388 38.595 44.1294 38.309 44.2724C37.7132 43.2476 36.9028 42.4134 36.2117 41.4839C34.9962 39.8871 33.7568 38.3379 32.5175 36.7649C32.1838 36.3359 31.8263 35.9069 31.5165 35.4779C31.3973 35.3349 31.2782 35.2634 31.1113 35.2634C31.5642 35.0251 32.0408 35.2873 32.5175 35.2634Z" fill="#E74214"/>
<path d="M20.29 34.1906C20.3854 34.1906 20.4807 34.1668 20.576 34.1668C21.0527 34.0238 21.148 34.3575 21.1719 34.6911C21.2672 35.7875 21.4102 36.8838 21.5055 37.9801C21.7677 40.6256 22.0537 43.295 22.3159 45.9405C22.3874 46.6555 22.4827 47.3943 22.5304 48.1093C22.5542 48.3476 22.6257 48.7052 22.1729 48.6098C21.8869 48.6098 21.577 48.6336 21.3149 48.5145C21.6009 48.2523 21.5294 47.8948 21.5055 47.5611C21.3149 45.6783 21.1004 43.7716 20.9335 41.8888C20.6952 39.4816 20.4092 37.0745 20.2185 34.6673C20.1947 34.5243 20.147 34.3336 20.29 34.1906Z" fill="#E74214"/>
<path d="M18.5508 14.3615C15.2618 12.2165 11.9728 10.0954 8.70761 7.92653C8.39778 7.71203 7.96878 7.6167 7.84961 7.1877C7.99261 6.99703 8.15944 6.85403 8.37394 6.73486C9.20811 7.1162 9.92311 7.6882 10.6858 8.16486C13.4028 9.92853 16.1198 11.6922 18.8368 13.4559C18.9083 13.5035 18.9559 13.5512 19.0036 13.5989C18.8368 13.8849 18.6938 14.1232 18.5508 14.3615Z" fill="#E74214"/>
<path d="M7.18289 7.83105C7.65955 8.30772 8.27922 8.61756 8.82739 8.97506C11.8781 10.9771 14.9526 12.9552 18.0032 14.9572C18.0509 15.0049 18.1462 15.0049 18.1939 15.0287C18.0986 15.2432 17.9794 15.4577 17.8841 15.6722C17.6457 15.8152 17.4789 15.6246 17.3121 15.5054C14.9764 13.9801 12.6169 12.4547 10.2812 10.9294C9.20872 10.2382 8.11239 9.54706 7.06372 8.83206C6.87305 8.68906 6.58705 8.59373 6.73005 8.26006C6.87305 8.06939 7.01605 7.92639 7.18289 7.83105Z" fill="#E74214"/>
<path d="M0.246931 24.9673C1.53393 24.9435 2.82093 24.6575 4.0841 24.4907C5.46643 24.3238 6.84876 24.1093 8.2311 23.8948C9.13676 23.7518 10.0663 23.7042 10.9481 23.4658C11.1149 23.6565 11.2103 23.871 11.2579 24.1093C11.2341 24.4907 10.9004 24.5145 10.6383 24.5622C8.85076 24.8243 7.03943 25.0865 5.2281 25.3248C3.84576 25.5155 2.48726 25.73 1.10493 25.8968C1.0096 25.9207 0.890431 25.9445 0.795098 25.9445C0.270765 25.9922 0.175431 25.8968 0.175431 25.3725C0.175431 25.2533 0.127765 25.0865 0.246931 24.9673Z" fill="#E74214"/>
<path d="M22.173 48.6336C22.4352 48.6097 22.4352 48.4191 22.4113 48.2284C22.2445 46.7269 22.0538 45.2016 21.9108 43.7001C21.7917 42.5322 21.6963 41.3882 21.5533 40.2204C21.4342 38.9572 21.2673 37.6941 21.1482 36.4309C21.1005 35.8589 21.0528 35.3107 21.029 34.7387C21.0052 34.4289 20.9813 34.1667 20.5762 34.1667C20.8145 34.0476 21.0767 34.0714 21.3388 34.0714C21.8155 33.9999 21.7678 34.4289 21.8155 34.6672C21.9108 35.4537 21.9823 36.2164 22.0538 37.0029C22.316 39.6961 22.602 42.3892 22.888 45.0824C23.0072 46.1311 23.1025 47.1797 23.1978 48.2284C23.2217 48.4191 23.2217 48.5859 23.0787 48.7289C22.7688 48.7289 22.459 48.7766 22.173 48.6336Z" fill="#E74214"/>
<path d="M10.4251 22.5362C10.1629 22.8699 9.75773 22.7746 9.4479 22.8222C7.18373 23.1797 4.9434 23.4896 2.67923 23.7994C1.8689 23.9186 1.05856 24.0139 0.272064 24.1331C0.152898 23.8232 0.224398 23.4896 0.224398 23.1797C0.367398 23.0367 0.534231 23.0129 0.701064 22.9891C3.75173 22.5124 6.82623 22.1311 9.90073 21.6782C10.1629 21.8927 10.2582 22.2264 10.4251 22.5362Z" fill="#E74214"/>
<path d="M36.0444 45.726C35.5916 44.9156 34.9481 44.2483 34.3999 43.5333C33.1606 41.9365 31.9212 40.3396 30.6581 38.7666C30.3006 38.3138 30.0622 37.7656 29.4902 37.5035C29.5856 37.2175 29.7762 36.9791 29.9431 36.7646C30.5866 37.0745 30.8726 37.718 31.2777 38.2185C32.8269 40.149 34.3522 42.1033 35.8776 44.0576C36.1874 44.4628 36.5449 44.8203 36.7832 45.297C36.5687 45.4638 36.3304 45.6306 36.0444 45.726Z" fill="#E74214"/>
<path d="M35.9015 25.4201C35.8062 25.2771 35.7109 25.1103 35.6394 24.9673C35.5202 24.6098 35.8062 24.5859 36.0207 24.5144C36.4259 24.3714 36.8549 24.3476 37.2839 24.2523C40.6205 23.5849 43.9572 22.9176 47.2939 22.2741C47.556 22.2264 47.842 22.0834 48.1042 22.2741C48.0804 22.6078 48.3425 22.9414 48.0327 23.2513C47.699 23.2274 47.3892 23.2751 47.0794 23.3466C43.6474 24.0616 40.1915 24.7051 36.7357 25.3963C36.4497 25.4678 36.1637 25.5869 35.9015 25.4201Z" fill="#E74214"/>
<path d="M9.56566 5.82893C9.80399 5.59059 10.09 5.39993 10.4237 5.28076C10.5428 5.49526 10.7097 5.63826 10.9003 5.78126C13.8795 7.7356 16.8587 9.64226 19.8378 11.5966C19.9808 11.6919 20.1238 11.7396 20.1715 11.9303C20.0285 12.1209 19.9093 12.2878 19.7663 12.4784C19.4803 12.6691 19.2897 12.4546 19.099 12.3354C17.7167 11.4298 16.3343 10.5479 14.9758 9.66609C13.3552 8.61743 11.7583 7.56876 10.1377 6.52009C9.87549 6.30559 9.54183 6.21026 9.56566 5.82893Z" fill="#E74214"/>
<path d="M18.9789 13.6227C18.2877 13.4559 17.7634 12.9554 17.1914 12.5979C14.379 10.7865 11.5667 8.95138 8.77821 7.09238C8.63521 6.99704 8.44455 6.94937 8.37305 6.7587C8.53988 6.5442 8.77821 6.37738 9.01655 6.23438C11.7097 8.04571 14.4505 9.78554 17.1437 11.5492C17.7634 11.9544 18.383 12.3834 19.0265 12.7885C19.1457 12.86 19.2649 12.9315 19.3125 13.0984C19.1934 13.2652 19.098 13.4559 18.9789 13.6227Z" fill="#E74214"/>
<path d="M16.9541 18.127C16.9303 18.3177 16.8826 18.5084 16.7634 18.6752C16.5251 18.8182 16.3583 18.6275 16.1914 18.5322C14.4278 17.4359 12.7118 16.2919 10.9719 15.1717C9.01759 13.9085 7.03942 12.6215 5.10892 11.3345C4.89442 11.1915 4.60842 11.12 4.63226 10.7625C4.77526 10.5719 4.91826 10.405 5.06126 10.2144C7.94509 12.1687 10.9004 14.0277 13.8319 15.9344C14.7614 16.5302 15.6671 17.1737 16.6204 17.7457C16.7634 17.8172 16.9064 17.9364 16.9541 18.127Z" fill="#E74214"/>
<path d="M28.4412 39.744C28.7272 39.601 28.8225 39.8632 28.9417 40.0062C30.6577 42.1512 32.3499 44.32 34.042 46.4889C34.0897 46.5365 34.0897 46.6318 34.1135 46.6795C33.8275 46.8702 33.4939 47.037 33.1364 47.1085C32.8027 46.9417 32.6597 46.608 32.4214 46.322C31.0152 44.5583 29.6329 42.747 28.2029 40.9834C28.1552 40.9357 28.1314 40.8642 28.1075 40.7927C28.179 40.4352 28.2982 40.0777 28.4412 39.744Z" fill="#E74214"/>
<path d="M9.87691 21.6546C9.66241 21.9883 9.30491 21.9168 9.01891 21.9406C6.51641 22.3219 3.99008 22.6556 1.46375 23.0131C1.05858 23.0608 0.653414 23.0846 0.248247 23.1323C0.176747 23.1084 0.152914 23.0608 0.20058 22.9893C0.20058 22.5841 0.176747 22.2028 0.295914 21.7976C0.55808 21.9644 0.820247 21.9644 1.10625 21.9168C3.60875 21.5593 6.13508 21.2256 8.63758 20.8443C8.82825 20.8204 9.01891 20.7966 9.23341 20.8204C9.51941 21.1064 9.71008 21.3686 9.87691 21.6546Z" fill="#E74214"/>
<path d="M35.9023 25.4201C37.6183 25.0864 39.3343 24.7527 41.0503 24.3952C43.243 23.9662 45.4118 23.5372 47.6045 23.1082C47.7952 23.0606 47.9143 23.0367 47.962 23.2751C48.1527 23.5849 48.1765 23.8709 47.9143 24.1331C47.6045 24.0377 47.2947 24.0616 46.961 24.1331C43.6005 24.8242 40.24 25.4677 36.8795 26.1351C36.7127 26.1589 36.522 26.2066 36.3552 26.1827C36.1883 25.9206 36.0453 25.6584 35.9023 25.4201Z" fill="#E74214"/>
<path d="M18.6225 47.99C19.0992 47.847 18.8847 47.4418 18.8608 47.1797C18.7417 45.845 18.5987 44.5103 18.4557 43.1757C18.2888 41.6265 18.0982 40.0773 17.9313 38.5282C17.8122 37.3365 17.693 36.121 17.5977 34.9293C17.5738 34.7387 17.5977 34.548 17.4785 34.3573C17.7407 34.2858 18.0028 34.2858 18.265 34.3573C18.5033 34.7387 18.4318 35.1915 18.4795 35.5967C18.8132 38.9333 19.1707 42.2462 19.5043 45.5828C19.5758 46.2978 19.6712 47.0367 19.7188 47.7517C19.7188 47.9185 19.7665 48.1092 19.6473 48.276C19.3137 48.2045 18.9562 48.0853 18.6225 47.99Z" fill="#E74214"/>
<path d="M20.2912 34.1909C20.4342 35.5971 20.5772 37.0032 20.7202 38.4094C20.8393 39.6011 21.0062 40.7927 21.1253 41.9844C21.2445 43.1284 21.3637 44.2724 21.459 45.4164C21.5543 46.3221 21.5543 47.2277 21.7212 48.1096C21.7927 48.5624 21.602 48.5386 21.316 48.5624C21.2683 48.5624 21.1968 48.5386 21.1492 48.5386C20.744 47.9427 20.8632 47.2277 20.7917 46.5604C20.4818 43.8672 20.2435 41.1741 19.9575 38.4809C19.8383 37.3369 19.743 36.1691 19.6 35.0251C19.5762 34.7867 19.5523 34.5246 19.6238 34.2862C19.8383 34.1671 20.0528 34.1909 20.2912 34.1909Z" fill="#E74214"/>
<path d="M37.1174 27.6607C36.9744 27.4701 36.8553 27.2556 36.8076 27.0172C36.6884 26.7551 36.8553 26.6597 37.0459 26.5882C37.2128 26.5167 37.3796 26.4929 37.5703 26.4452C40.6924 25.8494 43.8146 25.2059 46.9368 24.6101C47.2466 24.5624 47.5803 24.4194 47.8186 24.7531C47.9139 25.1344 47.9139 25.4919 47.5803 25.7779C47.2466 25.7064 46.9129 25.7302 46.5793 25.8017C43.5048 26.4214 40.4303 27.0172 37.3558 27.6607C37.2604 27.6607 37.1889 27.6607 37.1174 27.6607Z" fill="#E74214"/>
<path d="M19.6235 34.2622C19.9095 34.6435 19.7665 35.1202 19.838 35.5492C20.0525 37.0984 20.1479 38.6714 20.2909 40.2444C20.4815 42.151 20.7199 44.0815 20.9105 45.9882C21.0059 46.8224 21.0535 47.6804 21.1489 48.5145C20.9344 48.5145 20.696 48.586 20.5054 48.4192C20.124 47.7519 20.2194 46.9892 20.1479 46.2742C19.8619 43.6287 19.5997 40.9832 19.3375 38.3615C19.2184 37.2175 19.123 36.0497 18.98 34.9057C18.9562 34.6912 18.9562 34.4767 19.123 34.3099C19.266 34.286 19.4329 34.286 19.6235 34.2622Z" fill="#E74214"/>
<path d="M9.2554 20.868C8.73106 21.1778 8.13523 21.1301 7.56323 21.2016C5.58506 21.5115 3.58306 21.7736 1.6049 22.0596C1.3189 22.1073 1.05673 22.1311 0.770729 22.1788C0.508562 22.2265 0.317896 22.1311 0.317896 21.8213C0.317896 21.5353 0.294062 21.2493 0.437063 20.9633C1.79556 20.9395 3.13023 20.6296 4.4649 20.4628C5.77573 20.296 7.06273 20.0576 8.37356 19.9385C8.7549 20.1768 9.01706 20.5105 9.2554 20.868Z" fill="#E74214"/>
<path d="M47.7458 24.7764C47.3645 24.4666 46.9832 24.7526 46.6257 24.8002C43.5989 25.3722 40.572 25.9681 37.569 26.5877C37.3069 26.6354 36.8779 26.5401 36.8064 27.0167C36.6634 26.7307 36.5203 26.4686 36.3535 26.1826C37.0447 25.8012 37.855 25.8012 38.5939 25.6344C41.4539 25.0386 44.3139 24.4904 47.1739 23.9422C47.3407 23.9184 47.7697 23.5132 47.8412 24.1091C47.9842 24.3712 48.0795 24.6096 47.7458 24.7764Z" fill="#E74214"/>
<path d="M5.82453 9.26123C5.82453 9.40423 5.89604 9.47573 6.0152 9.54723C9.8047 12.0021 13.5942 14.4807 17.3837 16.9356C17.3122 17.1262 17.2407 17.2931 17.1692 17.4837C16.9547 17.6267 16.7879 17.4599 16.6449 17.3407C14.6667 16.1014 12.7124 14.7906 10.758 13.5274C9.11353 12.4787 7.49287 11.4062 5.8722 10.3337C5.6577 10.1907 5.34787 10.1192 5.39554 9.76173C5.5147 9.5949 5.68153 9.42806 5.82453 9.26123Z" fill="#E74214"/>
<path d="M5.37233 9.78564C5.65833 10.2146 6.135 10.4053 6.564 10.6675C9.59083 12.6456 12.6177 14.6238 15.6683 16.5781C16.1688 16.888 16.6217 17.2455 17.1698 17.4838C17.0983 17.6983 17.0268 17.9128 16.9553 18.1273C13.3803 15.8155 9.80533 13.4798 6.23033 11.1441C5.82517 10.882 5.277 10.7151 5.0625 10.1908C5.134 10.024 5.22933 9.88098 5.37233 9.78564Z" fill="#E74214"/>
<path d="M19.3136 13.0984C18.0027 12.2404 16.6919 11.4062 15.3811 10.5482C13.4267 9.28503 11.4724 8.02186 9.51808 6.75869C9.32741 6.63952 9.04141 6.56803 9.01758 6.2582C9.16058 6.06753 9.35124 5.94836 9.56574 5.85303C9.70874 6.13903 9.99474 6.28203 10.2331 6.44886C13.2361 8.40319 16.2391 10.3575 19.2659 12.3119C19.4089 12.4072 19.5519 12.5264 19.7426 12.5025C19.6472 12.6932 19.4804 12.9077 19.3136 13.0984Z" fill="#E74214"/>
<path d="M40.5501 42.413C40.2402 41.7456 39.7159 41.2451 39.263 40.6731C37.9045 38.8856 36.4984 37.1219 35.1161 35.3583C35.0684 35.3106 34.9969 35.2868 34.9492 35.2391C35.2591 35.1199 35.5927 35.1438 35.9264 35.1438C36.2124 35.0246 36.3554 35.1676 36.4984 35.3821C38.0237 37.3603 39.5729 39.3623 41.1459 41.2928C41.2412 41.412 41.3604 41.5073 41.2889 41.6741C41.0982 41.9601 40.8599 42.2223 40.5501 42.413Z" fill="#E74214"/>
<path d="M6.75324 8.23633C6.75324 8.45083 6.89624 8.54616 7.06308 8.6415C10.6142 10.9533 14.1892 13.289 17.7404 15.6247C17.7881 15.6485 17.8357 15.6485 17.8834 15.6723C17.8834 15.863 17.6451 15.9107 17.6689 16.1013C17.3829 16.2205 17.1922 16.0298 17.0016 15.8868C13.9986 13.9325 10.9956 11.9543 7.96874 9.99999C7.37291 9.61866 6.75324 9.26116 6.20508 8.80833C6.37191 8.56999 6.56258 8.40316 6.75324 8.23633Z" fill="#E74214"/>
<path d="M9.85238 28.6137C9.70938 28.9236 9.56638 29.2572 9.42338 29.5671C9.20888 29.7339 8.97055 29.7577 8.70838 29.8054C6.32505 30.1391 3.94171 30.4489 1.53455 30.8064C1.34388 30.8302 1.15321 30.9017 0.962547 30.7349C0.84338 30.4489 0.748047 30.1867 0.748047 29.8769C0.891047 29.5909 1.17705 29.5909 1.43921 29.5432C3.98938 29.1619 6.51571 28.8044 9.06588 28.4469C9.35188 28.4469 9.63788 28.3992 9.85238 28.6137Z" fill="#E74214"/>
<path d="M30.182 1.42C30.4918 1.42 30.754 1.51533 31.0161 1.6345C30.2058 3.15983 29.6815 4.80433 29.0141 6.40117C28.6566 7.25917 28.323 8.11717 27.9893 8.97517C27.894 9.21351 27.8225 9.45184 27.5841 9.57101C27.3696 9.28501 27.1551 9.02284 26.9406 8.73684C26.8453 8.49851 26.893 8.284 26.9883 8.0695C27.7986 6.01983 28.609 3.99401 29.4431 1.94434C29.5623 1.63451 29.6815 1.25317 30.182 1.42Z" fill="#E74214"/>
<path d="M10.9488 33.3091C11.1633 33.3806 11.3778 33.4521 11.5923 33.5474C11.8783 33.7142 11.9022 34.0002 11.9498 34.2862C12.212 36.8602 12.4742 39.4104 12.7363 41.9844C12.8078 42.8186 12.9032 43.6527 12.9985 44.4869C13.0223 44.7014 13.07 44.9159 12.927 45.1066C12.4027 45.1542 12.0452 44.8921 11.8783 44.2724C11.8783 42.8424 11.64 41.4362 11.5208 40.0301C11.3302 37.9566 11.0918 35.9069 10.9012 33.8334C10.8535 33.6427 10.8058 33.4759 10.9488 33.3091Z" fill="#E74214"/>
<path d="M23.0793 48.7291C22.9363 47.4421 22.7933 46.1789 22.6741 44.8919C22.5549 43.7002 22.4596 42.5086 22.3404 41.3169C22.2213 40.0776 22.0544 38.8621 21.9353 37.6466C21.8399 36.7409 21.7923 35.8591 21.6969 34.9534C21.6731 34.6436 21.7684 34.2623 21.3633 34.0954C21.6016 33.9763 21.8638 33.9763 22.1259 34.0239C22.3404 34.2146 22.3643 34.4529 22.3881 34.7151C22.8409 39.1958 23.2938 43.6526 23.7704 48.1333C23.7943 48.3716 23.8181 48.5861 23.6513 48.8006C23.4368 48.7291 23.2461 48.7291 23.0793 48.7291Z" fill="#E74214"/>
<path d="M20.149 11.9064C18.6237 10.9292 17.0983 9.95206 15.573 8.97489C13.9047 7.90239 12.2363 6.80605 10.568 5.73355C10.3535 5.59055 10.282 5.49522 10.4012 5.28072V5.25689C10.5918 5.18539 10.7348 5.01855 10.9732 5.01855C11.7835 5.47139 12.5462 6.01955 13.3088 6.52005C15.5492 7.95005 17.7657 9.42772 19.9822 10.8577C20.1967 11.0007 20.435 11.1437 20.578 11.3821C20.435 11.5489 20.292 11.7396 20.149 11.9064Z" fill="#E74214"/>
<path d="M12.3548 33.7617C12.5931 33.8332 12.8553 33.8809 13.0936 33.9524C13.4035 34.6674 13.3796 35.4539 13.4511 36.1927C13.6895 38.5045 13.9278 40.7925 14.1661 43.1044C14.2376 43.9147 14.3091 44.725 14.4045 45.5592C14.4283 45.7737 14.4283 45.9882 14.2853 46.1789C13.8325 46.2266 13.5226 46.0359 13.3558 45.6069C13.3558 44.1292 13.1175 42.6754 12.9745 41.1977C12.76 39.005 12.5455 36.8124 12.3071 34.6197C12.2833 34.3337 12.2356 34.0477 12.3548 33.7617Z" fill="#E74214"/>
<path d="M27.5605 9.57078C28.5854 7.04445 29.6102 4.54195 30.635 2.01561C30.7065 1.82495 30.7542 1.63428 31.0164 1.63428C31.2785 1.65811 31.5407 1.70578 31.7552 1.84878C31.6837 2.30162 31.4454 2.70678 31.2785 3.13578C30.3967 5.37611 29.4672 7.61644 28.5615 9.85678C28.4662 10.0713 28.4185 10.3096 28.204 10.4288C27.9895 10.1666 27.775 9.85678 27.5605 9.57078Z" fill="#E74214"/>
<path d="M10.1857 42.4135C10.567 42.3181 10.424 42.0083 10.4002 41.7938C10.281 40.483 10.138 39.1483 9.99504 37.8375C9.8282 36.2883 9.66137 34.7391 9.49454 33.2138C9.4707 32.9993 9.4707 32.7848 9.4707 32.5703C9.7567 32.6656 9.99504 32.8325 10.2095 32.9993C10.6147 33.476 10.5194 34.0956 10.567 34.6438C10.8292 37.337 11.139 40.054 11.4012 42.7471C11.425 43.0331 11.5204 43.3191 11.2344 43.5336C10.7339 43.486 10.281 42.9855 10.1857 42.4135Z" fill="#E74214"/>
<path d="M3.65581 12.2167C3.72731 12.0022 3.82265 11.8354 3.98948 11.6924C6.34898 13.2415 8.73231 14.7907 11.1156 16.3399C12.6886 17.3647 14.2616 18.3895 15.8346 19.3905C16.0253 19.5097 16.2398 19.6289 16.3351 19.8434C16.359 20.0579 16.2636 20.2247 16.1445 20.3915C15.93 20.463 15.8108 20.32 15.6678 20.2247C13.4751 18.7947 11.3063 17.3885 9.11365 15.9585C7.44531 14.8622 5.77698 13.7659 4.08481 12.6934C3.89415 12.5742 3.63198 12.5027 3.65581 12.2167Z" fill="#E74214"/>
<path d="M12.3545 33.7619C12.569 34.2385 12.4975 34.739 12.5451 35.2157C12.7596 37.0985 12.9026 39.0052 13.1171 40.9119C13.284 42.3657 13.4508 43.8195 13.5461 45.2734C13.5461 45.4164 13.5938 45.5594 13.427 45.6309C13.0456 45.6547 12.8311 45.464 12.7596 45.1065C13.0218 44.606 12.7596 44.0817 12.7358 43.5812C12.712 42.6755 12.5451 41.7699 12.4498 40.8404C12.3068 39.601 12.1876 38.3617 12.0446 37.0985C11.9493 36.2644 11.8778 35.4064 11.8063 34.5722C11.7825 34.2147 11.711 33.881 11.5918 33.5474C11.854 33.6189 12.0923 33.6904 12.3545 33.7619Z" fill="#E74214"/>
<path d="M11.0432 43.4857C11.4007 43.4142 11.2815 43.1282 11.2577 42.9137C11.0908 41.1977 10.924 39.5055 10.7333 37.7895C10.5665 36.1927 10.3758 34.5959 10.209 32.999C10.495 33.0229 10.7333 33.1659 10.9717 33.3089C11.1147 34.7389 11.2577 36.145 11.4007 37.575C11.5675 39.1242 11.782 40.6495 11.9012 42.1987C11.9488 42.8899 12.2587 43.6287 11.925 44.3199C11.4483 44.2245 11.1623 43.9385 11.0432 43.4857Z" fill="#E74214"/>
<path d="M30.1817 1.42015C29.9434 1.39632 29.7765 1.49165 29.6812 1.72999C28.7755 4.01799 27.846 6.30598 26.9404 8.59398C26.9165 8.64165 26.9165 8.68932 26.9165 8.76082C26.6305 8.45099 26.3684 8.14115 26.0824 7.83131C26.0109 7.66448 26.1062 7.52148 26.1539 7.37848C26.9165 5.49565 27.6792 3.58898 28.418 1.70615C28.561 1.34865 28.7279 1.03882 29.1807 1.22948C29.5382 1.20565 29.8719 1.27715 30.1817 1.42015Z" fill="#E74214"/>
<path d="M23.6027 48.7293C23.4597 47.4185 23.3167 46.1077 23.1975 44.773C23.0783 43.6052 22.983 42.4135 22.8638 41.2457C22.7447 39.9587 22.6017 38.6717 22.4587 37.4085C22.3872 36.622 22.268 35.8355 22.2442 35.0252C22.2203 34.6677 22.125 34.334 22.125 33.9765C22.2918 33.8335 22.4587 33.8335 22.6493 33.8335C22.7923 35.1205 22.9353 36.4075 23.0545 37.6945C23.1498 38.5287 23.1975 39.3628 23.2928 40.1732C23.4358 41.4602 23.5788 42.7472 23.698 44.0342C23.8172 45.2258 23.9602 46.4413 24.0317 47.633C24.0555 47.9905 24.3653 48.3957 24.0317 48.7532C23.8887 48.7532 23.7457 48.7532 23.6027 48.7293Z" fill="#E74214"/>
<path d="M11.6159 25.611C11.449 25.8732 11.2822 26.1115 11.0915 26.3737C10.2574 26.5882 9.39936 26.6359 8.5652 26.7789C6.0627 27.1602 3.53637 27.4939 1.03387 27.8275C0.747866 27.8752 0.438033 27.9467 0.3427 27.5415C0.295033 27.2555 0.1997 26.9695 0.247366 26.6835C0.461866 26.8742 0.7002 26.8742 0.9862 26.8265C4.15603 26.3499 7.30203 25.9209 10.4719 25.4919C10.8532 25.468 11.2822 25.182 11.6159 25.611Z" fill="#E74214"/>
<path d="M37.6658 28.9235C37.5466 28.7567 37.4751 28.5898 37.4513 28.3753C37.3321 28.1132 37.5228 28.0178 37.6896 27.9463C37.8326 27.8748 37.9994 27.851 38.1424 27.8272C40.9309 27.2552 43.7433 26.7308 46.5318 26.1827C46.8416 26.1112 47.2229 25.992 47.4136 26.421C47.4374 26.707 47.4136 26.993 47.1276 27.1598C44.2199 27.708 41.3361 28.3038 38.4523 28.8758C38.1901 28.9235 37.9279 29.0188 37.6658 28.9235Z" fill="#E74214"/>
<path d="M43.1223 39.6009C42.9078 39.9345 42.7171 40.2682 42.3834 40.4827C41.7161 39.863 41.2156 39.1004 40.6674 38.3854C39.8809 37.4082 39.0944 36.4072 38.3318 35.4062C38.1649 35.1679 37.9266 35.001 37.7598 34.7865C37.9981 34.6674 38.2603 34.6197 38.5224 34.572C38.5701 34.5244 38.6178 34.429 38.6893 34.4052C38.8799 34.3337 39.0706 34.3337 39.2613 34.4052C40.0478 35.3585 40.7866 36.3357 41.5493 37.289C42.0021 37.861 42.4788 38.433 42.9078 39.005C42.9793 39.2195 43.1461 39.3625 43.1223 39.6009Z" fill="#E74214"/>
<path d="M35.2102 13.6464C35.0196 13.7656 34.7812 13.7417 34.5667 13.7417C33.9947 13.8132 33.8756 13.6702 34.1139 13.0744C35.0434 10.7387 35.9729 8.40305 36.9262 6.06738C37.0692 5.73372 37.1884 5.40005 37.3314 5.09021C37.4267 4.89955 37.4744 4.66121 37.7842 4.73271C38.0226 4.82805 38.2609 4.94722 38.3801 5.18555C38.3562 5.56689 38.1417 5.85288 37.9987 6.18655C37.0931 8.42688 36.2112 10.6911 35.3056 12.9314C35.2341 13.1459 35.1387 13.3842 35.2102 13.6464Z" fill="#E74214"/>
<path d="M11.0422 43.4859C11.2806 43.7958 11.5666 44.1056 11.9002 44.3439C12.1386 44.6538 12.4007 44.9159 12.7582 45.1066C12.9251 45.3449 13.1634 45.5118 13.4256 45.6309C13.6401 45.8693 13.9022 46.0123 14.1882 46.1791C14.3312 46.2506 14.5696 46.2268 14.5219 46.4889C12.8297 45.8454 11.2806 44.8683 9.82675 43.7958C8.89724 43.1046 7.96774 42.3658 7.20508 41.4839C7.82474 41.0311 8.53974 41.0311 9.25474 41.0549C9.58841 41.5078 9.80291 42.0559 10.2081 42.4373C10.4226 42.8186 10.7086 43.1761 11.0422 43.4859Z" fill="#E74214"/>
<path d="M28.2031 10.4529C28.9896 8.47478 29.7761 6.52045 30.5626 4.54228C30.8963 3.73195 31.2061 2.94545 31.516 2.13512C31.5636 2.01595 31.6113 1.92062 31.7305 1.84912C31.9688 1.87295 32.1833 1.94445 32.374 2.06362C32.4693 2.27812 32.3501 2.49262 32.2786 2.68329C31.1823 5.30495 30.1575 7.97428 29.085 10.596C28.9896 10.8343 28.9181 11.0726 28.6321 11.1441C28.4653 10.9535 28.2985 10.7151 28.2031 10.4529Z" fill="#E74214"/>
<path d="M47.1034 27.136C47.2464 26.9453 47.294 26.7308 47.3179 26.4925C47.4132 26.2542 47.2702 25.9443 47.5324 25.7537C47.6754 25.4438 47.7469 25.134 47.7469 24.7765C47.9137 24.5858 47.8422 24.3475 47.866 24.133C48.0567 23.8708 47.9375 23.561 47.9614 23.275C48.152 22.9652 48.0329 22.6315 48.0567 22.2978C47.9614 22.1787 47.9137 22.0118 47.9375 21.8688C47.9375 21.7497 47.9852 21.6305 48.0805 21.5352C48.2474 21.988 48.1997 22.4885 48.2474 22.9652C48.438 25.6583 48.2235 28.3277 47.5085 30.9493C47.4847 30.997 47.4609 31.0447 47.437 31.0923C46.7697 30.6872 46.3407 30.0913 46.0547 29.3763C46.1262 29.0903 46.2454 28.852 46.3645 28.5898C46.5075 28.3753 46.6029 28.1608 46.6982 27.9225C46.8174 27.6603 46.865 27.3267 47.1034 27.136Z" fill="#E74214"/>
<path d="M8.3744 19.9624C7.77856 20.3199 7.0874 20.2484 6.42006 20.3676C4.77556 20.6297 3.10723 20.8442 1.4389 21.1064C1.17673 21.1541 0.914563 21.1064 0.652396 21.2017C0.485563 21.2732 0.437896 21.1302 0.414062 20.9872C0.414062 20.7012 0.437896 20.4152 0.533229 20.1531C1.89173 20.1292 3.25023 19.8194 4.5849 19.6764C5.3714 19.5811 6.1579 19.4381 6.9444 19.3189C7.13506 19.2951 7.3019 19.2712 7.3734 19.0806C7.85006 19.2474 8.0169 19.7241 8.3744 19.9624Z" fill="#E74214"/>
<path d="M16.2155 34.4052C16.7399 34.2861 16.8352 34.5244 16.8829 35.0249C16.9544 36.2642 17.145 37.5274 17.2642 38.7668C17.3834 39.9346 17.4787 41.0786 17.5979 42.2464C17.717 43.5096 17.86 44.7727 18.003 46.0359C18.0507 46.4649 18.0984 46.9177 18.1222 47.3467C18.146 47.5851 18.1222 47.7757 17.7885 47.7519C17.6694 47.7519 17.5502 47.7281 17.4549 47.6566C17.2404 46.6318 17.2165 45.5831 17.0974 44.5344C16.8114 41.9127 16.5492 39.2911 16.287 36.6694C16.2394 35.9306 16.0487 35.1679 16.2155 34.4052Z" fill="#E74214"/>
<path d="M47.5328 25.7301C47.5328 25.9923 47.4612 26.2545 47.3182 26.469C47.2467 26.1115 46.9607 26.2306 46.7462 26.2783C43.8624 26.8265 40.9786 27.3985 38.0947 27.9943C37.8564 28.042 37.4751 27.9705 37.4274 28.3995C37.2606 28.185 37.1652 27.9228 37.0938 27.6606C37.1891 27.47 37.3559 27.47 37.5466 27.4223C40.6687 26.8026 43.7909 26.1591 46.9131 25.5395C47.1276 25.5156 47.4136 25.3726 47.5328 25.7301Z" fill="#E74214"/>
<path d="M9.85125 28.6138C8.54041 28.6138 7.25341 28.9236 5.96641 29.0905C4.56025 29.2573 3.17791 29.4956 1.77174 29.6863C1.43808 29.734 1.10441 29.7578 0.794578 29.9008C0.675411 29.591 0.603911 29.2811 0.580078 28.9475C2.96341 28.59 5.34674 28.2563 7.73008 27.9226C8.37358 27.8273 8.99325 27.732 9.63675 27.6605C9.87508 27.6366 10.0896 27.5651 10.3041 27.7558C10.1372 28.0418 9.99425 28.3278 9.85125 28.6138Z" fill="#E74214"/>
<path d="M0.222952 23.0127C0.246785 23.0604 0.246785 23.108 0.270619 23.1557C0.270619 23.4655 0.246785 23.7992 0.246785 24.109C0.246785 24.395 0.246785 24.681 0.246785 24.967C0.246785 25.0624 0.246785 25.1339 0.246785 25.2292C0.246785 25.825 0.342119 25.8965 0.937952 25.8012C2.41562 25.5867 3.86945 25.396 5.34712 25.1815C6.96779 24.9432 8.58845 24.7049 10.233 24.4665C10.6143 24.4189 11.0195 24.5142 11.3055 24.1329C11.4246 24.2759 11.52 24.4427 11.52 24.6334C11.6153 25.0624 11.3055 25.0862 11.0195 25.1339C9.85162 25.3245 8.68379 25.4675 7.53979 25.6344C5.34712 25.9204 3.17829 26.254 0.985619 26.5639C0.747285 26.5877 0.485119 26.683 0.270619 26.4924C0.103785 25.3245 0.0561188 24.1567 0.222952 23.0127Z" fill="#E74214"/>
<path d="M37.737 34.8106C38.0706 34.7629 38.1898 35.0727 38.3328 35.2634C39.6675 36.9317 40.9783 38.6239 42.2891 40.2922C42.3368 40.3399 42.3368 40.4352 42.3606 40.4829C42.2176 40.7927 42.0031 41.0311 41.7171 41.2456C40.9306 40.3399 40.2156 39.3628 39.453 38.4094C38.7856 37.5753 38.1421 36.7172 37.4748 35.8831C37.2126 35.5732 36.9743 35.2396 36.6406 35.0012C37.022 34.9059 37.3795 34.8344 37.737 34.8106Z" fill="#E74214"/>
<path d="M26.5835 44.9874C26.5596 44.9159 26.512 44.8206 26.4881 44.7491C26.3928 43.1761 26.1068 41.6031 25.9638 40.0301C25.8446 38.8146 25.7493 37.5991 25.6301 36.3836C25.5348 35.3587 25.4156 34.3577 25.3203 33.3329C25.4156 33.3329 25.511 33.3091 25.6063 33.3091C25.8923 33.3091 26.0353 33.3567 26.083 33.7142C26.2021 35.1204 26.3213 36.5266 26.512 37.9089C26.655 38.8861 26.6073 39.8871 26.941 40.8404C26.6788 42.1989 26.5596 43.5812 26.5835 44.9874Z" fill="#E74214"/>
<path d="M0.984375 30.759C3.27238 30.4254 5.56037 30.1155 7.84837 29.7819C8.37271 29.7104 8.89704 29.5912 9.42138 29.5674C9.27838 29.8772 9.15921 30.2109 9.01621 30.5207C8.77787 30.7352 8.46804 30.6637 8.20587 30.7114C6.08471 31.0212 3.96354 31.3311 1.84237 31.6171C1.62787 31.6409 1.38954 31.7601 1.22271 31.4979C1.10354 31.2596 1.00821 31.0212 0.984375 30.759Z" fill="#E74214"/>
<path d="M0.246094 26.4685C1.41393 26.3016 2.58176 26.1586 3.77343 25.9918C5.20343 25.8011 6.63343 25.5866 8.08726 25.396C9.11209 25.253 10.1608 25.11 11.1856 24.967C11.4001 24.9431 11.4954 24.824 11.5193 24.6333C11.6146 24.967 12.0436 25.253 11.6384 25.6343C10.9949 25.4436 10.3753 25.7058 9.75559 25.7773C8.32559 25.9441 6.89559 26.1825 5.44176 26.3731C4.05943 26.5638 2.67709 26.7783 1.29476 26.969C1.05643 26.9928 0.79426 26.9928 0.555927 27.0405C0.22226 27.112 0.436761 26.7545 0.269927 26.7068C0.246094 26.6115 0.246094 26.54 0.246094 26.4685Z" fill="#E74214"/>
<path d="M31.9693 13.7416C32.5174 12.7883 32.8273 11.7158 33.2324 10.7148C34.1381 8.52213 35.0199 6.30564 35.9018 4.11297C35.9733 3.94614 35.9971 3.80313 36.2116 3.7793C36.4023 3.89846 36.5691 3.9938 36.7598 4.11297C35.9494 6.18647 35.0914 8.23613 34.2573 10.2858C33.8759 11.2868 33.4708 12.264 33.0656 13.265C32.9703 13.4795 32.8988 13.694 32.7081 13.837C32.4698 13.837 32.2076 13.837 31.9693 13.837C31.9454 13.8131 31.9216 13.7893 31.9454 13.7893C31.9454 13.7416 31.9693 13.7416 31.9693 13.7416Z" fill="#E74214"/>
<path d="M8.61243 31.998C8.56477 32.1887 8.5171 32.4032 8.3741 32.57C6.39593 32.8799 4.39393 33.142 2.39193 33.428C2.20127 33.4519 2.0106 33.4519 1.84377 33.3089C1.67693 33.0229 1.55777 32.6892 1.48627 32.3555C1.9391 32.0695 2.46343 32.0933 2.98777 32.0218C4.7991 31.7835 6.5866 31.5214 8.3741 31.2592C8.5171 31.2354 8.6601 31.2115 8.8031 31.283C8.7316 31.5214 8.68393 31.7597 8.61243 31.998Z" fill="#E74214"/>
<path d="M47.104 27.1363C47.0802 27.4461 46.9372 27.7083 46.7703 27.9943C44.1963 28.4948 41.6223 29.0191 39.0483 29.5196C38.6908 29.5911 38.3095 29.6626 37.9758 29.8294C37.8805 29.5434 37.7613 29.2336 37.666 28.9476C38.7623 28.5901 39.9064 28.4709 41.0265 28.2326C42.9332 27.8274 44.8399 27.4699 46.7465 27.0886C46.8657 27.0409 46.9849 26.9694 47.104 27.1363Z" fill="#E74214"/>
<path d="M1.84375 33.3089C3.05925 33.1421 4.25092 32.9991 5.46642 32.8323C6.30058 32.7131 7.13475 32.5701 7.99275 32.4509C8.13575 32.4271 8.27875 32.4271 8.37408 32.5463C8.18342 32.9276 8.30258 33.3804 8.06425 33.7379C6.34825 33.9524 4.65608 34.1908 2.96392 34.4291C2.74942 34.4529 2.51108 34.5244 2.29658 34.3576C2.10592 34.0478 1.93908 33.6903 1.84375 33.3089Z" fill="#E74214"/>
<path d="M28.1313 40.8164C28.751 41.1977 29.0846 41.8651 29.5136 42.4132C30.6815 43.8432 31.8016 45.2971 32.9218 46.7509C33.0171 46.8701 33.0648 46.9892 33.1363 47.1084C32.8741 47.2514 32.5881 47.3706 32.2783 47.4421C30.9436 45.7261 29.5851 44.0101 28.2743 42.2941C28.1551 42.1511 28.036 42.0557 27.8691 41.9842C27.9168 41.5791 27.9883 41.1977 28.1313 40.8164Z" fill="#E74214"/>
<path d="M10.9486 5.0664C10.7579 5.11407 10.6149 5.2809 10.4004 5.25706C11.7589 4.18456 13.2842 3.37423 14.8572 2.68307C15.9536 2.2064 17.0499 1.7774 18.2416 1.53906C18.1462 2.2064 17.8126 2.7784 17.5742 3.37423C17.4551 3.66023 17.0976 3.56489 16.8592 3.66023C16.8116 3.68406 16.7401 3.68406 16.6924 3.68406C16.3111 3.68406 15.9536 3.7794 15.5961 3.80323C15.2386 3.82706 14.9049 3.94623 14.5474 3.9939C14.2852 4.01773 14.0231 4.11306 13.7847 4.18456C13.5226 4.23223 13.2842 4.27989 13.0459 4.37523C12.9029 4.42289 12.7599 4.47056 12.6169 4.51823C12.4977 4.5659 12.3786 4.61356 12.2594 4.6374C12.0687 4.68506 11.9019 4.7804 11.7112 4.82807C11.4729 4.89957 11.2584 5.1379 10.9486 5.0664Z" fill="#E74214"/>
<path d="M10.2803 27.7558C9.04094 27.9226 7.82544 28.0656 6.5861 28.2325C5.17994 28.4231 3.77377 28.6376 2.39144 28.8283C2.03394 28.876 1.6526 28.9236 1.2951 28.9951C1.03294 29.0428 0.794604 29.0666 0.580104 28.9236C0.532437 28.7091 0.508604 28.4946 0.460938 28.2801C1.84327 28.018 3.24944 27.8511 4.63177 27.6605C6.39544 27.3983 8.1591 27.1361 9.92277 26.8978C10.1849 26.874 10.4709 26.7786 10.6378 27.0885C10.6139 27.3745 10.3518 27.5175 10.2803 27.7558Z" fill="#E74214"/>
<path d="M10.6138 27.1124C10.2087 26.8503 9.80349 27.0886 9.42215 27.1363C6.56215 27.5176 3.72599 27.9704 0.865986 28.3756C0.722986 28.3994 0.579986 28.3518 0.46082 28.2803C0.413153 28.0419 0.31782 27.7798 0.341653 27.5414C0.699153 27.9943 1.15199 27.6368 1.53332 27.6129C3.24932 27.4223 4.96532 27.1601 6.68132 26.8979C7.99215 26.7073 9.30299 26.5404 10.6138 26.3498C10.7807 26.3259 10.9237 26.3736 11.0905 26.3974C10.9952 26.6596 10.8045 26.8979 10.6138 27.1124Z" fill="#E74214"/>
<path d="M4.63094 10.7388C5.0361 11.2393 5.6081 11.5014 6.13244 11.8351C8.44427 13.3604 10.7561 14.8381 13.0679 16.3396C14.2119 17.0784 15.3321 17.8173 16.4761 18.5323C16.5714 18.5799 16.6668 18.6038 16.7621 18.6514C16.6191 18.7468 16.7383 18.9851 16.5476 19.0804C16.3093 19.2234 16.1424 19.0328 15.9756 18.9374C13.5684 17.3883 11.1613 15.8153 8.7541 14.2423C7.3956 13.3604 6.06094 12.4786 4.72627 11.6206C4.55944 11.5253 4.36877 11.4299 4.27344 11.2393C4.3211 11.0486 4.48794 10.8818 4.63094 10.7388Z" fill="#E74214"/>
<path d="M28.6562 11.144C29.2521 10.1668 29.5619 9.07048 29.9909 8.02181C30.8251 6.04364 31.6116 4.04164 32.3981 2.06348C32.6841 2.15881 33.0178 2.18264 33.2561 2.37331C32.8033 2.87381 32.6603 3.49348 32.4219 4.08931C31.4686 6.42498 30.5391 8.76064 29.6096 11.0725C29.4904 11.3585 29.4666 11.7636 29.0376 11.8113C28.9184 11.5968 28.7754 11.3823 28.6562 11.144Z" fill="#E74214"/>
<path d="M29.0371 11.8112C29.6091 11.12 29.7759 10.262 30.1096 9.45171C31.0391 7.21137 31.9209 4.94721 32.8266 2.68304C32.8981 2.49238 33.0173 2.34937 33.2556 2.3732C33.3986 2.5162 33.6608 2.39704 33.7799 2.5877C33.5416 2.5877 33.4463 2.77837 33.3748 2.96904C32.1831 5.9482 30.9914 8.92737 29.7998 11.8827C29.7044 12.1449 29.5853 12.407 29.4899 12.6692C29.3469 12.3832 29.1801 12.0972 29.0371 11.8112Z" fill="#E74214"/>
<path d="M29.2036 1.20545C28.8461 1.15779 28.7031 1.37229 28.5839 1.65829C27.8451 3.51729 27.1063 5.35246 26.3674 7.21146C26.2721 7.42596 26.1768 7.64045 26.0576 7.83112C25.8908 7.75962 25.8193 7.54512 25.6286 7.52129C25.6286 7.28295 25.3903 7.18762 25.2949 6.99695C25.4141 6.44878 25.6763 5.97212 25.8669 5.44778C26.3913 4.11312 26.9156 2.77845 27.4876 1.46762C27.5591 1.27695 27.5591 0.990955 27.8689 0.990955C28.3694 0.967121 28.7746 1.06245 29.2036 1.20545Z" fill="#E74214"/>
<path d="M8.80361 31.2831C7.80261 31.6167 6.73011 31.6406 5.68144 31.8074C4.48978 31.9981 3.27428 32.1649 2.08261 32.3317C1.89194 32.3556 1.70128 32.3556 1.51061 32.3556C1.34378 32.0934 1.27228 31.7836 1.22461 31.4976C2.01111 31.5214 2.74994 31.3307 3.51261 31.2354C4.91878 31.0686 6.30111 30.8302 7.70728 30.6396C8.13628 30.5681 8.58911 30.4966 9.01811 30.5442C9.01811 30.8064 8.89894 31.0447 8.80361 31.2831Z" fill="#E74214"/>
<path d="M15.2378 46.8225C14.9756 46.7986 14.7611 46.6556 14.5704 46.5126C14.1653 42.6993 13.8078 38.8621 13.3788 35.0488C13.3311 34.7151 13.2834 34.3814 13.5218 34.0716C13.6886 34.0001 13.8316 34.1193 13.9508 34.2146C14.1653 34.3099 14.1891 34.5006 14.2129 34.7151C14.4274 37.313 14.7373 39.887 14.9756 42.4848C15.0948 43.6765 15.2139 44.8443 15.3569 46.0359C15.4046 46.2743 15.4523 46.5841 15.2378 46.8225Z" fill="#E74214"/>
<path d="M46.4591 28.6141C46.3399 28.8763 46.2446 29.1146 46.1254 29.3768C46.0539 29.4959 46.0301 29.6628 45.8394 29.6866C43.5991 30.0918 41.3587 30.5446 39.1184 30.9736C38.7847 31.0451 38.5702 31.2119 38.3557 31.4264C38.2366 31.1404 38.1651 30.8544 38.1412 30.5446C37.9982 30.1871 38.2127 30.0441 38.4987 29.9726C38.8801 29.8773 39.2614 29.8058 39.6427 29.7343C41.6447 29.3529 43.6467 28.9478 45.6487 28.5664C45.9586 28.5188 46.2207 28.3996 46.4591 28.6141Z" fill="#E74214"/>
<path d="M35.2098 13.6463C34.757 13.5271 35.0668 13.2173 35.1145 13.0505C35.7103 11.5251 36.3061 10.0236 36.9258 8.52212C37.4025 7.40196 37.7123 6.21029 38.3796 5.16162C38.5941 5.30462 38.8086 5.44762 39.0231 5.59062C38.1175 7.87862 37.188 10.1905 36.2585 12.4785C36.1155 12.8121 36.044 13.1935 35.8056 13.5033C35.6388 13.6225 35.4243 13.6463 35.2098 13.6463Z" fill="#E74214"/>
<path d="M15.5713 3.68404C15.9526 3.63637 16.3578 3.5172 16.7391 3.5887C16.8106 3.85087 17.0489 3.97004 17.2396 4.11304C19.2416 5.44771 21.2674 6.71087 23.2694 8.04554C23.4601 8.16471 23.6746 8.26004 23.7938 8.49837C23.6508 8.7367 23.3648 8.78437 23.1503 8.92737C23.0073 9.04654 22.8881 8.9512 22.7689 8.85587C20.4094 7.3067 18.0499 5.80521 15.7143 4.23221C15.5951 4.13687 14.9754 4.04154 15.5713 3.68404Z" fill="#E74214"/>
<path d="M37.7846 4.73268C37.2603 5.16168 37.1888 5.85285 36.9505 6.40102C35.9971 8.64135 35.1391 10.9293 34.2096 13.1935C34.0428 13.5987 34.1381 13.7655 34.5671 13.7417C34.1858 13.8847 33.7806 13.837 33.3755 13.837C33.2086 13.6464 33.2801 13.4319 33.3755 13.2412C34.4718 10.5719 35.5205 7.85485 36.6168 5.18552C36.736 4.89952 36.7598 4.47052 37.2365 4.42285C37.4748 4.42285 37.6416 4.56585 37.7846 4.73268Z" fill="#E74214"/>
<path d="M16.3339 19.8431C14.5464 18.6752 12.7589 17.5312 10.9476 16.3634C8.77878 14.9572 6.58611 13.5511 4.41728 12.1211C4.25045 12.0019 4.01211 11.9542 3.98828 11.6921C4.03595 11.5729 4.08361 11.4299 4.20278 11.3584C5.17995 11.8589 6.08561 12.5262 6.99128 13.1221C9.97045 15.0526 12.9496 17.0069 15.9526 18.9374C16.1671 19.0804 16.3816 19.1996 16.5246 19.4141C16.5246 19.5809 16.4054 19.7001 16.3339 19.8431Z" fill="#E74214"/>
<path d="M12.974 4.30385C13.2123 4.16085 13.4507 4.08936 13.7367 4.08936C14.9522 4.85202 16.1677 5.66235 17.3593 6.42502C18.8608 7.40219 20.3623 8.40319 21.8877 9.35652C22.0068 9.42802 22.126 9.52335 22.1975 9.64252C22.126 9.90469 21.84 9.90469 21.697 10.0715C21.5063 10.1907 21.3633 10.0477 21.2203 9.95236C18.5987 8.26019 16.0008 6.54418 13.3792 4.85202C13.1647 4.75668 12.831 4.66135 12.974 4.30385Z" fill="#E74214"/>
<path d="M27.9168 0.990616C27.2256 2.32528 26.7728 3.75528 26.1769 5.13761C25.9148 5.75728 25.7956 6.44844 25.3189 6.99661C25.0329 6.71061 24.7469 6.42462 24.4609 6.13862C25.2236 4.58945 25.7718 2.92112 26.4629 1.34812C26.5821 1.08595 26.6298 0.728451 27.0826 0.895284C27.3448 0.871451 27.6546 0.847616 27.9168 0.990616Z" fill="#E74214"/>
<path d="M19.0988 34.2861C19.1703 35.6685 19.361 37.0508 19.504 38.457C19.647 39.6486 19.7185 40.8403 19.8615 42.032C19.9806 43.2713 20.1475 44.4868 20.2666 45.7023C20.362 46.608 20.4335 47.4898 20.505 48.3955C20.362 48.3955 20.1951 48.4193 20.076 48.324C19.6946 47.7281 19.79 47.0131 19.7185 46.3458C19.3133 42.604 18.9558 38.8383 18.5506 35.0965C18.5268 34.8343 18.5268 34.5483 18.2646 34.3815C18.0025 34.3815 17.7641 34.3576 17.502 34.3576C18.0263 34.2623 18.5506 34.31 19.0988 34.2861Z" fill="#E74214"/>
<path d="M27.0593 0.871996C26.7257 0.824329 26.7019 1.08649 26.6065 1.30099C26.0107 2.77866 25.4149 4.25633 24.819 5.75783C24.7475 5.9485 24.6999 6.13916 24.4615 6.13916C24.1755 5.92466 23.8895 5.71016 23.6035 5.49566C23.675 5.01899 23.9134 4.58999 24.104 4.16099C24.5569 3.04083 24.962 1.873 25.5102 0.776664C25.5578 0.752831 25.6055 0.752831 25.6532 0.776664C26.1299 0.776664 26.6065 0.728996 27.0593 0.871996Z" fill="#E74214"/>
<path d="M18.2402 34.4054C18.5024 34.3577 18.6454 34.4292 18.6692 34.7629C18.8599 36.7887 19.0982 38.7908 19.2889 40.8166C19.4557 42.3896 19.5749 43.9864 19.7179 45.5594C19.8132 46.4889 19.9324 47.4184 20.0277 48.3479C19.8847 48.3241 19.7417 48.3241 19.5987 48.3002C19.5034 47.3469 19.3842 46.3936 19.2889 45.4641C19.1459 44.2248 19.0029 42.9616 18.8837 41.7222C18.7884 40.6736 18.6454 39.6011 18.5739 38.5524C18.4786 37.1463 18.2402 35.7877 18.2402 34.4054Z" fill="#E74214"/>
<path d="M15.5702 3.68408C15.3081 3.87475 15.4987 3.94625 15.6656 4.04158C17.1909 5.01875 18.7162 6.01975 20.2177 6.99691C21.1949 7.64041 22.1721 8.26008 23.1731 8.90358C23.0539 9.11808 22.8394 9.18959 22.6487 9.33259C22.3389 9.38025 22.1482 9.18958 21.9337 9.04658C19.5981 7.52125 17.2386 5.99592 14.9029 4.47059C14.7122 4.35142 14.3786 4.25608 14.4977 3.89858C14.8314 3.77941 15.1889 3.70792 15.5702 3.68408Z" fill="#E74214"/>
<path d="M16.2142 34.4052C16.4287 34.8818 16.3572 35.3823 16.4049 35.859C16.6671 37.9325 16.8577 40.006 17.0484 42.0557C17.2152 43.6287 17.3582 45.2255 17.4774 46.7985C17.5012 47.0845 17.7634 47.3705 17.4774 47.6565C17.2391 47.6804 17.0246 47.5612 16.8339 47.442C16.9531 46.3933 16.7386 45.3685 16.6432 44.3437C16.3334 41.1738 15.9997 38.0278 15.6899 34.8818C15.6661 34.715 15.6422 34.5243 15.7852 34.3813C15.9282 34.4052 16.0712 34.4052 16.2142 34.4052Z" fill="#E74214"/>
<path d="M46.4597 28.6138C45.268 28.8283 44.1002 29.0428 42.9085 29.2811C41.4785 29.5433 40.0723 29.8531 38.6423 30.1153C38.3802 30.163 38.1657 30.2345 38.1657 30.5682C38.0465 30.3298 37.975 30.0915 37.9512 29.8293C37.975 29.591 38.1657 29.5195 38.3563 29.4957C41.0257 28.9713 43.695 28.447 46.3643 27.9227C46.5073 27.8988 46.6503 27.8511 46.7457 27.9941C46.7218 28.2086 46.6265 28.4231 46.4597 28.6138Z" fill="#E74214"/>
<path d="M38.3797 31.4264C38.332 31.0689 38.5465 30.9259 38.8563 30.8544C41.0252 30.4254 43.194 29.9964 45.3867 29.5912C45.5535 29.5674 45.7442 29.5912 45.911 29.5674C46.0302 29.9487 45.6965 30.1155 45.5535 30.3777C45.4343 30.5207 45.3152 30.6876 45.0768 30.6876C43.8375 30.8067 42.622 31.1165 41.4065 31.331C40.6677 31.474 39.9527 31.6409 39.2138 31.7839C38.9517 31.8315 38.7133 31.9507 38.475 32.0699C38.3797 31.8792 38.4035 31.6409 38.3797 31.4264Z" fill="#E74214"/>
<path d="M43.1223 39.6007C41.9545 38.0992 40.7867 36.6215 39.6427 35.12C39.4997 34.9294 39.309 34.7387 39.2852 34.4765C39.5235 34.1429 39.8572 34.0952 40.2147 34.0952C40.9535 34.8579 41.5732 35.7397 42.2405 36.5739C42.6933 37.122 43.1223 37.694 43.5513 38.266C43.6467 38.409 43.8135 38.5282 43.7897 38.7189C43.5752 39.0764 43.4083 39.3862 43.1223 39.6007Z" fill="#E74214"/>
<path d="M10.9473 5.06667C11.1856 4.94751 11.4239 4.8045 11.6861 4.75684C11.8291 4.9475 12.0198 5.06667 12.2104 5.18584C14.9274 6.94951 17.6683 8.737 20.3853 10.5007C20.5759 10.6198 20.7904 10.739 20.9096 10.9535C20.7904 11.0965 20.6713 11.2395 20.5521 11.3825C19.1221 10.453 17.6921 9.54734 16.2621 8.61784C14.5699 7.52151 12.9016 6.42517 11.2094 5.32883C11.1141 5.2335 10.9949 5.18584 10.9473 5.06667Z" fill="#E74214"/>
<path d="M15.7863 34.3815C15.9532 35.9783 16.1438 37.5751 16.3107 39.172C16.4775 40.745 16.5967 42.3418 16.7397 43.9148C16.835 44.9158 16.9542 45.9168 17.0495 46.9178C17.0733 47.1085 17.1687 47.3706 16.835 47.4421C16.7635 47.4421 16.6682 47.4421 16.6205 47.3706C16.406 46.9893 16.406 46.5603 16.3583 46.1313C15.977 42.461 15.6195 38.7668 15.2143 35.0965C15.1905 34.8105 15.119 34.5245 15.3335 34.2861C15.4765 34.2861 15.6195 34.2861 15.7625 34.31C15.7863 34.3338 15.7863 34.3576 15.7863 34.3815Z" fill="#E74214"/>
<path d="M36.6627 35.0249C36.8533 35.0249 37.0202 35.0726 37.1393 35.2156C38.5932 37.0746 40.0708 38.9574 41.5247 40.8164C41.62 40.9356 41.7392 41.0547 41.7392 41.2454C41.62 41.4122 41.5247 41.6029 41.3102 41.6506C39.618 39.6009 37.9735 37.4797 36.3528 35.3586C36.2337 35.2156 36.1145 35.0964 35.9238 35.1202C36.1622 35.0249 36.4005 35.0249 36.6627 35.0249Z" fill="#E74214"/>
<path d="M40.2157 6.56782C40.0012 6.56782 39.9058 6.73465 39.8343 6.90148C39.0717 8.78432 38.309 10.6672 37.5463 12.5738C37.4987 12.693 37.3318 12.8598 37.5225 13.0028C37.2365 13.2173 36.879 13.2173 36.5453 13.3126C36.1878 13.1696 36.4262 12.9313 36.4977 12.7645C36.9505 11.5967 37.4272 10.4288 37.9038 9.26098C38.2852 8.30765 38.6665 7.35432 39.0717 6.40098C39.1432 6.21032 39.167 5.97198 39.4292 5.92432C39.739 6.09115 40.0012 6.30565 40.2157 6.56782Z" fill="#E74214"/>
<path d="M20.9352 10.9531C20.6015 10.8816 20.3632 10.6194 20.0772 10.4526C17.384 8.71273 14.6908 6.94907 12.0215 5.1854C11.8785 5.09007 11.5448 5.06623 11.7117 4.73256C11.8785 4.63723 12.0453 4.5419 12.2598 4.51807C15.0245 6.4009 17.8607 8.16457 20.6492 10.0236C20.8875 10.1666 21.1735 10.2857 21.2212 10.6194C21.1973 10.7862 21.0543 10.8816 20.9352 10.9531Z" fill="#E74214"/>
<path d="M2.29688 34.3812C3.98904 34.1429 5.68121 33.9046 7.37337 33.6662C7.61171 33.6424 7.87387 33.5471 8.08837 33.7616C8.04071 34.0714 8.01687 34.4051 7.96921 34.7149C7.80237 34.8817 7.58787 34.8817 7.37337 34.9055C6.06254 35.0962 4.72788 35.3107 3.41704 35.4537C3.20254 35.4776 2.98804 35.5014 2.79738 35.3584C2.55904 35.0724 2.41604 34.7387 2.29688 34.3812Z" fill="#E74214"/>
<path d="M23.7932 8.47463C22.3632 7.56897 20.9571 6.63946 19.5271 5.7338C18.6214 5.1618 17.7396 4.56597 16.8577 3.97013C16.7147 3.8748 16.4764 3.77946 16.7386 3.56496C16.7862 3.56496 16.8101 3.54113 16.8577 3.54113C17.0961 3.5173 17.3582 3.4458 17.5966 3.56496C17.9064 4.04163 18.4307 4.20846 18.8836 4.49446C20.5042 5.56696 22.1249 6.61563 23.7456 7.6643C23.9601 7.8073 24.1507 7.9503 24.2699 8.18863C24.1507 8.40313 23.9124 8.35547 23.7932 8.47463Z" fill="#E74214"/>
<path d="M14.499 3.89859C14.5705 4.16076 14.8088 4.27993 14.9995 4.39909C17.4782 6.01976 19.9807 7.6166 22.4593 9.21343C22.507 9.2611 22.5785 9.28493 22.6262 9.3326C22.5547 9.52326 22.3163 9.52326 22.1972 9.66626C21.0293 9.07043 19.9807 8.2601 18.8843 7.56893C17.3352 6.59176 15.786 5.56693 14.2368 4.56593C14.0462 4.44676 13.8555 4.30376 13.7363 4.08926C13.9747 3.99393 14.213 3.87476 14.499 3.89859Z" fill="#E74214"/>
<path d="M3.6563 12.2163C4.75264 13.0743 5.96814 13.7416 7.11214 14.5281C8.54214 15.5053 10.0198 16.4348 11.4975 17.3881C13.0466 18.3891 14.5958 19.3901 16.145 20.415C16.0973 20.5103 16.0496 20.6295 16.002 20.7248C15.7636 20.8678 15.5968 20.6771 15.43 20.558C12.9513 18.9135 10.4726 17.2928 7.97014 15.696C6.5878 14.8141 5.2293 13.9085 3.84697 13.0028C3.6563 12.8836 3.48947 12.7883 3.41797 12.55C3.46564 12.407 3.53714 12.2878 3.6563 12.2163Z" fill="#E74214"/>
<path d="M37.2354 4.42262C36.6634 4.97079 36.5442 5.73345 36.2582 6.40079C35.3049 8.68879 34.3992 11.0006 33.4459 13.3125C33.3744 13.4793 33.3267 13.6461 33.3505 13.8368C33.136 13.8368 32.9215 13.8368 32.707 13.8368C33.708 11.3581 34.6852 8.87945 35.6862 6.40079C35.9484 5.78112 36.2105 5.16146 36.4489 4.51796C36.5204 4.35112 36.6157 4.20813 36.7587 4.11279C36.9255 4.20813 37.0685 4.30346 37.2354 4.42262Z" fill="#E74214"/>
<path d="M48.0555 21.8693C48.0555 22.0123 48.0555 22.1553 48.0555 22.2983C44.5282 22.9894 41.0009 23.6806 37.4735 24.3718C36.9969 24.4671 36.544 24.5624 36.0674 24.6578C35.8767 24.7054 35.6622 24.7293 35.6384 24.9676C35.5192 24.8008 35.3047 24.6816 35.3047 24.4433C35.4239 24.1811 35.686 24.1334 35.9244 24.0858C39.7854 23.3708 43.6464 22.5366 47.5074 21.8216C47.6742 21.7739 47.8649 21.7263 48.0555 21.8693Z" fill="#E74214"/>
<path d="M48.0571 21.8689C44.5298 22.5601 41.0025 23.2513 37.4751 23.9663C36.7363 24.1093 35.9975 24.1331 35.3063 24.4429C35.1871 24.3714 35.1395 24.2523 35.0918 24.1331C35.4493 23.7756 35.9498 23.8471 36.3788 23.7518C40.2636 22.9653 44.1723 22.2026 48.0571 21.4399C48.081 21.4638 48.081 21.5114 48.081 21.5353C48.0571 21.6544 48.0571 21.7498 48.0571 21.8689Z" fill="#E74214"/>
<path d="M3.44104 12.5503C5.96737 14.1948 8.4937 15.8631 11.02 17.5076C12.5692 18.5086 14.1184 19.5335 15.6675 20.5345C15.7629 20.606 15.8582 20.7013 16.0012 20.7013C16.025 20.8443 15.9297 20.9158 15.882 21.0111C15.4054 20.7251 14.9287 20.463 14.4759 20.1531C11.5682 18.2703 8.68437 16.3636 5.7767 14.4808C5.10937 14.0518 4.44204 13.6228 3.7747 13.17C3.60787 13.0508 3.36954 12.9793 3.3457 12.7171C3.36954 12.6695 3.39337 12.6218 3.44104 12.5503Z" fill="#E74214"/>
<path d="M39.4531 5.92458C38.476 8.30791 37.4988 10.6912 36.5216 13.0746C36.474 13.1699 36.474 13.2414 36.5693 13.3129C36.331 13.4559 36.0688 13.4797 35.8066 13.5274C35.8543 12.8124 36.2356 12.2166 36.474 11.5731C37.1651 9.76175 37.904 7.97424 38.619 6.18674C38.7143 5.97224 38.762 5.73391 39.0003 5.61475C39.2148 5.66241 39.334 5.78158 39.4531 5.92458Z" fill="#E74214"/>
<path d="M43.7656 38.7426C42.6216 37.2888 41.4538 35.8349 40.3098 34.3811C40.2621 34.3334 40.2621 34.2381 40.2383 34.1904C40.4528 33.9044 40.7388 33.8329 41.0724 33.8091C41.6921 34.3572 42.1211 35.0723 42.6216 35.6919C43.2174 36.4308 43.8133 37.1458 44.3376 37.9323C44.1946 38.2421 44.0278 38.5281 43.7656 38.7426Z" fill="#E74214"/>
<path d="M15.3568 34.2861C15.4283 35.6446 15.619 37.0031 15.762 38.3377C15.8811 39.5294 15.9765 40.7211 16.1195 41.9366C16.2386 43.1997 16.4055 44.4629 16.5246 45.7261C16.5723 46.2742 16.7153 46.8224 16.6438 47.3706C16.4055 47.3467 16.191 47.2752 16.0003 47.1322C16.1671 46.5841 16.0003 46.0359 15.9288 45.4877C15.619 42.5324 15.333 39.5771 15.0231 36.6217C14.9516 35.8591 14.7371 35.0726 14.8801 34.2861C14.9755 34.2146 15.047 34.2146 15.1423 34.2622C15.2138 34.2861 15.2853 34.2861 15.3568 34.2861Z" fill="#E74214"/>
<path d="M13.5212 34.0476C13.5212 35.5252 13.7834 37.0029 13.9264 38.4806C14.0455 39.6961 14.1409 40.9116 14.26 42.1271C14.3792 43.3664 14.546 44.6057 14.6652 45.8689C14.689 46.0834 14.7844 46.3217 14.546 46.5124H14.4984L14.4507 46.4886C14.3315 46.3932 14.2362 46.2741 14.117 46.1787C14.403 45.5591 14.0932 44.9394 14.0694 44.3197C14.0455 43.4379 13.9025 42.5561 13.8072 41.6742C13.6642 40.3872 13.5212 39.1002 13.402 37.8371C13.2829 36.5501 13.1637 35.2631 13.0684 33.9761C13.2352 33.9999 13.3782 34.0237 13.5212 34.0476Z" fill="#E74214"/>
<path d="M38.5004 32.0695C38.5242 31.855 38.6434 31.7597 38.8817 31.712C40.8122 31.3307 42.7189 30.9494 44.6256 30.568C44.8162 30.5204 45.0069 30.4727 45.1737 30.6634C45.2214 30.8779 45.1022 31.0209 44.9831 31.1639C44.7924 31.3545 44.6256 31.5929 44.2919 31.569C43.6722 31.5452 43.1002 31.7359 42.5044 31.855C41.4319 32.0457 40.3832 32.284 39.3107 32.4747C38.9056 32.5462 38.7626 32.7607 38.7387 33.1659C38.7387 33.6187 38.8579 34.0954 38.5957 34.5244C38.5481 34.5482 38.5242 34.5959 38.4766 34.6197C38.5957 33.7617 38.5242 32.9037 38.5004 32.0695Z" fill="#E74214"/>
<path d="M2.77344 35.3583C4.22727 35.1677 5.70494 34.977 7.15877 34.7625C7.42094 34.7148 7.6831 34.7148 7.94527 34.7148C7.94527 35.3583 7.94527 36.0018 7.94527 36.6453C7.77844 36.6453 7.7546 36.5262 7.73077 36.407C7.65927 35.8112 7.63544 35.7873 7.0396 35.8827C6.01477 36.0257 4.98994 36.1687 3.9651 36.3117C3.72677 36.3355 3.4646 36.407 3.2501 36.2163C3.01177 35.9542 2.8926 35.6682 2.77344 35.3583Z" fill="#E74214"/>
<path d="M44.3394 37.9326C43.7674 37.5036 43.4337 36.884 42.9809 36.3358C42.3374 35.5255 41.6462 34.739 41.0742 33.881C41.2649 33.5473 41.5747 33.4281 41.9322 33.4043C42.9571 34.596 43.9104 35.8353 44.8637 37.0985C44.7446 37.4083 44.5539 37.6705 44.3394 37.9326Z" fill="#E74214"/>
<path d="M14.9281 34.3099C15.0711 35.6684 15.2141 37.0508 15.3571 38.4093C15.5239 39.9585 15.6908 41.4838 15.8576 43.0329C15.9768 44.2484 16.0959 45.4639 16.2151 46.6794C16.2389 46.8463 16.3104 47.0846 16.0006 47.1323C15.9053 47.1323 15.8338 47.1084 15.7623 47.0369C15.5239 44.8443 15.3094 42.6516 15.0949 40.4828C14.9043 38.6238 14.7136 36.7409 14.4991 34.8819C14.4753 34.6674 14.4753 34.4529 14.6659 34.3099C14.7374 34.2384 14.8328 34.2146 14.9281 34.3099Z" fill="#E74214"/>
<path d="M15.2382 46.8225C15.1905 45.4164 14.976 44.0579 14.833 42.6755C14.7377 41.8652 14.6662 41.0549 14.5947 40.2445C14.4517 38.9337 14.3087 37.6229 14.1895 36.312C14.118 35.6209 14.118 34.9059 13.9512 34.2147C14.0942 34.167 14.2372 34.1194 14.3802 34.2147C14.5708 34.5722 14.547 34.9774 14.5708 35.3587C14.69 36.9317 14.8807 38.5047 15.0475 40.0539C15.2382 41.9605 15.405 43.8672 15.6672 45.75C15.7148 46.036 15.6672 46.322 15.691 46.608C15.691 46.751 15.691 46.9417 15.4527 46.9417C15.3573 46.9179 15.2858 46.894 15.2382 46.8225Z" fill="#E74214"/>
<path d="M44.8632 37.0745C44.1244 36.5501 43.7192 35.7398 43.1472 35.0725C42.7182 34.5481 42.2415 34.0476 41.9317 33.428C42.1462 33.0943 42.4084 32.8798 42.8135 32.856C43.5285 33.8331 44.2912 34.7626 45.0539 35.716C45.1969 35.9066 45.3875 36.0496 45.2922 36.3118C45.1969 36.6216 45.0539 36.86 44.8632 37.0745Z" fill="#E74214"/>
<path d="M19.4088 24.9672C19.3611 24.7765 19.3611 24.6097 19.4088 24.4429C19.671 24.2999 19.814 24.4905 19.957 24.6335C22.102 26.3972 25.1765 26.0397 26.7971 23.3465C27.1308 22.7984 27.2738 22.131 27.3215 21.4637C27.3453 21.273 27.2261 20.987 27.5598 20.9155C27.7505 21.0109 27.8935 21.1539 28.0126 21.3445C27.8458 21.9642 27.7743 22.6315 27.5121 23.2512C26.9401 24.6097 25.9868 25.4915 24.6283 26.0159C22.9838 26.6594 21.4108 26.421 19.9331 25.4915C19.7425 25.3247 19.5756 25.1579 19.4088 24.9672Z" fill="#E74214"/>
<path d="M16.525 19.4142C16.1675 19.1997 15.7861 19.009 15.4286 18.7707C12.521 16.8879 9.63713 14.9812 6.72946 13.0983C5.96679 12.5978 5.20413 12.0974 4.46529 11.6207C4.36996 11.5492 4.25079 11.5015 4.20312 11.3585C4.22696 11.3347 4.25079 11.287 4.27463 11.2632C5.25179 11.7399 6.10979 12.3833 7.01546 12.9792C10.09 14.9812 13.1883 16.9832 16.2628 18.9852C16.3581 19.0328 16.4535 19.0567 16.5488 19.1043C16.525 19.1997 16.525 19.295 16.525 19.4142Z" fill="#E74214"/>
<path d="M27.583 20.8918C27.3924 21.4877 27.4162 22.1312 27.2017 22.7508C26.8442 23.9187 26.0339 24.7052 25.0567 25.2772C23.3169 26.302 20.9812 25.8492 19.7419 24.586C19.6465 24.4907 19.5512 24.4192 19.4082 24.4192C19.4082 24.2523 19.432 24.0617 19.432 23.8948C19.718 23.8472 19.8372 24.0855 20.004 24.2285C20.5999 24.7528 21.2434 25.1818 22.0775 25.2772C24.723 25.5632 26.4152 24.2523 26.9395 21.8928C26.9872 21.6307 26.9872 21.3685 27.011 21.1063C27.0349 20.9395 26.9872 20.7012 27.2732 20.7012C27.4162 20.7012 27.5115 20.7727 27.583 20.8918Z" fill="#E74214"/>
<path d="M28.2265 21.6304C28.4887 21.678 28.5602 21.8925 28.6555 22.0832C28.2027 24.109 27.1302 25.682 25.1758 26.54C23.436 27.3027 21.7438 27.1835 20.0755 26.3255C19.8372 26.2064 19.6703 26.0395 19.5273 25.825C19.5273 25.396 19.575 25.3722 19.9563 25.5867C20.5998 25.9442 21.2433 26.254 21.9822 26.3732C24.7468 26.7545 27.3685 25.1339 27.9643 22.2262C28.012 22.0117 27.9882 21.7734 28.2265 21.6304Z" fill="#E74214"/>
<path d="M25.6767 0.776435C25.6291 0.776435 25.5814 0.800263 25.5576 0.800263C25.2477 1.01476 24.9141 0.919431 24.5804 0.943264C23.7939 0.919431 23.7939 0.919431 23.5079 1.65826C23.1981 2.44476 22.8882 3.2551 22.5546 4.0416C22.4592 4.27993 22.3877 4.56593 22.0302 4.5421C21.7681 4.4706 21.5059 4.3991 21.2676 4.23227C21.7204 3.08827 22.1494 1.92043 22.6737 0.800263C23.6509 0.681096 24.6519 0.609602 25.6767 0.776435Z" fill="#E74214"/>
<path d="M25.9627 20.0337C26.0819 20.0337 26.201 20.0337 26.2725 20.1529C26.8684 20.9394 26.6777 21.8212 26.344 22.6077C25.1524 25.42 22.0302 25.5392 20.2427 24.0377C19.9567 23.7994 19.7422 23.5372 19.623 23.1797C19.6707 23.0367 19.6707 22.846 19.7899 22.7269C20.0759 22.6792 20.1474 22.9175 20.2427 23.0844C21.053 24.1807 22.4592 24.6574 23.7462 24.2522C24.9855 23.8709 25.9389 22.5839 25.9627 21.273C25.9627 21.0347 25.8912 20.8202 25.8435 20.5819C25.8674 20.3912 25.7959 20.2005 25.9627 20.0337Z" fill="#E74214"/>
<path d="M12.973 4.30371C13.0445 4.73271 13.4496 4.80421 13.7356 4.99488C16.0475 6.52021 18.3831 8.02171 20.695 9.52321C21.0286 9.73771 21.3623 9.92838 21.696 10.119C21.6006 10.2144 21.5291 10.3335 21.4338 10.4289C21.267 10.4527 21.124 10.3574 21.0048 10.262C18.3116 8.47454 15.5946 6.78237 12.9253 4.97104C12.7346 4.85187 12.4248 4.78038 12.5678 4.42288C12.687 4.35138 12.83 4.30371 12.973 4.30371Z" fill="#E74214"/>
<path d="M45.2912 36.3597C45.0528 35.7877 44.5523 35.3826 44.1948 34.8821C43.7897 34.3101 43.313 33.7857 42.884 33.2137C42.8363 33.1422 42.8363 33.0231 42.8125 32.9039C42.9078 32.5941 43.1462 32.4511 43.456 32.4272C44.0757 32.9992 44.5285 33.7381 45.0767 34.3816C45.2435 34.5722 45.4103 34.8106 45.5772 35.0012C45.7202 35.1681 45.8393 35.3349 45.7202 35.5732C45.601 35.8592 45.458 36.1214 45.2912 36.3597Z" fill="#E74214"/>
<path d="M3.22656 36.2168C4.44206 36.05 5.63373 35.907 6.84923 35.7401C6.87306 35.7401 6.92073 35.7163 6.94456 35.7163C7.85023 35.5256 7.85023 35.5256 7.85023 36.4313C7.7549 36.5266 7.63573 36.5505 7.51656 36.5743C6.3964 36.7411 5.2524 36.9318 4.13223 37.051C3.9654 37.0748 3.8224 37.0748 3.6794 36.9795C3.4649 36.7411 3.3219 36.479 3.22656 36.2168Z" fill="#E74214"/>
<path d="M19.957 27.1122C19.814 26.9692 19.7425 26.8023 19.7425 26.6117C19.7187 26.3733 19.8855 26.421 20.0285 26.3972C20.1477 26.421 20.243 26.4687 20.3384 26.5163C21.7684 27.2075 23.246 27.3505 24.7475 26.7785C24.7952 26.7547 24.8429 26.7308 24.8905 26.7308C25.3434 26.5878 25.7724 26.3733 26.1537 26.0873C27.2262 25.2293 28.108 24.2283 28.4655 22.8698C28.5132 22.6792 28.5132 22.417 28.823 22.417C28.8945 22.56 28.966 22.703 29.0375 22.846C28.537 25.2293 26.1537 27.3267 23.7704 27.6127C22.5787 27.7557 21.4585 27.6127 20.3622 27.1837C20.243 27.1122 20.1 27.0407 19.957 27.1122Z" fill="#E74214"/>
<path d="M45.6958 35.5729C45.529 34.9533 45.0046 34.5719 44.6471 34.0714C44.2658 33.5232 43.8368 32.9989 43.4316 32.4746C43.527 32.0694 43.8606 31.8787 44.1943 31.7119C44.7901 32.5699 45.4336 33.3802 46.1248 34.1906C46.1725 34.2621 46.2201 34.3336 46.244 34.4289C46.0771 34.8102 45.958 35.2154 45.6958 35.5729Z" fill="#E74214"/>
<path d="M25.9631 20.0336C25.9631 20.6295 26.2014 21.1776 26.1061 21.7973C25.9154 22.9413 24.6761 24.2521 23.5559 24.419C22.0306 24.6811 20.8389 24.1806 20.0286 22.8698C19.9809 22.7983 19.8856 22.7506 19.8379 22.703C19.8856 22.6315 19.9094 22.56 19.9571 22.4885C20.2907 22.3216 20.4099 22.6315 20.5291 22.8221C21.0296 23.4895 21.6969 23.8946 22.5311 23.99C24.1994 24.2045 25.5817 22.7506 25.6056 21.4636C25.6056 21.0823 25.6294 20.6771 25.5102 20.2958C25.4626 20.1528 25.4149 20.0098 25.5341 19.8906C25.7009 19.9145 25.8439 19.9145 25.9631 20.0336Z" fill="#E74214"/>
<path d="M22.6509 0.800099C22.5556 1.5866 22.1504 2.25393 21.8644 2.96893C21.6976 3.39793 21.6499 3.89844 21.2447 4.20827C20.9111 4.13677 20.5774 4.06527 20.2676 3.89843C20.7442 3.2311 20.9349 2.42077 21.2686 1.68194C21.3877 1.41977 21.4354 1.10994 21.6976 0.895438C21.9836 0.800105 22.3172 0.776266 22.6509 0.800099Z" fill="#E74214"/>
<path d="M46.2455 34.4049C45.4352 33.5946 44.6487 32.7843 44.1959 31.7356C44.1482 31.5449 44.2435 31.4973 44.4104 31.4973C44.6487 31.4258 44.744 31.1636 44.9347 31.0444C45.5067 31.8071 46.1502 32.5459 46.6745 33.3324C46.603 33.7138 46.46 34.0713 46.2455 34.4049Z" fill="#E74214"/>
<path d="M21.6724 0.895788C21.3387 1.80145 20.9812 2.68329 20.6476 3.58895C20.5761 3.77962 20.4569 3.89878 20.2662 3.89878C19.9326 3.87495 19.6227 3.80345 19.2891 3.68428C19.6466 3.01695 19.8611 2.30195 20.1709 1.61079C20.2901 1.34862 20.3854 1.06262 20.7191 1.01495C21.0289 0.943455 21.3387 0.871955 21.6724 0.895788Z" fill="#E74214"/>
<path d="M19.957 27.1124C20.0285 26.8025 20.1954 26.9217 20.3622 26.9932C22.0544 27.732 23.7942 27.732 25.4625 26.9694C26.9164 26.302 28.0127 25.2057 28.6324 23.6804C28.7515 23.3944 28.7754 23.0607 29.0375 22.8462C29.1567 23.0369 29.2282 23.2514 29.252 23.4897C29.0852 23.585 29.0375 23.7757 28.966 23.9187C28.0127 26.016 26.392 27.303 24.1279 27.8035C23.9134 27.8512 23.7227 27.9465 23.5082 27.9704C22.6979 27.9227 21.8637 27.9704 21.0772 27.732C20.6959 27.6129 20.3145 27.5175 20.0047 27.2554C20.0047 27.1839 19.9809 27.1362 19.957 27.1124Z" fill="#E74214"/>
<path d="M15.4534 46.9179C15.6679 46.6319 15.5725 46.2983 15.5487 45.9884C15.358 43.8196 15.1435 41.6269 14.9052 39.4581C14.7145 37.6944 14.4762 35.9546 14.3809 34.1909C14.4524 34.1909 14.5239 34.1909 14.5954 34.2148C14.643 34.2386 14.6669 34.2624 14.6907 34.3101C14.5239 34.5723 14.643 34.8106 14.6669 35.0728C14.8099 36.2883 14.8814 37.5038 15.0244 38.7193C15.1435 39.9586 15.3104 41.2218 15.4295 42.4611C15.501 43.1999 15.5964 43.9388 15.644 44.6776C15.6917 45.3449 15.7394 46.0122 15.8585 46.6796C15.8824 46.8226 15.8824 46.9656 15.7394 47.0609C15.644 47.0371 15.5249 47.0132 15.4534 46.9179Z" fill="#E74214"/>
<path d="M20.6962 1.01465C20.1957 1.49132 20.1481 2.20631 19.8382 2.77831C19.6714 3.08815 19.7429 3.54098 19.2901 3.68398C19.0517 3.68398 18.8134 3.68398 18.5751 3.66014C18.5036 3.58864 18.3606 3.63632 18.2891 3.51715C18.4082 2.73065 18.7896 2.03948 19.0994 1.32448C19.6237 1.15765 20.1719 1.06232 20.6962 1.01465Z" fill="#E74214"/>
<path d="M20.1953 22.0835C20.2668 21.9167 20.3621 21.7737 20.5051 21.6545C20.7911 21.6784 20.7673 21.9405 20.8626 22.1312C21.2678 22.9177 21.9351 23.3944 22.817 23.4182C23.6511 23.4182 24.3185 23.0369 24.7236 22.2742C25.0573 21.6545 25.0335 21.011 24.819 20.3675C24.7475 20.2007 24.5806 20.0339 24.676 19.8194C24.7475 19.7955 24.8428 19.7955 24.9143 19.8432C24.9858 19.8432 25.0335 19.8432 25.105 19.867C25.6055 20.2007 25.6055 20.7489 25.6293 21.2494C25.6531 22.584 24.5806 23.8234 23.2698 24.014C21.9113 24.2047 20.6243 23.3944 20.1953 22.0835Z" fill="#E74214"/>
<path d="M8.25424 38.5521C8.32574 38.8143 8.39724 39.0526 8.46874 39.3148C8.37341 39.4578 8.20657 39.5054 8.06357 39.5293C7.37241 39.6008 6.68124 39.7199 5.99007 39.8153C5.84707 39.8391 5.70407 39.8153 5.58491 39.7438C5.37041 39.4578 5.15591 39.1718 4.94141 38.8858C5.94241 38.4091 6.99107 38.4091 8.06357 38.3853C8.15891 38.3853 8.20657 38.4806 8.25424 38.5521Z" fill="#E74214"/>
<path d="M24.6747 19.8429C25.7472 21.3921 24.8177 23.4418 22.9587 23.5609C22.0769 23.6086 21.1712 23.1558 20.6946 22.0833C20.6231 21.9403 20.5754 21.7973 20.5039 21.6543C20.5754 21.5113 20.6707 21.3921 20.8137 21.2968C21.0044 21.3683 21.0282 21.5589 21.0997 21.7258C21.5049 22.7983 22.5536 23.2988 23.4831 22.8936C24.5317 22.4408 24.8892 21.4874 24.4126 20.3911C24.1981 19.8906 24.2219 19.7953 24.6747 19.8429Z" fill="#E74214"/>
<path d="M20.29 26.5877C20.1947 26.5877 20.1232 26.5639 20.0755 26.4924C19.9087 26.3732 19.6942 26.3255 19.5512 26.1825C19.5512 26.0872 19.5273 25.968 19.5273 25.8727C20.576 26.5877 21.6962 26.9452 22.9593 26.9452C25.152 26.9214 27.3208 25.4199 28.1312 23.3702C28.298 22.965 28.2742 22.4407 28.6555 22.1309C28.7747 22.2024 28.8223 22.3215 28.8462 22.4645C28.6793 22.5599 28.6793 22.7029 28.6317 22.8697C28.298 24.252 27.4162 25.253 26.3913 26.1587C26.3437 26.2064 26.2483 26.2064 26.2007 26.2302C25.7955 26.4685 25.3665 26.683 24.9137 26.8737C23.3168 27.398 21.7915 27.2789 20.29 26.5877Z" fill="#E74214"/>
<path d="M12.5692 4.42285C12.5692 4.63735 12.736 4.70885 12.9029 4.80419C14.7857 6.01969 16.6924 7.25902 18.5752 8.47452C19.5285 9.09418 20.4819 9.76152 21.459 10.405C21.3875 10.4765 21.316 10.548 21.2445 10.6195C19.743 9.49935 18.1462 8.56985 16.597 7.54502C15.31 6.68702 14.023 5.85285 12.736 5.01868C12.5692 4.89952 12.2832 4.85185 12.2832 4.54202C12.3547 4.49435 12.45 4.47052 12.5692 4.42285Z" fill="#E74214"/>
<path d="M3.6543 36.9554C5.06046 36.7886 6.4428 36.5026 7.84896 36.4072C7.8728 36.4787 7.92046 36.5502 7.9443 36.6217C7.9443 36.7647 7.9443 36.9077 7.96813 37.0507C7.82513 37.2176 7.63446 37.2414 7.4438 37.2891C6.49046 37.4321 5.53713 37.5512 4.5838 37.6942C4.39313 37.7181 4.2263 37.7181 4.0833 37.5989C3.89263 37.4321 3.74963 37.2176 3.6543 36.9554Z" fill="#E74214"/>
<path d="M21.1254 21.011C21.2922 20.8203 21.4829 20.6535 21.7451 20.5582C22.0549 20.6058 21.8881 20.7965 21.8404 20.9395C21.6974 21.5115 21.9834 22.0358 22.5554 22.2503C22.9844 22.4171 23.5564 22.1311 23.7709 21.6545C23.9854 21.1778 23.8424 20.6773 23.3657 20.3675C23.2227 20.2721 22.9367 20.2721 23.0797 19.9861C23.2942 19.9146 23.4849 19.8431 23.7232 19.867C24.4382 20.2721 24.7481 20.9633 24.5336 21.6783C24.2952 22.4886 23.4849 23.0606 22.6746 22.9891C22.5077 22.9653 22.3171 22.9176 22.1502 22.87C21.7689 22.6793 21.5067 22.3933 21.2684 22.0596C21.1731 21.9405 21.1254 21.7737 21.1016 21.6307C21.1016 21.4638 21.1016 21.297 21.1016 21.1063C21.1254 21.0586 21.1254 21.0348 21.1254 21.011Z" fill="#E74214"/>
<path d="M46.6988 33.3326C46.0077 32.6653 45.3403 31.9503 44.959 31.0446C45.0305 30.9254 45.102 30.7824 45.1973 30.6633C45.2927 30.5441 45.4118 30.4488 45.5072 30.3296C45.96 30.4726 46.103 30.9254 46.389 31.2353C46.6512 31.5213 46.8656 31.8549 47.1278 32.1409C46.9371 32.5223 46.9372 32.9751 46.6988 33.3326Z" fill="#E74214"/>
<path d="M20.1958 22.0836C20.5056 22.2266 20.5294 22.5841 20.7201 22.8463C21.4113 23.6804 22.2693 24.0618 23.2941 23.8711C24.4143 23.6804 25.2008 22.7748 25.4153 21.7261C25.5583 21.0349 25.4153 20.4391 25.0816 19.8433C25.2246 19.8671 25.3676 19.9148 25.5106 19.9386C25.8204 20.8919 25.8919 21.8214 25.3676 22.7033C24.2951 24.5146 21.7688 24.6814 20.5294 23.0846C20.3626 22.8701 20.2911 22.5364 19.9336 22.5126C19.9813 22.3458 20.0766 22.2028 20.1958 22.0836Z" fill="#E74214"/>
<path d="M23.0804 19.9624C23.0804 20.1292 23.2234 20.1292 23.3425 20.1769C23.8669 20.4152 24.1529 20.9872 24.0099 21.4639C23.8669 21.9644 23.1757 22.5126 22.7705 22.4411C22.2462 22.3696 21.6504 21.7499 21.6027 21.2494C21.5789 20.9872 21.9364 20.8204 21.7457 20.5344C22.1509 20.2484 22.5799 20.0577 23.0804 19.9624Z" fill="#E74214"/>
<path d="M5.58594 39.7439C6.53927 39.6009 7.51644 39.4579 8.46977 39.3149C8.5651 39.6009 8.68427 39.8869 8.7796 40.1729C8.7081 40.2683 8.61277 40.3636 8.46977 40.3874C7.75477 40.4828 7.0636 40.7688 6.32477 40.6019C6.03877 40.3636 5.8481 40.0299 5.58594 39.7439Z" fill="#E74214"/>
<path d="M8.25395 38.5523C8.11095 38.4569 7.96795 38.4331 7.80111 38.4569C6.84778 38.5999 5.89445 38.7429 4.94111 38.8859C4.75045 38.6953 4.58361 38.5046 4.48828 38.2424C4.55978 38.0756 4.70278 38.0041 4.86961 37.9803C5.87061 37.8134 6.87161 37.6704 7.89645 37.5513C7.94411 37.5513 7.99178 37.5751 8.03945 37.5989C8.11095 37.9326 8.18245 38.2424 8.25395 38.5523Z" fill="#E74214"/>
<path d="M19.6715 23.1558C20.1243 23.6563 20.5772 24.2045 21.2445 24.4905C23.9377 25.6583 26.5355 23.847 26.5355 21.0823C26.5355 20.7487 26.2733 20.4865 26.321 20.1528C26.4402 20.2958 26.6785 20.1767 26.7738 20.3673C27.465 23.2273 24.8433 25.8252 21.9595 25.134C21.6973 25.0625 21.4352 24.991 21.1968 24.8957C21.1492 24.8718 21.1015 24.848 21.0538 24.8242C20.5772 24.4667 20.0528 24.1568 19.6715 23.6563C19.6238 23.5848 19.6 23.5133 19.5762 23.4657C19.5762 23.3703 19.6238 23.2512 19.6715 23.1558Z" fill="#E74214"/>
<path d="M19.5524 23.4658C19.5762 23.4896 19.6239 23.5373 19.6477 23.5611C19.9814 24.1093 20.5295 24.4191 21.03 24.729C23.5325 25.9445 26.0589 24.3953 26.6547 22.3695C26.8454 21.726 26.7024 21.0825 26.8215 20.439C27.0122 20.439 27.1552 20.5105 27.2744 20.6535C27.1075 20.7488 27.1552 20.9395 27.1314 21.0825C27.0599 22.9415 26.2495 24.3238 24.5335 25.1341C23.9854 25.3963 23.4134 25.3486 22.8414 25.3963C21.8404 25.4916 21.03 25.158 20.2912 24.6098C19.9814 24.3953 19.743 24.1093 19.457 23.871C19.4809 23.7518 19.5047 23.6088 19.5524 23.4658Z" fill="#E74214"/>
<path d="M21.2438 21.5355C21.22 21.7024 21.2677 21.8215 21.363 21.9645C21.506 22.322 21.7682 22.5604 22.1018 22.7034C22.7692 22.8702 23.3888 22.894 23.9132 22.3459C24.6043 21.6309 24.6282 20.8205 23.937 20.1055C23.8417 20.0102 23.7702 19.9149 23.6987 19.8195C24.1038 19.7242 24.509 19.6527 24.9142 19.7957C24.8427 19.7957 24.7473 19.8195 24.6758 19.8195C24.2468 19.7957 24.3422 19.9625 24.4852 20.2247C25.081 21.2972 24.7473 22.3697 23.6748 22.9179C22.5547 23.466 21.2677 22.894 20.9102 21.6785C20.8625 21.5355 20.8387 21.4164 20.791 21.2734C20.8625 21.1304 20.9578 21.035 21.1247 20.9635L21.1485 20.9874C21.2677 21.178 21.1247 21.3925 21.2438 21.5355Z" fill="#E74214"/>
<path d="M8.04071 37.599C7.03971 37.9326 5.96721 37.9326 4.94238 38.1233C4.77555 38.1471 4.63255 38.1709 4.48955 38.2424C4.29888 38.0518 4.15588 37.8373 4.06055 37.599C5.34755 37.4083 6.65838 37.2414 7.94538 37.0508C8.04071 37.2414 8.06455 37.4083 8.04071 37.599Z" fill="#E74214"/>
<path d="M47.1028 32.1411C46.5308 31.9743 46.4354 31.3546 46.0541 31.021C45.8396 30.8303 45.6728 30.5681 45.5059 30.3298C45.6489 30.0915 45.7919 29.8293 45.9588 29.591C46.0303 29.5195 46.1018 29.448 46.1494 29.3765C46.4593 30.0438 46.9836 30.5205 47.4364 31.0925C47.3649 31.45 47.2696 31.8075 47.1028 32.1411Z" fill="#E74214"/>
<path d="M28.2279 21.6306C28.0372 22.5839 27.8227 23.5373 27.2031 24.3476C26.2736 25.6108 25.0342 26.3734 23.5089 26.5403C22.2457 26.6833 21.0064 26.4926 19.9101 25.7299C19.7432 25.6108 19.5287 25.4201 19.5287 25.8491C19.3857 25.6346 19.4334 25.4201 19.4334 25.1818C19.6002 25.0626 19.6956 25.2056 19.7909 25.2771C20.9587 26.1113 22.2696 26.4688 23.6757 26.2304C25.4632 25.8968 26.7741 24.9196 27.5129 23.2036C27.7036 22.7508 27.8227 22.2979 27.8942 21.8213C27.9181 21.6783 27.8227 21.4399 28.1326 21.4399C28.1564 21.5114 28.1802 21.5591 28.2279 21.6306Z" fill="#E74214"/>
<path d="M6.34766 40.6018C7.15799 40.4588 7.96832 40.3159 8.80249 40.1729C8.94549 40.4589 9.08849 40.7449 9.23149 41.0309C8.54032 41.1739 7.87299 41.3169 7.18182 41.4599C6.87199 41.2215 6.58599 40.9355 6.34766 40.6018Z" fill="#E74214"/>
<path d="M23.6035 27.8512C24.0802 27.5652 24.6522 27.5652 25.1527 27.3507C26.8687 26.6596 28.1319 25.5155 28.8707 23.7995C28.9422 23.6327 28.9183 23.3229 29.2758 23.4659C29.2997 23.6089 29.3473 23.7519 29.3712 23.8949C28.9898 23.9664 28.9899 24.3239 28.8707 24.586C28.3464 25.6824 27.5122 26.4689 26.5112 27.0885C26.4635 27.1124 26.3682 27.1124 26.2967 27.1124C25.82 27.3746 25.3433 27.6367 24.7952 27.7559C24.39 27.8512 24.0325 28.1134 23.6035 27.8512Z" fill="#E74214"/>
<path d="M19.0997 1.32471C19.0759 2.01587 18.6707 2.58787 18.4562 3.20754C18.4085 3.32671 18.3847 3.44587 18.337 3.56504C18.1702 3.66037 17.9795 3.63654 17.8127 3.58887C17.7412 3.58887 17.6697 3.58887 17.5982 3.58887C17.3599 3.58887 17.0977 3.56504 16.8594 3.56504C17.4075 3.56504 17.5505 3.18371 17.7174 2.75471C17.8604 2.34954 17.9795 1.92054 18.2655 1.56304C18.5277 1.42004 18.7899 1.32471 19.0997 1.32471Z" fill="#E74214"/>
<path d="M28.1074 21.4401C27.8452 21.7976 27.9167 22.2504 27.7975 22.6556C27.2732 24.7291 25.1997 26.3497 23.0785 26.3736C21.7915 26.3974 20.6237 26.0399 19.6227 25.2534C19.575 25.2057 19.4797 25.2057 19.432 25.1819C19.432 25.1104 19.432 25.0389 19.4082 24.9674C19.8372 25.2057 20.2424 25.4917 20.6952 25.7062C23.1024 26.8741 25.9385 25.9446 27.2255 23.5851C27.5354 23.0131 27.8214 22.3696 27.7737 21.6784C27.7737 21.4877 27.8214 21.3686 28.012 21.3447C28.0835 21.3447 28.1312 21.3686 28.1074 21.4401Z" fill="#E74214"/>
<path d="M26.8208 20.4625C27.226 21.9402 26.5586 23.4894 25.1525 24.538C24.0085 25.3722 22.7691 25.4437 21.4583 25.0624C21.2915 25.0147 21.1723 24.8717 21.0293 24.7764C21.649 24.8717 22.221 25.0624 22.8406 25.11C24.3421 25.253 26.2488 23.8707 26.6063 22.1547C26.7255 21.6304 26.7731 21.106 26.654 20.5817C26.6301 20.4864 26.654 20.4149 26.7493 20.3672C26.7731 20.391 26.797 20.4387 26.8208 20.4625Z" fill="#E74214"/>
<path d="M23.6023 27.8511C24.0075 27.9226 24.3888 27.7319 24.7702 27.7558C24.0075 28.1848 23.1495 28.1848 22.3153 28.1371C21.6957 28.1133 21.0998 27.8034 20.4802 27.8988C20.2657 27.7319 20.0988 27.4936 20.0273 27.2314C20.5517 27.3268 21.0283 27.5174 21.5288 27.6604C22.22 27.8749 22.935 27.6366 23.6023 27.8511Z" fill="#E74214"/>
<path d="M19.5508 26.1592C19.7653 26.2068 19.9559 26.2783 20.0751 26.469C19.9559 26.469 19.8129 26.4452 19.7414 26.5882C19.6699 26.4452 19.6223 26.3022 19.5508 26.1592Z" fill="#E74214"/>
<path d="M31.9685 13.7417C31.9685 13.7655 31.9685 13.7894 31.9685 13.837C31.7302 13.8609 31.4918 13.8847 31.2773 13.7655C31.5157 13.7417 31.7302 13.7417 31.9685 13.7417Z" fill="#E74214"/>
<path d="M14.7145 34.2863C14.6906 34.2625 14.643 34.2148 14.6191 34.191C14.8098 34.1671 15.0005 34.1671 15.1673 34.2625C15.0958 34.2625 15.0005 34.2863 14.929 34.2863C14.8575 34.2863 14.786 34.2863 14.7145 34.2863Z" fill="#E74214"/>
<path d="M24.7949 27.7558C25.2954 27.5175 25.7721 27.2553 26.2964 27.1123C25.8674 27.4936 25.3908 27.7796 24.7949 27.7558Z" fill="#E74214"/>
<path d="M24.4609 0.776367C24.8184 0.776367 25.1759 0.776367 25.5334 0.776367C25.2235 1.82503 24.7469 2.82603 24.3417 3.82703C24.1272 4.3752 23.9842 4.97103 23.6029 5.44769C23.3407 5.28086 23.1024 5.11403 22.8402 4.9472C22.7449 4.8042 22.7925 4.68503 22.8402 4.54203C23.293 3.3742 23.7697 2.20636 24.2464 1.03853C24.294 0.967028 24.3655 0.871701 24.4609 0.776367Z" fill="#E74214"/>
<path d="M24.4611 0.77665C23.9606 2.06365 23.4363 3.37448 22.9358 4.66148C22.8881 4.75681 22.8643 4.85214 22.8404 4.97131C22.5306 4.85214 22.2446 4.73298 21.9824 4.51848C22.1493 4.42315 22.2446 4.30398 22.3161 4.13714C22.6498 3.25531 23.0549 2.39731 23.3648 1.51548C23.5554 0.919644 23.8414 0.657483 24.4611 0.77665Z" fill="#E74214"/>
<path d="M17.8125 3.58878C17.9793 3.58878 18.17 3.56494 18.3368 3.56494C18.4083 3.58877 18.4798 3.63644 18.5752 3.66027C18.3368 3.63644 18.0508 3.75561 17.8125 3.58878Z" fill="#E74214"/>
<path d="M44.4091 31.4978C44.3376 31.5693 44.2661 31.6408 44.1946 31.7361C43.9324 31.9745 43.6941 32.2366 43.4319 32.475C43.2174 32.618 43.0029 32.7848 42.7884 32.9278C42.5024 33.0946 42.2164 33.2853 41.9304 33.4521C41.6444 33.5951 41.3584 33.7381 41.0724 33.8811C40.7864 34.0003 40.5004 34.0956 40.2144 34.2148C39.8807 34.3101 39.5709 34.4293 39.2372 34.5246C39.0227 34.5246 38.8082 34.5246 38.5938 34.5246C38.5938 33.9765 38.5938 33.4283 38.5938 32.8563C38.5938 32.5703 38.7129 32.4273 38.9751 32.3796C40.5719 32.0698 42.1687 31.7361 43.7656 31.4263C43.9801 31.3786 44.2184 31.331 44.4091 31.4978Z" fill="#E74214"/>
<path d="M20.291 26.5879C20.863 26.6832 21.3873 26.9454 21.9832 27.0407C22.8888 27.2076 23.7468 27.0407 24.6048 26.8501C24.7002 26.8262 24.8193 26.8262 24.9147 26.8024C24.1758 27.2314 23.3417 27.3506 22.5313 27.2552C21.7448 27.1361 20.9345 27.0884 20.291 26.5879Z" fill="#E74214"/>
<path d="M24.8906 26.8027C25.2958 26.5405 25.701 26.2783 26.1776 26.1592C25.8201 26.5167 25.3911 26.7073 24.8906 26.8027Z" fill="#E74214"/>
<path d="M22.1021 22.7266C21.6731 22.6551 21.4348 22.393 21.3633 21.9878C21.6016 22.2261 21.8638 22.4645 22.1021 22.7266Z" fill="#E74214"/>
<path d="M21.2434 21.5351C21.0765 21.3921 21.148 21.2014 21.148 21.0107C21.3149 21.1776 21.2195 21.3682 21.2434 21.5351Z" fill="#E74214"/>
<path d="M22.1016 21.2014C22.1016 20.8439 22.5306 20.4626 22.8881 20.4864C23.2217 20.5102 23.6031 20.8916 23.6031 21.2252C23.6031 21.5827 23.1979 21.9879 22.8404 21.9641C22.4829 21.9641 22.1016 21.5589 22.1016 21.2014Z" fill="#E74214"/>
<path d="M21.0288 24.7528C20.4568 24.4906 19.861 24.2523 19.6465 23.585C20.0993 23.9663 20.576 24.3715 21.0288 24.7528Z" fill="#E74214"/>
<path d="M63.2409 18.0756C64.8854 18.0756 66.083 18.4331 66.8338 19.1481C67.5964 19.8512 67.9778 20.8224 67.9778 22.0618C67.9778 22.8006 67.8228 23.4977 67.513 24.1531C67.2032 24.7966 66.6848 25.315 65.9579 25.7083C65.2429 26.1015 64.2657 26.2981 63.0264 26.2981H61.8645V30.8384H59.1654V18.0756H63.2409ZM63.0979 20.2921H61.8645V24.0816H62.7583C63.5209 24.0816 64.1227 23.9327 64.5636 23.6348C65.0165 23.3249 65.2429 22.8304 65.2429 22.1511C65.2429 20.9118 64.5279 20.2921 63.0979 20.2921ZM81.9726 24.4391C81.9726 25.7619 81.7522 26.9178 81.3113 27.9069C80.8823 28.884 80.2209 29.6467 79.3271 30.1949C78.4334 30.743 77.2894 31.0171 75.8951 31.0171C74.5128 31.0171 73.3688 30.743 72.4631 30.1949C71.5694 29.6467 70.9021 28.8781 70.4611 27.889C70.0321 26.8999 69.8176 25.744 69.8176 24.4213C69.8176 23.0985 70.0321 21.9485 70.4611 20.9714C70.9021 19.9942 71.5694 19.2375 72.4631 18.7013C73.3688 18.1531 74.5188 17.879 75.913 17.879C77.2953 17.879 78.4334 18.1531 79.3271 18.7013C80.2209 19.2375 80.8823 20.0002 81.3113 20.9893C81.7522 21.9664 81.9726 23.1164 81.9726 24.4391ZM72.6598 24.4391C72.6598 25.7738 72.916 26.8284 73.4284 27.603C73.9408 28.3657 74.7631 28.747 75.8951 28.747C77.0511 28.747 77.8793 28.3657 78.3798 27.603C78.8803 26.8284 79.1305 25.7738 79.1305 24.4391C79.1305 23.0925 78.8803 22.0379 78.3798 21.2753C77.8793 20.5126 77.057 20.1313 75.913 20.1313C74.769 20.1313 73.9408 20.5126 73.4284 21.2753C72.916 22.0379 72.6598 23.0925 72.6598 24.4391ZM90.0324 20.1491C88.9957 20.1491 88.2032 20.5364 87.6551 21.311C87.1069 22.0856 86.8328 23.1462 86.8328 24.4928C86.8328 25.8513 87.0831 26.9059 87.5836 27.6566C88.096 28.3955 88.9123 28.7649 90.0324 28.7649C90.5568 28.7649 91.0752 28.7053 91.5876 28.5861C92.1119 28.467 92.6779 28.3001 93.2857 28.0856V30.3558C92.7256 30.5822 92.1715 30.749 91.6233 30.8563C91.0752 30.9635 90.4614 31.0171 89.7822 31.0171C88.4714 31.0171 87.3869 30.749 86.5289 30.2128C85.6829 29.6646 85.0572 28.9019 84.6521 27.9248C84.2469 26.9357 84.0443 25.7857 84.0443 24.4749C84.0443 23.1879 84.2767 22.0498 84.7414 21.0608C85.2062 20.0717 85.8795 19.2971 86.7613 18.737C87.6551 18.1769 88.7454 17.8969 90.0324 17.8969C90.664 17.8969 91.2956 17.9803 91.9272 18.1471C92.5707 18.302 93.1844 18.5165 93.7683 18.7906L92.8924 20.9893C92.4158 20.7628 91.9332 20.5662 91.4446 20.3994C90.9679 20.2325 90.4972 20.1491 90.0324 20.1491ZM104.131 30.8384L102.594 26.888H97.5349L96.0155 30.8384H94.3889L99.376 18.022H100.824L105.793 30.8384H104.131ZM100.681 21.597C100.645 21.5017 100.586 21.3289 100.502 21.0786C100.419 20.8284 100.335 20.5722 100.252 20.31C100.18 20.0359 100.121 19.8274 100.073 19.6844C99.9897 20.0538 99.8944 20.4173 99.7872 20.7748C99.6799 21.1203 99.5905 21.3944 99.519 21.597L98.0712 25.458H102.111L100.681 21.597ZM110.322 30.8384H108.713V19.4878H104.727V18.0756H114.29V19.4878H110.322V30.8384ZM127.002 24.4391C127.002 25.7619 126.775 26.9178 126.322 27.9069C125.882 28.884 125.226 29.6467 124.356 30.1949C123.486 30.743 122.408 31.0171 121.121 31.0171C119.798 31.0171 118.696 30.743 117.814 30.1949C116.944 29.6467 116.295 28.8781 115.866 27.889C115.437 26.8999 115.222 25.744 115.222 24.4213C115.222 23.1104 115.437 21.9664 115.866 20.9893C116.295 20.0121 116.944 19.2494 117.814 18.7013C118.696 18.1531 119.804 17.879 121.139 17.879C122.414 17.879 123.486 18.1531 124.356 18.7013C125.226 19.2375 125.882 20.0002 126.322 20.9893C126.775 21.9664 127.002 23.1164 127.002 24.4391ZM116.92 24.4391C116.92 26.0479 117.26 27.317 117.939 28.2465C118.618 29.1641 119.679 29.6229 121.121 29.6229C122.575 29.6229 123.635 29.1641 124.303 28.2465C124.97 27.317 125.304 26.0479 125.304 24.4391C125.304 22.8304 124.97 21.5732 124.303 20.6675C123.635 19.7499 122.581 19.2911 121.139 19.2911C119.697 19.2911 118.63 19.7499 117.939 20.6675C117.26 21.5732 116.92 22.8304 116.92 24.4391ZM135.461 30.8384L131.26 19.6486H131.189C131.225 20.018 131.254 20.5185 131.278 21.1501C131.302 21.7698 131.314 22.4193 131.314 23.0985V30.8384H129.83V18.0756H132.208L136.14 28.5325H136.212L140.216 18.0756H142.575V30.8384H140.984V22.9913C140.984 22.3716 140.996 21.7579 141.02 21.1501C141.056 20.5424 141.086 20.0478 141.11 19.6665H141.038L136.784 30.8384H135.461Z" fill="#E74214"/>
</svg>
