<svg width="157" height="32" viewBox="0 0 157 32" fill="none" xmlns="http://www.w3.org/2000/svg">
<g clip-path="url(#clip0_1_494)">
<path fill-rule="evenodd" clip-rule="evenodd" d="M15.6575 31.8404H15.6806L31.3497 16.1263L15.669 0.400391L0 16.1146V16.1379L15.6575 31.8404Z" fill="#E74214"/>
<path d="M18.8973 14.1609H11.1976V8.4209H9.9082V23.8321H11.1976V15.4606H18.8973V14.1609Z" fill="#E74214"/>
<path d="M7.49609 10.8418H8.79246V21.4127H7.49609V10.8418Z" fill="#E74214"/>
<path d="M5.09375 13.3027H6.38348V18.9949H5.09375V13.3027Z" fill="#E74214"/>
<path d="M20.1402 16.754H12.4023V18.047H20.1402V23.8321H21.4299V8.4209H20.1402V16.754Z" fill="#E74214"/>
<path d="M22.5449 10.8418H23.8413V21.4127H22.5449V10.8418Z" fill="#E74214"/>
<path d="M24.9551 13.3027H26.2448V18.9949H24.9551V13.3027Z" fill="#E74214"/>
<path d="M44.4984 7.15039V13.806H41.7022V7.15039H37.2461V24.9344H41.7022V18.2782H44.4984V24.9344H48.955V7.15039H44.4984Z" fill="#E74214"/>
<path d="M57.5361 13.8067H54.7381V13.027C54.7381 12.2519 55.3649 11.6234 56.138 11.6234C56.9109 11.6234 57.5376 12.2519 57.5376 13.027H57.5361V13.8067ZM56.137 7.15625C52.9041 7.15625 50.2832 9.78462 50.2832 13.027V24.9363H54.7381V18.279H57.5361V24.9363H61.9909V13.027C61.9909 9.78462 59.3701 7.15625 56.137 7.15625Z" fill="#E74214"/>
<path d="M75.0149 7.15039V7.15213L71.3945 13.4407L67.7734 7.15039L67.7718 7.15136V7.15039H63.3184V24.9344H67.7718V16.1049L71.1451 21.9647C71.1451 21.9647 71.2233 22.1134 71.3945 22.1134C71.5661 22.1134 71.6394 21.9731 71.6394 21.9731L75.0149 16.1096V24.9344H79.4806V7.15039H75.0149Z" fill="#E74214"/>
<path d="M92.5051 7.1543V7.15584L88.885 13.4445L85.2637 7.1543L85.2619 7.15516V7.1543H80.8086V24.9382H85.2619V16.1087L88.6354 21.9683C88.6354 21.9683 88.7135 22.1172 88.885 22.1172C89.0562 22.1172 89.1296 21.9769 89.1296 21.9769L92.5051 16.1134V24.9382H96.9708V7.1543H92.5051Z" fill="#E74214"/>
<path d="M108.555 11.6226V7.15039H98.4004V24.9344H108.555V20.4616H102.857V18.2782H108.555V13.806H102.857V11.6226H108.555Z" fill="#E74214"/>
<path d="M114.337 11.6226H115.58C116.782 11.6226 117.756 12.5999 117.756 13.8052C117.756 15.0107 116.782 15.9879 115.58 15.9879H114.337V11.6226ZM118.962 19.4672C120.85 18.2937 122.108 16.1979 122.108 13.8066C122.108 10.1306 119.137 7.15039 115.471 7.15039H109.881V24.9344H114.337V20.3629L116.963 24.9344L122.108 24.9355L118.964 19.4674L118.962 19.4672Z" fill="#E74214"/>
<path d="M138.768 11.6226V7.15039H128.613V24.9344H133.07V18.2782H138.768V13.806H133.07V11.6226H138.768Z" fill="#E74214"/>
<path d="M140.201 7.15039H144.657V24.9344H140.201V7.15039Z" fill="#E74214"/>
<path d="M145.982 7.15039V11.6226H148.881V24.9344H153.337V11.6226H156.239V7.15039H145.982Z" fill="#E74214"/>
<path d="M40.3282 29.0618C40.2986 28.9473 40.2582 28.8423 40.2067 28.746C40.155 28.6503 40.0888 28.5672 40.0079 28.497C39.9268 28.4269 39.832 28.3725 39.7233 28.3336C39.6148 28.2949 39.4888 28.2757 39.3452 28.2757C39.1357 28.2757 38.9542 28.318 38.8014 28.4031C38.6487 28.4878 38.5245 28.6012 38.4288 28.7435C38.333 28.8856 38.2622 29.0473 38.2161 29.2279C38.1701 29.4089 38.1472 29.5935 38.1472 29.7815C38.1472 29.97 38.1701 30.1546 38.2161 30.3353C38.2622 30.5163 38.333 30.6779 38.4288 30.8199C38.5245 30.9618 38.6487 31.0753 38.8014 31.1604C38.9542 31.2452 39.1357 31.2878 39.3452 31.2878C39.4999 31.2878 39.6359 31.2607 39.7538 31.2073C39.8717 31.1539 39.9728 31.0802 40.0577 30.9858C40.1425 30.8919 40.2084 30.7821 40.2564 30.6565C40.3041 30.5311 40.3353 30.3962 40.3503 30.2522H41.0239C41.009 30.4886 40.9584 30.7045 40.872 30.9001C40.7856 31.0958 40.6687 31.2648 40.5214 31.4066C40.3741 31.549 40.2013 31.6586 40.0023 31.7362C39.8665 31.7892 39.7214 31.824 39.5667 31.8407H39.1156C38.9118 31.8193 38.7242 31.7688 38.5528 31.6891C38.3191 31.5804 38.1213 31.4315 37.9595 31.2437C37.7973 31.0552 37.6731 30.8357 37.5865 30.5847C37.5 30.3335 37.457 30.0658 37.457 29.7815C37.457 29.5013 37.5 29.2353 37.5865 28.9843C37.6731 28.7333 37.7973 28.5137 37.9595 28.3252C38.1213 28.1373 38.3191 27.9877 38.5528 27.8771C38.7867 27.7662 39.0509 27.7109 39.3452 27.7109C39.566 27.7109 39.7741 27.7411 39.9692 27.8022C40.1643 27.8631 40.3365 27.9518 40.4856 28.0678C40.6345 28.1843 40.7552 28.3252 40.8471 28.4917C40.9392 28.6576 40.9962 28.8477 41.0184 29.0618H40.3282Z" fill="#E74214"/>
<path d="M44.7461 27.8047H47.5841V28.4027H45.4362V29.4379H47.424V30.0028H45.4362V31.16H47.6229V31.758H44.7461V27.8047Z" fill="#E74214"/>
<path d="M50.9395 27.8047H54.1311V28.4027H52.8776V31.758H52.1875V28.4027H50.9395V27.8047Z" fill="#E74214"/>
<path d="M58.3718 31.1932H59.3933C59.4853 31.1932 59.5717 31.1841 59.6529 31.1654C59.7337 31.147 59.8056 31.1131 59.8681 31.0631C59.9307 31.0133 59.9804 30.9459 60.0173 30.8611C60.054 30.7761 60.0725 30.6691 60.0725 30.5399C60.0725 30.4144 60.0513 30.31 60.0089 30.227C59.9665 30.144 59.9116 30.0775 59.8432 30.0276C59.7752 29.9777 59.7007 29.9419 59.6198 29.9197C59.5386 29.8976 59.4595 29.8865 59.3823 29.8865H58.3718V31.1932ZM57.6816 27.8047H58.3718V29.3218H59.421C59.7007 29.3218 59.929 29.3614 60.1057 29.4406C60.2825 29.5203 60.4185 29.6208 60.5143 29.7426C60.6099 29.8642 60.6753 29.9963 60.7103 30.1383C60.7452 30.2808 60.7628 30.4125 60.7628 30.5342C60.7628 30.6561 60.7452 30.7891 60.7103 30.9331C60.6753 31.077 60.6099 31.2099 60.5143 31.3316C60.4185 31.4534 60.2825 31.5551 60.1057 31.6362C59.929 31.7175 59.7007 31.758 59.421 31.758H57.6816V27.8047Z" fill="#E74214"/>
<path d="M71.9448 29.7205C71.9448 29.5877 71.9291 29.4629 71.8978 29.3467C71.8666 29.2304 71.8168 29.1272 71.7487 29.0367C71.6804 28.9465 71.5904 28.8707 71.478 28.8096C71.3657 28.7489 71.2287 28.7074 71.0668 28.6852V30.7506C71.2287 30.7282 71.3657 30.6867 71.478 30.6259C71.5904 30.5648 71.6804 30.4893 71.7487 30.399C71.8168 30.3085 71.8666 30.2059 71.8978 30.0916C71.9291 29.9769 71.9448 29.8533 71.9448 29.7205ZM69.5043 29.7205C69.5043 29.8533 69.5188 29.9769 69.5484 30.0916C69.5778 30.2059 69.6273 30.3085 69.6976 30.399C69.7675 30.4893 69.8575 30.5648 69.9682 30.6259C70.0786 30.6867 70.2146 30.7282 70.3765 30.7506V28.6907C70.2146 28.7126 70.0786 28.7541 69.9682 28.8153C69.8575 28.876 69.7675 28.9517 69.6976 29.0421C69.6273 29.1328 69.5778 29.2351 69.5484 29.3496C69.5188 29.4639 69.5043 29.5877 69.5043 29.7205ZM70.3765 31.3041C70.1225 31.282 69.8999 31.2265 69.7085 31.1382C69.5171 31.0495 69.356 30.9359 69.2253 30.7974C69.0945 30.6591 68.9972 30.4985 68.9328 30.3156C68.8683 30.1332 68.8359 29.9346 68.8359 29.7205C68.8359 29.5064 68.8666 29.3071 68.9272 29.1225C68.9879 28.9381 69.082 28.7764 69.2087 28.638C69.3359 28.4997 69.4959 28.387 69.6893 28.3002C69.8824 28.2136 70.1116 28.159 70.3765 28.1371V27.6387H71.0668V28.1371C71.3319 28.159 71.561 28.2136 71.7543 28.3002C71.9477 28.387 72.1076 28.4997 72.2345 28.638C72.3617 28.7764 72.4565 28.9381 72.519 29.1225C72.5815 29.3071 72.6126 29.5064 72.6126 29.7205C72.6126 29.9346 72.5796 30.1332 72.5134 30.3156C72.4472 30.4985 72.3497 30.6591 72.2207 30.7974C72.0919 30.9359 71.9309 31.0495 71.7377 31.1382C71.5443 31.2265 71.3209 31.282 71.0668 31.3041V31.7582H70.3765V31.3041Z" fill="#E74214"/>
<path d="M76.2793 27.8047H76.9695V30.7505L78.6426 27.8047H79.4541V31.758H78.764V28.7903L77.069 31.758H76.2793V27.8047Z" fill="#E74214"/>
<path d="M82.998 27.8047H86.1898V28.4027H84.9362V31.758H84.2461V28.4027H82.998V27.8047Z" fill="#E74214"/>
<path d="M89.7246 27.8047H90.4148V29.377H92.2093V27.8047H92.8994V31.758H92.2093V29.975H90.4148V31.758H89.7246V27.8047Z" fill="#E74214"/>
<path d="M96.8184 27.8047H99.6564V28.4027H97.5085V29.4379H99.4964V30.0028H97.5085V31.16H99.6951V31.758H96.8184V27.8047Z" fill="#E74214"/>
<path d="M106.051 29.0618C106.021 28.9473 105.981 28.8423 105.929 28.746C105.878 28.6503 105.812 28.5672 105.731 28.497C105.65 28.4269 105.555 28.3725 105.446 28.3336C105.337 28.2949 105.212 28.2757 105.068 28.2757C104.858 28.2757 104.677 28.318 104.524 28.4031C104.371 28.4878 104.247 28.6012 104.152 28.7435C104.056 28.8856 103.985 29.0473 103.939 29.2279C103.893 29.4089 103.87 29.5935 103.87 29.7815C103.87 29.97 103.893 30.1546 103.939 30.3353C103.985 30.5163 104.056 30.6779 104.152 30.8199C104.247 30.9618 104.371 31.0753 104.524 31.1604C104.677 31.2452 104.858 31.2878 105.068 31.2878C105.223 31.2878 105.359 31.2607 105.477 31.2073C105.595 31.1539 105.696 31.0802 105.78 30.9858C105.865 30.8919 105.931 30.7821 105.979 30.6565C106.027 30.5311 106.058 30.3962 106.073 30.2522H106.747C106.732 30.4886 106.681 30.7045 106.595 30.9001C106.508 31.0958 106.392 31.2648 106.244 31.4066C106.097 31.549 105.924 31.6586 105.725 31.7362C105.589 31.7892 105.444 31.824 105.289 31.8407H104.838C104.635 31.8193 104.447 31.7688 104.276 31.6891C104.042 31.5804 103.844 31.4315 103.682 31.2437C103.52 31.0552 103.396 30.8357 103.309 30.5847C103.223 30.3335 103.18 30.0658 103.18 29.7815C103.18 29.5013 103.223 29.2353 103.309 28.9843C103.396 28.7333 103.52 28.5137 103.682 28.3252C103.844 28.1373 104.042 27.9877 104.276 27.8771C104.51 27.7662 104.774 27.7109 105.068 27.7109C105.289 27.7109 105.497 27.7411 105.692 27.8022C105.887 27.8631 106.059 27.9518 106.208 28.0678C106.357 28.1843 106.478 28.3252 106.57 28.4917C106.662 28.6576 106.719 28.8477 106.741 29.0618H106.051Z" fill="#E74214"/>
<path d="M110.318 29.9531H111.925V30.5512H110.318V29.9531Z" fill="#E74214"/>
<path d="M115.707 27.8047H116.397V29.6042L118.153 27.8047H119.004L117.43 29.3827L119.114 31.758H118.253L116.961 29.8698L116.397 30.429V31.758H115.707V27.8047Z" fill="#E74214"/>
<path d="M122.39 31.1822C122.486 31.1822 122.568 31.1619 122.636 31.1213C122.704 31.0808 122.762 31.0226 122.81 30.9469C122.858 30.8714 122.895 30.7827 122.923 30.681C122.951 30.5796 122.974 30.4677 122.992 30.3462C123.007 30.2245 123.021 30.1126 123.034 30.0112C123.047 29.9095 123.056 29.8081 123.064 29.7066C123.072 29.6051 123.078 29.4979 123.083 29.3854C123.089 29.2728 123.092 29.1426 123.094 28.9953C123.096 28.8473 123.098 28.6777 123.1 28.4857C123.102 28.2936 123.103 28.0667 123.103 27.8047H125.819V31.758H125.129V28.4027H123.749C123.741 28.6463 123.737 28.8623 123.735 29.0504C123.733 29.2384 123.729 29.413 123.724 29.5736C123.718 29.7342 123.708 29.8892 123.693 30.0388C123.679 30.1881 123.657 30.3498 123.627 30.5233C123.609 30.6377 123.579 30.7678 123.539 30.9137C123.499 31.0594 123.435 31.1959 123.348 31.3235C123.262 31.4507 123.149 31.5588 123.009 31.6474C122.869 31.7359 122.69 31.7801 122.473 31.7801C122.403 31.7801 122.345 31.7782 122.299 31.7747C122.253 31.7708 122.208 31.7654 122.164 31.758V31.16C122.208 31.1674 122.247 31.173 122.28 31.1765C122.313 31.1804 122.35 31.1822 122.39 31.1822Z" fill="#E74214"/>
<path d="M129.926 31.1822C130.066 31.1822 130.197 31.1389 130.318 31.0519C130.439 30.9653 130.53 30.8479 130.589 30.7005L129.291 27.8047H130.114L131.014 30.0139H131.025L131.941 27.8047H132.714L131.411 30.7058C131.242 31.0862 131.04 31.3603 130.807 31.5283C130.573 31.6963 130.307 31.7801 130.009 31.7801C129.939 31.7801 129.881 31.7782 129.835 31.7747C129.789 31.7708 129.744 31.7654 129.699 31.758V31.16C129.744 31.1674 129.782 31.173 129.815 31.1765C129.849 31.1804 129.885 31.1822 129.926 31.1822Z" fill="#E74214"/>
<path d="M136.889 31.1932H137.911C138.003 31.1932 138.089 31.1841 138.17 31.1654C138.251 31.147 138.323 31.1131 138.385 31.0631C138.448 31.0133 138.498 30.9459 138.535 30.8611C138.571 30.7761 138.59 30.6691 138.59 30.5399C138.59 30.4144 138.569 30.31 138.526 30.227C138.484 30.144 138.429 30.0775 138.361 30.0276C138.292 29.9777 138.218 29.9419 138.137 29.9197C138.056 29.8976 137.977 29.8865 137.9 29.8865H136.889V31.1932ZM136.199 27.8047H138.921V28.4027H136.889V29.3218H137.939C138.218 29.3218 138.446 29.3614 138.623 29.4406C138.8 29.5203 138.936 29.6208 139.032 29.7426C139.127 29.8642 139.193 29.9963 139.228 30.1383C139.263 30.2808 139.28 30.4125 139.28 30.5342C139.28 30.6561 139.263 30.7891 139.228 30.9331C139.193 31.077 139.127 31.2099 139.032 31.3316C138.936 31.4534 138.8 31.5551 138.623 31.6362C138.446 31.7175 138.218 31.758 137.939 31.758H136.199V27.8047Z" fill="#E74214"/>
<path d="M144.652 28.2757C144.442 28.2757 144.261 28.318 144.108 28.4031C143.956 28.4878 143.831 28.6012 143.735 28.7435C143.64 28.8856 143.569 29.0473 143.523 29.2279C143.477 29.4089 143.454 29.5935 143.454 29.7815C143.454 29.97 143.477 30.1546 143.523 30.3353C143.569 30.5163 143.64 30.6779 143.735 30.8199C143.831 30.9618 143.956 31.0753 144.108 31.1604C144.261 31.2452 144.442 31.2878 144.652 31.2878C144.862 31.2878 145.043 31.2452 145.196 31.1604C145.349 31.0753 145.473 30.9618 145.569 30.8199C145.664 30.6779 145.735 30.5163 145.781 30.3353C145.827 30.1546 145.85 29.97 145.85 29.7815C145.85 29.5935 145.827 29.4089 145.781 29.2279C145.735 29.0473 145.664 28.8856 145.569 28.7435C145.473 28.6012 145.349 28.4878 145.196 28.4031C145.043 28.318 144.862 28.2757 144.652 28.2757ZM144.882 31.8407H144.422C144.218 31.8193 144.031 31.7688 143.859 31.6891C143.626 31.5804 143.428 31.4315 143.266 31.2437C143.104 31.0552 142.98 30.8357 142.893 30.5847C142.807 30.3335 142.764 30.0658 142.764 29.7815C142.764 29.5013 142.807 29.2353 142.893 28.9843C142.98 28.7333 143.104 28.5137 143.266 28.3252C143.428 28.1373 143.626 27.9877 143.859 27.8771C144.093 27.7662 144.357 27.7109 144.652 27.7109C144.946 27.7109 145.211 27.7662 145.444 27.8771C145.678 27.9877 145.876 28.1373 146.038 28.3252C146.2 28.5137 146.324 28.7333 146.41 28.9843C146.497 29.2353 146.54 29.5013 146.54 29.7815C146.54 30.0658 146.497 30.3335 146.41 30.5847C146.324 30.8357 146.2 31.0552 146.038 31.2437C145.876 31.4315 145.678 31.5804 145.444 31.6891C145.273 31.7688 145.085 31.8193 144.882 31.8407Z" fill="#E74214"/>
<path d="M150.952 31.1932H152.172C152.382 31.1932 152.544 31.1389 152.661 31.0299C152.777 30.9209 152.834 30.7668 152.834 30.5677C152.834 30.372 152.777 30.2216 152.661 30.1164C152.544 30.0112 152.382 29.9585 152.172 29.9585H150.952V31.1932ZM150.952 29.4601H152.078C152.244 29.4601 152.382 29.413 152.492 29.3191C152.603 29.2248 152.658 29.0892 152.658 28.9121C152.658 28.7124 152.608 28.5725 152.509 28.4913C152.409 28.41 152.266 28.3695 152.078 28.3695H150.952V29.4601ZM150.262 27.8047H152.177C152.531 27.8047 152.814 27.886 153.028 28.0483C153.241 28.2107 153.348 28.456 153.348 28.7847C153.348 28.984 153.299 29.1548 153.201 29.2967C153.104 29.439 152.965 29.5488 152.785 29.6263V29.6374C153.028 29.6891 153.212 29.8044 153.337 29.9834C153.462 30.1624 153.525 30.3865 153.525 30.6561C153.525 30.8112 153.497 30.956 153.442 31.0907C153.387 31.2256 153.3 31.3417 153.182 31.4395C153.064 31.5375 152.914 31.6149 152.73 31.6724C152.546 31.7293 152.326 31.758 152.073 31.758H150.262V27.8047Z" fill="#E74214"/>
</g>
<defs>
<clipPath id="clip0_1_494">
<rect width="156.24" height="31.44" fill="white" transform="translate(0 0.400391)"/>
</clipPath>
</defs>
</svg>
