<svg width="41" height="16" viewBox="0 0 41 16" fill="none" xmlns="http://www.w3.org/2000/svg">
<path d="M0.226868 0.856055H2.46583L4.16232 12.3961L5.8588 0.856055H7.9005L5.72072 15H2.40665L0.226868 0.856055Z" fill="#E74214"/>
<path d="M8.53215 15V0.856055H10.7514V15H8.53215Z" fill="#E74214"/>
<path d="M11.6296 11.607V10.7391H13.7305V11.7451C13.7305 12.6657 14.1152 13.126 14.8845 13.126C15.6538 13.126 16.0385 12.6657 16.0385 11.7451C16.0385 11.3506 15.9563 10.9791 15.7919 10.6306C15.6341 10.2821 15.427 9.96973 15.1705 9.69356C14.9207 9.41081 14.6412 9.13135 14.3322 8.85518C14.0231 8.57243 13.7108 8.27982 13.3951 7.97734C13.0861 7.66829 12.8033 7.34281 12.5469 7.00088C12.297 6.65895 12.0899 6.25127 11.9255 5.77783C11.7677 5.30439 11.6888 4.79479 11.6888 4.24902C11.6888 3.11146 11.965 2.23691 12.5173 1.62539C13.0762 1.00729 13.8916 0.698242 14.9634 0.698242C16.0352 0.698242 16.8473 1.00729 17.3996 1.62539C17.9585 2.23691 18.238 3.11146 18.238 4.24902V4.70273H16.1371V4.11094C16.1371 3.18379 15.7656 2.72021 15.0226 2.72021C14.6544 2.72021 14.3782 2.832 14.1941 3.05557C14.0099 3.27256 13.9179 3.62435 13.9179 4.11094C13.9179 4.50547 13.9968 4.87699 14.1546 5.22549C14.319 5.57399 14.5261 5.88962 14.776 6.17236C15.0324 6.44853 15.3152 6.72799 15.6242 7.01074C15.9333 7.28691 16.2423 7.57952 16.5514 7.88857C16.8604 8.19105 17.1399 8.51325 17.3898 8.85518C17.6462 9.1971 17.8533 9.60479 18.0112 10.0782C18.1755 10.5517 18.2577 11.0613 18.2577 11.607C18.2577 12.7446 17.975 13.6224 17.4095 14.2405C16.844 14.8521 16.0221 15.1578 14.9437 15.1578C13.8653 15.1578 13.0433 14.8521 12.4779 14.2405C11.9124 13.6224 11.6296 12.7446 11.6296 11.607Z" fill="#E74214"/>
<path d="M19.0275 11.6268V0.856055H21.2467V11.7648C21.2467 12.6854 21.6314 13.1457 22.4007 13.1457C23.1635 13.1457 23.5448 12.6854 23.5448 11.7648V0.856055H25.6457V11.6268C25.6457 12.7643 25.363 13.6422 24.7975 14.2603C24.2386 14.8718 23.4199 15.1775 22.3415 15.1775C21.2631 15.1775 20.4412 14.8718 19.8757 14.2603C19.3102 13.6422 19.0275 12.7643 19.0275 11.6268Z" fill="#E74214"/>
<path d="M26.1886 15L28.4473 0.856055H31.7022L33.9609 15H31.7219L31.3372 12.4355H28.6051L28.2204 15H26.1886ZM28.8911 10.5122H31.0315L29.9662 3.36133L28.8911 10.5122Z" fill="#E74214"/>
<path d="M34.5925 15V0.856055H36.8118V12.978H40.471V15H34.5925Z" fill="#E74214"/>
</svg>
